<?xml version="1.0" encoding="UTF-8"?>
<svg width="587px" height="395px" viewBox="0 0 587 395" version="1.1" xmlns="http://www.w3.org/2000/svg" xmlns:xlink="http://www.w3.org/1999/xlink">
    <!-- Generator: sketchtool 50.2 (55047) - http://www.bohemiancoding.com/sketch -->
    <title>B125C45F-7561-419F-BD58-D74FC077B821</title>
    <desc>Created with sketchtool.</desc>
    <defs></defs>
    <g id="Welcome" stroke="none" stroke-width="1" fill="none" fill-rule="evenodd">
        <g id="Empresa" transform="translate(-372.000000, -2706.000000)">
            <g id="Mapa" transform="translate(204.000000, 2613.000000)">
                <g transform="translate(168.086262, 93.387097)">
                    <path d="M286.84851,161.149044 C283.362886,161.976749 279.942231,161.571012 276.544316,161.661897 C274.189165,161.730061 271.814522,161.700848 269.488607,162.009208 C268.575783,162.132553 267.533019,162.882356 266.958037,163.651635 C265.350037,165.806913 264.716583,168.393897 264.586643,171.032815 C264.541165,171.980618 265.070668,173.04852 265.590425,173.91193 C266.665674,175.690684 268.79668,176.677438 269.41714,178.797012 C269.527589,179.183274 269.261213,180.004487 268.978595,180.111602 C268.020292,180.475143 266.97428,180.799733 265.964001,180.796487 C258.99925,180.75429 258.667904,180.377766 253.652243,187.194159 C250.50771,191.475503 249.737819,191.689733 245.631734,188.301012 C241.928462,185.240126 237.656704,183.321799 233.160801,181.763766 C229.291856,180.419962 225.494377,180.260913 221.609189,181.676126 C219.150086,182.575241 216.603274,183.243897 214.111686,184.061864 C209.089528,185.701044 204.324001,185.292061 199.740389,182.549274 C192.720413,178.342585 185.18068,175.301176 177.358328,172.980356 C173.031347,171.694979 169.123419,169.624094 165.257722,167.371438 C162.321092,165.660848 159.355225,163.917799 156.220437,162.642159 C153.576171,161.56452 150.698013,160.944553 147.868583,160.470651 C143.833965,159.795503 140.397068,158.149831 137.483177,155.296684 C136.36245,154.196323 135.128025,153.209569 133.909843,152.209831 C131.457237,150.20711 128.87794,148.3537 125.778886,147.538979 C122.696074,146.727503 120.86068,144.66311 119.545043,141.981995 C118.966813,140.806979 118.492534,139.576782 118.070231,138.340094 C117.631686,137.054717 117.560219,135.723897 118.551007,134.646258 C119.668486,133.43229 119.990086,132.036553 120.308437,130.436323 C121.516874,124.350258 119.684728,119.010749 116.611662,113.982848 C115.11411,111.535438 113.33394,109.224356 111.430328,107.072323 C106.391928,101.37252 101.22034,95.7863231 96.0844859,90.1741592 C95.0254799,89.0121264 93.7423283,88.0286182 92.8132617,86.7757001 C89.9383526,82.919569 86.6508859,79.6477001 81.9633223,78.0637001 C81.4825465,77.9014051 81.050498,77.5508477 80.634692,77.2327493 C79.0786677,76.0609788 78.0651405,74.6133067 78.4029829,72.5424215 C78.4874435,72.0263231 78.6076374,71.5134706 78.7440738,71.00711 C79.348292,68.7512083 78.8610193,66.8263887 76.8989344,65.46311 C73.9038314,63.382487 71.7728253,60.1950116 68.1377708,58.896651 C66.6434677,58.3643231 65.6851647,56.9296346 65.2141344,55.3553723 C64.4020132,52.6482903 62.5991041,50.9149788 60.0620374,49.8146182 C58.0999526,48.9641919 56.5244374,47.5944215 55.0886071,46.0331428 C54.0263526,44.8743559 52.9511041,43.7188149 51.8076374,42.6379296 C50.404292,41.3103559 48.8450193,40.7682903 46.7887283,41.2129788 C45.0280496,41.5959952 43.7351526,40.1905198 43.8456011,38.5253723 C43.8975768,37.7463559 43.8683405,36.9056674 44.1607041,36.2142903 C45.1969708,33.7863559 44.5667647,31.6180936 43.3908132,29.459569 C42.5137223,27.8496018 41.5749102,26.2493723 40.8992253,24.5517657 C40.2267889,22.860651 39.7720011,21.0689133 39.3594435,19.2901592 C38.9566314,17.5503559 40.5094071,15.6190444 39.1060617,14.0123231 C37.8131647,12.5321919 35.6139405,13.0872411 34.0286799,12.1589133 C33.352995,11.7629133 32.7520253,11.243569 32.0763405,10.8443231 C31.1797586,10.318487 30.2734314,9.51025752 29.3183768,9.42910998 C26.6578677,9.19865096 24.2897223,8.10478211 21.8078799,7.33874932 C20.6514193,6.98819194 19.1798556,8.41638867 19.3487768,9.68878211 C19.4527283,10.4613067 19.524195,11.2468149 19.7158556,12.00311 C20.8203405,16.3201592 22.0222799,20.6015034 22.3958556,25.0808477 C22.7012132,28.7681919 24.7672496,31.4265854 28.0124859,33.0852411 C29.8738677,34.0330444 31.9074193,34.6302903 33.7850435,35.5488805 C35.0162193,36.1493723 35.9095526,37.2302575 35.4385223,38.7233723 C34.8148132,40.7098641 35.3118314,42.2743887 36.7086799,43.7285526 C37.6150071,44.67311 38.5148374,45.6696018 39.1807768,46.7861919 C42.9587647,53.1059624 47.2727526,59.0135034 52.1519768,64.538028 C53.4968496,66.0603559 54.4259162,68.0987821 55.0593708,70.0560608 C56.608898,74.8177985 58.3728253,79.4464542 61.2120011,83.610946 C62.5926071,85.6396346 62.7550314,88.0253723 63.0733829,90.3656674 C63.2650435,91.7678969 64.1388859,92.7157001 65.5519768,93.0792411 C66.8221344,93.4070772 68.1020374,93.6992083 69.365698,94.0497657 C70.9672011,94.500946 72.1431526,95.3968149 72.6791526,97.074946 C73.237892,98.8179952 74.0760011,100.486389 74.4885586,102.252159 C74.7062071,103.196717 74.4690677,104.365241 74.0792496,105.277339 C73.8388617,105.845372 72.9715162,106.277077 72.2990799,106.478323 C71.9417465,106.585438 71.2888011,106.1797 70.9639526,105.829143 C70.444195,105.254618 70.0706193,104.547012 69.6645586,103.87511 C67.0300374,99.5256018 63.4307162,96.1433723 59.2011889,93.3713723 C56.5699162,91.6445526 53.9451405,89.9047493 51.3755889,88.0837985 C49.5629344,86.8016674 48.4259647,85.2760936 49.2478314,82.7572739 C50.719395,78.2454706 48.9619647,74.5224215 45.8401708,71.3381919 C44.1899405,69.6568149 42.3805344,68.1279952 40.6101102,66.5634706 C38.8104496,64.9729788 36.8028859,63.8401592 34.3307889,63.5610116 C30.8159283,63.1650116 27.9247768,61.3732739 25.2447768,59.1790444 C23.8479283,58.0299952 22.9903283,56.5628477 23.4028859,55.9785854 C24.1013102,54.9756018 25.1863041,55.1508805 26.1738435,54.9885854 C26.6871041,54.9074378 27.2913223,54.8814706 27.664898,54.5860936 C28.2528738,54.1284215 28.9902799,53.5311756 29.1202193,52.8819952 C30.1467405,47.8540936 28.7921223,43.5208149 24.8549586,40.1645526 C23.4678556,38.9797985 21.8208738,38.106651 20.2940859,37.0874378 C18.3320011,35.7793395 16.3276859,34.5264215 14.4208253,33.1371756 C13.1376738,32.19911 12.1631283,30.9624215 11.7310799,29.3621919 C11.5264253,28.602651 11.2080738,27.875569 11.0099162,27.116028 C9.13554046,19.92311 6.06897077,13.3144542 1.51784349,7.40691326 C0.890885917,6.59219194 0.527055614,5.57297883 0.0625222806,4.64140506 C-0.190859538,4.1317985 0.371128341,2.89835588 0.936364705,2.64192965 C1.41064349,2.42770014 1.86543137,2.08038867 2.35920107,2.00897883 C6.76739501,1.3533067 11.1820859,0.717109978 15.6000253,0.129601781 C18.2702799,-0.230693301 20.7813586,0.126355879 23.1397586,1.62920834 C26.927492,4.04740506 31.1472738,5.46261817 35.4157829,6.82589686 C41.4092374,8.74422473 47.3344738,10.8962575 53.2272253,13.1002247 C56.7258435,14.4083231 60.266692,15.1451428 63.9927041,15.0510116 C70.8177708,14.8822247 77.6395889,14.7264215 84.4646556,14.5998313 C87.167395,14.5511428 89.5680253,13.9311756 91.6925344,12.0615362 C92.5956132,11.2695362 94.0379405,10.9417001 95.2886071,10.7372083 C96.8283889,10.484028 98.4266435,10.5294706 99.9989102,10.5392083 C107.710813,10.5943887 107.20405,10.5035034 112.577043,15.4372739 C114.695056,17.3848149 116.991734,19.1473395 119.259177,20.9260936 C122.010643,23.0846182 124.26834,25.4963231 124.833577,29.1641919 C125.262377,31.9232083 126.987322,33.9421592 129.303492,35.3541264 C132.214134,37.1296346 135.215734,38.7590772 138.191347,40.4209788 C138.639637,40.6709133 139.182134,40.7553067 139.679153,40.9208477 C141.553528,41.5408149 143.453892,40.9630444 144.532389,39.359569 C145.55891,37.8437329 146.468486,36.2467493 147.520995,34.7503887 C148.49554,33.3676346 149.937868,32.7801264 151.614086,32.8223231 C156.275662,32.9326837 160.294037,34.7860936 163.831637,37.6457329 C165.010837,38.600028 166.092583,39.9568149 166.644825,41.3557985 C168.710862,46.5687165 171.725456,51.0967493 175.708098,55.0242903 C177.043225,56.3388805 177.982037,57.8936674 178.222425,59.8055034 C178.284147,60.3248477 178.368607,60.8506837 178.518037,61.3505526 C180.93491,69.5854051 181.25651,69.8548149 189.306256,73.4415362 C192.444292,74.834028 195.790231,75.5026837 198.993237,76.648487 C200.221165,77.0866837 201.069019,78.5051428 200.83188,79.7645526 C200.588243,81.0499296 200.373843,82.3547821 200.003516,83.6077001 C197.044147,93.5920936 196.910959,103.767995 197.827031,114.021799 C198.012195,116.112159 198.382522,118.183044 198.587177,120.270159 C199.097189,125.437635 201.065771,129.865044 204.983443,133.37711 C206.347807,134.600815 207.643953,135.912159 208.927104,137.226749 C210.986643,139.333339 212.513431,141.741799 212.828534,144.760487 C213.05268,146.876815 213.702377,148.860061 214.706159,150.726454 C215.47605,152.154651 216.52531,153.456258 218.100825,153.82629 C221.508486,154.621536 224.367153,156.455471 227.26805,158.237471 C228.915031,159.250192 230.701698,159.519602 232.566328,159.204749 C234.112607,158.945077 235.645892,158.57829 237.17268,158.205012 C241.50291,157.143602 245.829892,156.059471 250.153625,154.972094 C252.512025,154.378094 254.782716,154.378094 257.053407,155.478454 C258.216365,156.039995 259.525504,156.397044 260.805407,156.572323 C261.494086,156.663208 262.436147,156.361339 262.952656,155.89393 C263.901213,155.024028 264.44371,153.647766 265.470231,152.936913 C268.679734,150.713471 270.177286,147.691536 271.285019,143.991208 C272.253068,140.764782 273.675904,137.752585 273.94228,134.263241 C274.22165,130.575897 276.615783,128.018126 280.016947,126.674323 C282.199928,125.810913 284.519347,125.239635 286.819274,124.746258 C289.63571,124.14252 292.497625,123.733536 295.346547,123.275864 C297.168947,122.983733 299.049819,122.75652 300.791007,123.480356 C303.289092,124.515799 305.910619,124.476848 308.512656,124.723536 C309.958231,124.859864 311.013989,127.005405 310.370789,128.401143 C310.156389,128.875044 310.016704,129.430094 309.678862,129.787143 C308.597116,130.9297 307.440656,132.000848 306.313431,133.097962 C304.53651,134.837766 303.714643,136.976815 303.552219,139.433962 C303.311831,143.095339 303.120171,146.759962 302.694619,150.398618 C302.515953,151.920946 301.833771,153.394585 301.294522,154.858487 C300.93394,155.829012 299.702765,156.539864 298.81268,156.351602 C298.042789,156.195799 297.298886,155.919897 296.541989,155.712159 C294.612389,155.186323 292.880947,155.656979 291.406134,156.929372 C289.827371,158.299143 288.333068,159.76629 286.84851,161.149044" id="Fill-37" fill="#FF5000"></path>
                    <path d="M426.795533,353.382424 C425.574102,352.363211 424.339678,351.392686 423.176721,350.34426 C421.094442,348.47462 418.921205,347.50085 416.023557,348.575243 C413.908793,349.35426 411.800527,348.630424 410.140551,347.195735 C407.525521,344.930096 404.624624,343.339604 401.389133,342.070456 C398.754611,341.031768 396.438442,339.165374 394.018321,337.613833 C393.235436,337.107473 392.835872,335.507243 393.206199,334.783407 C393.800672,333.614883 394.489351,332.495047 395.022102,331.303801 C395.934927,329.262129 397.296042,327.889112 399.582975,327.385997 C402.883436,326.662161 405.050175,324.425735 406.667921,321.588817 C407.317617,320.449506 407.941327,319.293965 408.568284,318.144915 C410.137302,315.275538 410.832478,312.558719 409.22123,309.225178 C406.996017,304.622489 406.762127,299.607571 408.308405,294.654325 C408.802175,293.076817 408.811921,291.599932 408.373375,290.035407 C408.090757,289.03567 407.798393,287.987243 407.798393,286.958292 C407.801642,284.179801 406.677666,281.933637 405.037181,279.771866 C403.789763,278.122948 403.948939,276.899243 405.215848,275.548948 C407.54826,273.069079 409.932648,270.631407 412.274805,268.161276 C413.177884,267.216719 414.149181,266.311112 414.886587,265.243211 C417.58283,261.328653 420.629908,257.771145 424.476114,254.90826 C426.233545,253.603407 427.081399,251.65262 427.412745,249.510325 C427.536187,248.734555 427.620648,247.942555 427.601157,247.160292 C427.510199,243.323637 429.572987,240.785342 432.561593,238.772883 C433.692066,238.016588 434.955727,237.536194 436.274611,237.773145 C438.613521,238.198358 440.783508,238.714456 442.891775,236.789637 C443.729884,236.030096 445.367121,236.111243 446.650272,235.877538 C449.284793,235.390653 451.669181,234.407145 453.761205,232.706292 C454.573327,232.047374 455.398442,231.252129 456.353496,230.947014 C460.680478,229.56426 464.357763,227.123342 467.862878,224.338358 C468.22346,224.049473 468.843921,224.07544 469.353933,223.984555 C470.208284,223.828751 471.566151,224.747342 471.634369,225.753571 C471.673351,226.438456 471.449205,227.454424 470.971678,227.791997 C469.925666,228.515833 468.678248,228.996227 467.456817,229.401965 C464.646878,230.333538 462.239751,231.81367 460.303654,234.069571 C459.452551,235.066063 458.523484,236.004129 457.54569,236.87403 C454.290708,239.785604 452.107727,243.22626 451.851096,247.712096 C451.695169,250.422424 450.269084,252.65885 449.057399,254.986161 C447.969157,257.079768 448.355727,258.793604 450.473739,259.442784 C453.832672,260.468489 455.372454,263.217768 457.18186,265.707374 C457.737351,266.476653 457.724357,267.703604 457.828308,268.732555 C458.062199,271.069604 457.954999,273.468325 458.445521,275.743702 C459.397327,280.132161 462.359945,282.452981 466.855848,282.595801 C468.418369,282.647735 469.987387,282.345866 471.553157,282.241997 C473.908308,282.086194 476.26346,281.910915 478.618611,281.839506 C480.252599,281.787571 481.698175,282.397801 482.916357,283.501407 C484.082563,284.556325 485.20329,285.66967 486.418224,286.666161 C490.261181,289.82767 494.692114,291.093571 499.626563,290.564489 C501.965472,290.317801 504.262151,289.62967 506.649787,290.15226 C507.497642,290.33403 508.592381,291.619407 508.397472,292.450358 C508.046636,293.979178 507.744527,295.533965 507.231266,297.014096 C506.269714,299.789342 506.113787,302.658719 506.058563,305.547571 C506.006587,308.524063 506.633545,311.26685 508.767799,313.51626 C509.303799,314.084292 509.706611,314.772424 510.158151,315.421604 C510.801351,316.346686 510.82409,317.385374 510.596696,318.427309 C510.489496,318.93367 510.206878,319.397833 510.021714,319.891211 C508.933472,322.802784 509.196599,325.558555 511.064478,328.083866 C512.17546,329.586719 511.464042,331.706292 509.807314,332.826129 C507.786757,334.186161 505.548551,334.835342 503.12843,334.864555 C499.714272,334.903506 496.300114,334.858063 492.892454,334.965178 C491.599557,335.007374 490.296914,335.276784 489.036502,335.598129 C487.269327,336.055801 486.473448,338.311702 487.093908,340.093702 C487.756599,341.989309 489.465302,342.817014 490.686733,344.138096 C491.16426,344.65744 491.060308,345.910358 490.524308,346.260915 C490.09226,346.546555 489.679702,346.877637 489.215169,347.091866 C488.74089,347.306096 488.214636,347.393735 487.714369,347.552784 C484.556842,348.565506 484.173521,351.022653 484.430151,353.077309 C484.621811,354.602883 485.141569,356.151178 485.830248,357.524194 C486.765811,359.393833 487.974248,361.130391 489.120963,362.883178 C490.322902,364.717112 490.953108,366.745801 490.569787,368.86862 C489.445811,375.065047 488.958539,381.329637 488.295848,387.577997 C488.104187,389.376227 487.422005,391.125768 486.902248,392.878555 C486.544914,394.069801 484.855702,394.423604 483.582296,393.625112 C481.88009,392.557211 481.331096,391.06085 482.178951,389.697571 C483.286684,387.918817 484.511363,386.211473 485.511896,384.38403 C486.034902,383.432981 485.80426,382.306653 485.125327,381.423768 C482.58826,378.11944 479.105884,376.132948 475.061521,376.058292 C470.669569,375.980391 466.167169,375.370161 461.83369,377.14567 C460.459581,377.710456 458.731387,377.496227 457.165617,377.476751 C455.541375,377.45403 454.125036,376.934686 453.176478,375.41885 C451.792624,373.201899 449.944236,371.299801 449.005424,368.784227 C448.037375,366.197243 446.192236,364.317866 443.645424,363.327866 C441.264284,362.402784 439.727751,360.847997 438.814927,358.501211 C438.444599,357.540424 437.837133,356.638063 437.187436,355.826588 C436.355824,354.791145 435.267581,353.97967 433.899969,353.853079 C431.554563,353.635604 429.199411,353.534981 426.795533,353.382424" id="Fill-71" fill="#FF5000"></path>
                    <path d="M339.001098,238.133099 C332.913437,238.480411 327.598916,236.948345 322.18694,236.312148 C321.45928,236.227755 320.699134,235.789558 320.104662,235.325394 C318.048371,233.721919 315.930358,232.163886 314.075474,230.349427 C311.281777,227.60664 308.682989,224.669099 306.012734,221.802968 C305.015449,220.731821 305.168128,219.465919 306.392807,218.440214 C306.590965,218.271427 306.831352,218.154575 307.055498,218.021493 C309.456128,216.59005 310.807498,214.53864 311.158334,211.717952 C311.375983,209.974902 312.659134,209.062804 314.38408,208.819362 C315.676977,208.634345 316.992613,208.549952 318.262771,208.264312 C321.11494,207.621624 323.785195,206.625132 325.435425,203.953755 C326.332007,202.502837 327.793825,201.600476 329.333607,201.652411 C333.946455,201.801722 338.05254,200.389755 341.992952,198.221493 C342.210601,198.101394 342.502965,198.130607 342.749849,198.052706 C343.639934,197.783296 345.059522,198.591525 345.247934,199.458181 C345.754698,201.814706 345.806674,204.200443 344.750916,206.36546 C342.967498,210.033329 342.678383,213.866739 342.928516,217.823493 C343.181898,221.780247 342.652395,225.607165 341.369243,229.382148 C340.446674,232.08923 339.858698,234.909919 339.001098,238.133099" id="Fill-262" fill="#FF5000"></path>
                    <path d="M422.72631,140.041197 C420.108031,140.041197 417.493,140.106115 414.87797,140.011984 C413.585073,139.973033 412.269437,139.758803 411.01877,139.421229 C409.423764,138.989525 408.08214,138.080672 408.114625,136.214279 C408.169849,133.374115 406.607328,131.803098 404.118988,131.131197 C399.970673,130.008115 396.449316,127.862574 393.275546,125.041885 C392.49591,124.347262 391.664297,123.704574 390.826188,123.078115 C388.038988,121.007229 384.99191,119.712115 381.451061,119.455688 C377.803013,119.19277 374.174455,118.634475 370.536152,118.20277 C367.544297,117.852213 365.013728,116.76159 363.33751,114.057754 C362.798261,113.194344 361.979643,112.477 361.213,111.775885 C359.315885,110.049066 356.103134,109.597885 353.88117,110.847557 C352.289413,111.743426 350.8146,112.847033 349.291061,113.859754 C347.108079,115.300934 344.957582,116.784311 342.735619,118.16382 C341.861776,118.709131 340.848249,119.027229 339.889946,119.429721 C339.295473,119.679656 337.921364,119.199262 337.869388,118.68641 C337.82391,118.199525 337.804419,117.547098 338.077291,117.229 C338.908903,116.242246 339.776249,115.216541 340.82551,114.495951 C351.386334,107.234869 362.915207,105.433393 375.2562,108.640344 C381.350358,110.224344 387.194382,112.535426 392.882479,115.216541 C398.79797,118.001525 404.674479,120.870902 410.563982,123.717557 C415.05014,125.88582 419.598019,127.674311 424.600685,128.505262 C429.830746,129.375164 434.385122,132.072508 438.432734,135.51641 C438.627643,135.685197 438.738091,135.944869 438.91351,136.136377 C439.572952,136.850475 439.199376,138.512377 438.260564,138.749328 C436.496637,139.19077 434.722964,139.791262 432.9298,139.885393 C429.538382,140.067164 426.127473,139.937328 422.72631,139.937328 L422.72631,140.041197 Z" id="Fill-278" fill="#FF5000"></path>
                    <path d="M277.689103,206.005609 C274.346412,205.88551 270.954994,205.719969 267.560327,205.651806 C265.370849,205.606363 263.418509,204.91174 261.761782,203.564691 C259.328667,201.591183 256.957273,199.533281 254.6476,197.413707 C253.0396,195.936822 252.99737,194.521609 254.329249,192.522133 C255.196594,191.214035 256.177637,189.987084 257.057976,188.688724 C258.656231,186.332199 260.813224,185.222101 263.701127,185.322724 C266.312909,185.410363 268.924691,185.377904 271.426024,184.326232 C273.1932,183.589412 274.034558,181.382199 272.852109,179.811183 C271.598194,178.146035 270.21434,176.578265 268.823988,175.023478 C267.222485,173.228494 267.177006,171.287445 268.083334,169.20033 C268.291237,168.719937 268.49914,168.236297 268.752521,167.785117 C269.285273,166.827576 270.097394,166.116724 271.159649,165.938199 C274.538073,165.36692 277.922994,165.399379 281.288424,166.116724 C282.896424,166.457543 284.153588,167.775379 284.221806,169.34315 C284.322509,171.693183 284.319261,174.043215 284.351746,176.393248 C284.390727,179.269117 284.400473,182.138494 284.478437,185.011117 C284.507673,186.079019 285.297055,186.991117 286.359309,187.237806 C287.372837,187.47151 288.431843,187.523445 289.435624,187.779871 C291.644594,188.344658 292.219576,190.185084 290.790243,191.872953 C289.44537,193.460199 287.938073,194.953314 286.840085,196.699609 C283.44217,202.097543 283.503891,202.136494 277.689103,206.005609" id="Fill-280" fill="#FF5000"></path>
                    <path d="M345.264476,193.447172 C345.131288,193.667894 345.053324,193.982746 344.858415,194.089861 C342.805373,195.219435 340.73284,196.316549 338.670052,197.420156 C336.977591,198.322517 335.119458,198.247861 333.300306,198.22514 C329.931627,198.186189 327.183409,199.286549 325.247312,202.165664 C324.155821,203.791861 322.456864,204.470254 320.631215,204.859762 C318.8413,205.239533 317.051385,205.622549 315.248476,205.917926 C312.620452,206.349631 311.093664,207.930385 310.359506,210.387533 C310.063894,211.380779 309.855991,212.406484 309.524646,213.386746 C309.271264,214.133303 307.458609,214.788976 306.786173,214.409205 C304.716888,213.247172 302.715821,212.046189 302.517664,209.280681 C302.364985,207.167599 301.039603,206.054254 299.028791,205.655008 C296.978997,205.246025 294.906464,204.924681 292.895652,204.372877 C291.924355,204.106713 291.050512,203.444549 290.179918,202.883008 C289.351555,202.350681 288.958488,201.019861 289.172888,200.1175 C289.539967,198.552976 290.215652,197.160484 291.33313,196.011435 C293.522609,193.768517 295.738076,191.551566 297.9373,189.318385 C299.103506,188.133631 300.529591,187.575336 302.166827,187.624025 C304.51873,187.695435 306.867385,187.792812 309.212791,187.92914 C312.107191,188.097926 314.926876,187.854484 317.736815,187.023533 C320.231652,186.286713 322.804452,185.786844 325.367506,185.303205 C329.681494,184.494976 333.618658,185.41032 337.289446,187.854484 C339.667336,189.438484 342.246633,190.714123 344.692743,192.1975 C345.017591,192.398746 345.079312,193.021959 345.264476,193.447172" id="Fill-284" fill="#FF5000"></path>
                    <path d="M392.453392,258.879653 C388.958022,258.801751 385.764761,259.678145 383.520058,262.680604 C382.402579,264.173718 380.953755,265.251358 379.495185,266.35821 C378.036616,267.468309 377.906676,268.938702 378.660325,270.548669 C378.99167,271.256276 379.417222,271.957391 379.553658,272.71044 C379.74207,273.762112 379.452955,274.771587 378.592107,275.527882 C377.51361,276.47244 376.133004,276.858702 374.963549,276.222505 C372.000931,274.6028 368.960349,272.996079 366.348567,270.889489 C363.444422,268.545948 360.358361,266.728243 356.879234,265.481817 C356.15807,265.225391 355.433658,264.887817 354.82944,264.426899 C354.452616,264.141259 354.040058,263.53103 354.088785,263.1188 C354.329173,261.060899 354.667016,259.006243 355.102313,256.9808 C355.167282,256.678932 356.005392,256.256964 356.349731,256.360833 C357.324276,256.646473 358.230604,257.162571 359.156422,257.607259 C361.271185,258.626473 363.29824,259.892374 365.50721,260.629194 C369.697755,262.028177 373.745367,261.716571 377.367428,258.821227 C378.998167,257.51962 380.70687,256.305653 382.441561,255.140374 C385.186531,253.293456 388.220616,252.790341 391.443113,253.468735 C392.466385,253.682964 393.444179,254.143882 394.473949,254.276964 C401.971452,255.260473 406.587549,259.879391 409.790555,266.30303 C410.297319,267.315751 410.287573,268.347948 409.676858,269.279522 C408.370967,271.269259 406.659016,272.862997 404.667695,274.164604 C403.901052,274.664473 402.617901,274.495686 401.78304,273.75562 C399.68127,271.905456 398.414361,269.74044 399.284955,266.84185 C399.830701,265.024145 400.129561,263.258374 398.774943,261.654899 C397.352107,259.976768 395.497222,259.113358 393.317488,258.931587 C393.05761,258.908866 392.794482,258.899128 392.453392,258.879653" id="Fill-316" fill="#FF5000"></path>
                    <path d="M489.723024,156.255274 C484.466975,155.687241 478.691169,156.972618 473.337666,160.137372 C472.886127,160.403536 472.421594,160.653471 471.927824,160.825504 C471.4438,160.994291 470.911048,161.036487 470.410781,161.166323 C469.494709,161.403274 468.05563,160.549602 467.980915,159.692684 C467.571606,154.979635 467.743775,150.302291 468.965206,145.715832 C469.322539,144.388258 470.280842,143.359307 471.70043,143.239209 C474.295969,143.015241 476.95323,142.619241 479.503291,142.940586 C485.789109,143.742323 491.74683,145.712586 497.097085,149.20193 C498.159339,149.893307 499.016939,150.941733 499.838806,151.934979 C500.767872,153.064553 499.864794,155.427569 498.441957,155.787864 C497.68506,155.979372 496.921666,156.206586 496.151775,156.232553 C494.322878,156.300717 492.493981,156.255274 489.723024,156.255274" id="Fill-338" fill="#FF5000"></path>
                    <path d="M351.152423,255.366027 C350.726872,257.930289 350.32406,260.501043 349.862775,263.058813 C349.65812,264.201371 348.810266,264.847305 347.777248,265.15242 C346.585054,265.502977 344.808132,264.82783 344.327357,263.883272 C343.856326,262.964682 343.294338,262.033108 343.099429,261.039863 C342.54069,258.196453 340.741029,256.411207 338.288423,255.258912 C336.157417,254.252682 334.097878,253.265928 332.333951,251.61701 C331.716738,251.03924 330.388108,251.100912 329.381078,251.091174 C328.354557,251.081436 327.324787,251.49042 326.301514,251.464453 C322.984811,251.383305 320.639405,247.705699 321.987526,244.716223 C322.520278,243.531469 323.153732,242.362945 323.933369,241.33724 C324.352423,240.78219 325.17429,240.223895 325.830484,240.20442 C330.235429,240.090813 337.765417,241.2496 341.988448,242.684289 C342.92726,242.999141 343.895308,243.619108 344.53526,244.365666 C346.568811,246.748158 348.475672,249.234518 350.385781,251.717633 C351.311599,252.921863 351.519502,254.002748 351.152423,255.366027" id="Fill-344" fill="#D8D8D8"></path>
                    <path d="M450.447283,155.896782 C452.786192,155.672815 455.125101,155.491045 457.457514,155.208651 C458.487283,155.082061 459.539792,153.072848 459.13698,152.050389 C458.760156,151.089602 458.363841,150.09311 457.762871,149.262159 C456.541441,147.564553 455.151089,145.983799 453.880932,144.321897 C452.893392,143.026782 452.669247,141.429799 453.30595,140.689733 C454.261004,139.589372 455.573392,139.550422 456.882532,139.579635 C457.408786,139.592618 457.95778,139.595864 458.445053,139.748422 C460.433126,140.384618 462.424447,141.024061 464.373538,141.764126 C465.429295,142.163372 466.027017,143.133897 466.101732,144.198553 C466.429829,148.674651 465.994532,153.092323 464.708132,157.409372 C464.422265,158.366913 463.301538,159.405602 462.443938,159.253045 C458.220907,158.496749 454.092083,159.197864 449.953514,159.902225 C447.861489,160.26252 445.766217,160.178126 443.713174,159.61334 C443.222653,159.477012 442.689901,159.253045 442.348811,158.905733 C442.030459,158.577897 441.738095,157.996881 441.803065,157.587897 C441.871283,157.146454 442.293586,156.562192 442.699647,156.412881 C443.661198,156.062323 444.694217,155.809143 445.710992,155.737733 C447.276762,155.633864 448.858774,155.70852 450.431041,155.70852 C450.434289,155.773438 450.440786,155.831864 450.447283,155.896782" id="Fill-386" fill="#D8D8D8"></path>
                    <path d="M286.278297,165.474149 C288.048722,163.44546 289.377352,161.838739 290.803437,160.326149 C291.319946,159.777591 292.028116,159.23228 292.729788,159.086214 C293.382734,158.946641 294.211097,159.222542 294.82831,159.563362 C295.114176,159.722411 295.338322,160.634509 295.153158,160.907165 C293.590637,163.202018 293.347,165.733821 293.5614,168.388968 C293.64911,169.427657 293.590637,170.485821 293.749813,171.50828 C294.470976,176.114214 292.434176,179.564608 289.172697,182.482673 C288.838104,182.784542 288.227388,182.829985 287.73037,182.881919 C287.148891,182.950083 286.22957,182.041231 286.1646,181.379067 C286.041158,180.090444 285.843,178.795329 285.868988,177.500214 C285.9502,173.601886 286.128867,169.706805 286.278297,165.474149" id="Fill-426" fill="#D8D8D8"></path>
                    <path d="M295.631664,213.45473 C291.590549,212.59132 286.974452,211.675975 282.995058,208.962402 C282.692949,208.75791 282.527276,207.956172 282.670209,207.563418 C283.433603,205.453582 285.75627,204.100041 287.57867,204.593418 C288.082185,204.729746 288.627931,204.788172 289.076222,205.028369 C291.886161,206.52473 294.871518,207.381648 298.022549,207.787385 C299.422646,207.969156 300.241264,209.235057 300.104828,210.621057 C299.929409,212.386828 298.678743,213.522893 296.996028,213.45473 C296.736149,213.444992 296.473022,213.45473 295.631664,213.45473" id="Fill-451" fill="#FF5000"></path>
                    <path d="M524.825148,155.803279 C527.995669,155.923377 530.360566,155.981803 532.322651,157.62423 C532.858651,158.068918 533.008081,159.234197 532.47533,159.721082 C532.092008,160.071639 531.750918,160.539049 531.292881,160.727311 C528.275039,161.957508 525.16299,162.074361 522.067184,161.087607 C521.375257,160.870131 520.79053,160.220951 520.235039,159.685377 C519.322215,158.802492 519.796493,156.715377 520.995184,156.452459 C522.515475,156.118131 524.065002,155.926623 524.825148,155.803279" id="Fill-485" fill="#D8D8D8"></path>
                    <path d="M404.969719,159.059332 C409.345428,158.935987 412.863537,159.955201 416.355658,161.107496 C416.589549,161.182151 416.826689,161.386643 416.956628,161.597627 C417.213258,162.00661 417.59658,162.487004 417.557598,162.899233 C417.508871,163.330938 417.06058,163.752905 416.719489,164.116446 C416.56681,164.275496 416.241961,164.333922 415.995077,164.34366 C411.443949,164.496217 407.19818,163.35366 403.218786,161.204873 C402.919925,161.042578 402.874446,160.321987 402.812725,159.84484 C402.796483,159.705266 403.111586,159.419627 403.312992,159.374184 C404.06664,159.192414 404.833283,159.082053 404.969719,159.059332" id="Fill-495" fill="#D8D8D8"></path>
                </g>
                <g id="México" stroke-width="1" transform="translate(190.694356, 223.146010)">
                    <g id="Group">
                        <text id="México" font-family="NotoSans-Italic, Noto Sans" font-size="13" font-style="italic" font-weight="normal" line-spacing="35" fill="#FF5000">
                            <tspan x="12.5658129" y="14.1943973">México</tspan>
                        </text>
                        <ellipse id="Oval" stroke="#FF5000" stroke-width="1.5" fill-opacity="0.4" fill="#D8D8D8" cx="107.758204" cy="20.3626" rx="5.28226489" ry="5.33640553"></ellipse>
                        <path d="M58.6331402,20.0957798 L101.947712,20.0957798" id="Line-2" stroke="#FF5000" stroke-width="1.5" stroke-linecap="square"></path>
                        <ellipse id="Oval-3" fill="#FF5000" cx="57.8408005" cy="20.0957798" rx="1" ry="1"></ellipse>
                    </g>
                </g>
                <g id="Guatemala" stroke-width="1" transform="translate(274.246006, 270.331070)">
                    <g fill="#FF5000" font-family="NotoSans-Italic, Noto Sans" font-size="13" font-style="italic" font-weight="normal" line-spacing="35">
                        <text>
                            <tspan x="43.7935048" y="14.1943973">Guatemala</tspan>
                        </text>
                    </g>
                    <ellipse id="Oval-Copy-2" stroke="#FF5000" stroke-width="1.5" fill-opacity="0.4" fill="#D8D8D8" cx="149.039717" cy="20.3626" rx="5.28509636" ry="5.33640553"></ellipse>
                    <path d="M113.629572,20.0957798 L143.255589,20.0957798" id="Line-2-Copy-2" stroke="#FF5000" stroke-width="1.5" stroke-linecap="square"></path>
                    <ellipse id="Oval-3-Copy-2" fill="#FF5000" cx="112.836807" cy="20.0957798" rx="1" ry="1"></ellipse>
                </g>
                <g id="El-Salvador" stroke-width="1" transform="translate(170.052183, 287.042445)">
                    <g fill="#FF5000" font-family="NotoSans-Italic, Noto Sans" font-size="13" font-style="italic" font-weight="normal" line-spacing="35">
                        <text>
                            <tspan x="65.9222301" y="14.1943973">El Salvador</tspan>
                        </text>
                    </g>
                    <ellipse id="Oval-Copy-3" stroke="#FF5000" stroke-width="1.5" fill-opacity="0.4" fill="#D8D8D8" cx="286.650542" cy="18.3122969" rx="5.28875538" ry="5.33640553"></ellipse>
                    <path d="M135.921013,19.1127577 L280.835082,19.1127577" id="Line-2-Copy-3" stroke="#FF5000" stroke-width="1.5" stroke-linecap="square"></path>
                    <ellipse id="Oval-3-Copy-3" fill="#FF5000" cx="135.1277" cy="19.1127577" rx="1" ry="1"></ellipse>
                </g>
                <g id="Panamá" stroke-width="1" transform="translate(364.678381, 344.057725)">
                    <g fill="#FF5000" font-family="NotoSans-Italic, Noto Sans" font-size="13" font-style="italic" font-weight="normal" line-spacing="35">
                        <text>
                            <tspan x="59.1099892" y="14.1943973">Panamá</tspan>
                        </text>
                    </g>
                    <ellipse id="Oval-Copy-6" stroke="#FF5000" stroke-width="1.5" fill-opacity="0.4" fill="#D8D8D8" cx="170.681984" cy="20.3626" rx="5.26796248" ry="5.33640553"></ellipse>
                    <path d="M113.261193,20.0957798 L164.92014,20.0957798" id="Line-2-Copy-6" stroke="#FF5000" stroke-width="1.5" stroke-linecap="square"></path>
                    <ellipse id="Oval-3-Copy-6" fill="#FF5000" cx="112.470999" cy="20.0957798" rx="1" ry="1"></ellipse>
                </g>
                <g id="Colombia" stroke-width="1" transform="translate(416.775293, 414.835314)">
                    <g fill="#FF5000" font-family="NotoSans-Italic, Noto Sans" font-size="13" font-style="italic" font-weight="normal" line-spacing="35">
                        <text>
                            <tspan x="52.1248271" y="14.1943973">Colombia</tspan>
                        </text>
                    </g>
                    <ellipse id="Oval-Copy-7" stroke="#FF5000" stroke-width="1.5" fill-opacity="0.4" fill="#D8D8D8" cx="151.724912" cy="20.0817366" rx="5.26378308" ry="5.33640553"></ellipse>
                    <path d="M113.171336,20.0957798 L145.969697,20.0957798" id="Line-2-Copy-7" stroke="#FF5000" stroke-width="1.5" stroke-linecap="square"></path>
                    <ellipse id="Oval-3-Copy-7" fill="#FF5000" cx="112.381769" cy="20.0957798" rx="1" ry="1"></ellipse>
                </g>
                <g id="Honduras" stroke-width="1" transform="translate(491.480298, 259.517827)">
                    <g transform="translate(46.766494, 0.000000)" fill="#FF5000" font-family="NotoSans-Italic, Noto Sans" font-size="13" font-style="italic" font-weight="normal" line-spacing="35">
                        <text>
                            <tspan x="0" y="14.1943973">Honduras</tspan>
                        </text>
                    </g>
                    <g id="Group-4" transform="translate(11.795527, 17.245016)">
                        <path d="M0,0.666818558 L31.9845628,0.833523198" id="Line-2" stroke="#FF5000" stroke-width="1.5" stroke-linecap="square" transform="translate(15.992281, 0.750171) scale(-1, -1) translate(-15.992281, -0.750171) "></path>
                        <ellipse id="Oval-3" fill="#FF5000" transform="translate(32.702612, 0.833523) scale(-1, -1) translate(-32.702612, -0.833523) " cx="32.7026115" cy="0.833523198" rx="1" ry="1"></ellipse>
                    </g>
                    <ellipse id="Oval-Copy-4" stroke="#FF5000" stroke-width="1.5" fill-opacity="0.4" fill="#D8D8D8" transform="translate(5.277641, 18.312297) scale(-1, 1) translate(-5.277641, -18.312297) " cx="5.27764079" cy="18.3122969" rx="5.27764079" ry="5.33640553"></ellipse>
                </g>
                <g id="Nicaragua" stroke-width="1" transform="translate(507.207668, 281.144312)">
                    <g transform="translate(83.402717, 0.000000)" fill="#FF5000" font-family="NotoSans-Italic, Noto Sans" font-size="13" font-style="italic" font-weight="normal" line-spacing="35">
                        <text>
                            <tspan x="0" y="14.1943973">Nicaragua</tspan>
                        </text>
                    </g>
                    <g id="Group-4-Copy" transform="translate(10.812567, 17.245016)">
                        <path d="M0,0.717809431 L68.6628513,0.717809431" id="Line-2" stroke="#FF5000" stroke-width="1.5" stroke-linecap="square" transform="translate(34.684321, 0.717809) scale(-1, -1) translate(-34.684321, -0.717809) "></path>
                        <ellipse id="Oval-3" fill="#FF5000" transform="translate(70.003774, 0.714979) scale(-1, -1) translate(-70.003774, -0.714979) " cx="70.0037739" cy="0.714978671" rx="1" ry="1"></ellipse>
                    </g>
                    <ellipse id="Oval-Copy-5" stroke="#FF5000" stroke-width="1.5" fill-opacity="0.4" fill="#D8D8D8" transform="translate(5.262314, 18.312297) scale(-1, 1) translate(-5.262314, -18.312297) " cx="5.2623143" cy="18.3122969" rx="5.2623143" ry="5.33640553"></ellipse>
                </g>
                <g id="Rep.-Dominicana" stroke-width="1" transform="translate(642.856230, 224.129032)">
                    <g id="Rep.-Dom." transform="translate(41.976298, 0.000000)" fill="#FF5000" font-family="NotoSans-Italic, Noto Sans" font-size="11" font-style="italic" font-weight="normal" line-spacing="14">
                        <text id="República-Dominicana">
                            <tspan x="0.986328125" y="12">República</tspan>
                            <tspan x="54.2192383" y="12" font-size="13"></tspan>
                            <tspan x="0" y="24.1049805" font-size="13">Dominicana</tspan>
                        </text>
                    </g>
                    <ellipse id="Oval-Copy" stroke="#FF5000" stroke-width="1.5" fill-opacity="0.4" fill="#D8D8D8" transform="translate(5.270480, 12.928571) scale(-1, 1) translate(-5.270480, -12.928571) " cx="5.27047951" cy="12.9285714" rx="5.27047951" ry="5.35714286"></ellipse>
                    <path d="M11.7470258,13.9464286 L37.707487,13.9464286" id="Line-2" stroke="#FF5000" stroke-width="1.5" stroke-linecap="square" transform="translate(24.489946, 13.571429) scale(-1, -1) translate(-24.489946, -13.571429) "></path>
                    <ellipse id="Oval-3" fill="#FF5000" transform="translate(38.023438, 13.196429) scale(-1, -1) translate(-38.023438, -13.196429) " cx="38.0234379" cy="13.1964286" rx="1" ry="1"></ellipse>
                </g>
                <g id="Cuba" stroke-width="1" transform="translate(545.543131, 184.808149)">
                    <g transform="translate(75.943158, 0.000000)" fill="#FF5000" font-family="NotoSans-Italic, Noto Sans" font-size="13" font-style="italic" font-weight="normal" line-spacing="35">
                        <text>
                            <tspan x="0" y="14.1943973">Cuba</tspan>
                        </text>
                    </g>
                    <ellipse id="Oval" stroke="#FF5000" stroke-width="1.5" fill-opacity="0.4" fill="#D8D8D8" transform="translate(5.269236, 19.098715) scale(-1, 1) translate(-5.269236, -19.098715) " cx="5.26923589" cy="19.0987145" rx="5.26923589" ry="5.33640553"></ellipse>
                    <path d="M11.3111355,20.3485569 L72.2445143,20.3485569" id="Line-2" stroke="#FF5000" stroke-width="1.5" stroke-linecap="square" transform="translate(41.747471, 19.955348) scale(-1, -1) translate(-41.747471, -19.955348) "></path>
                    <ellipse id="Oval-3" fill="#FF5000" transform="translate(72.974191, 19.562139) scale(-1, -1) translate(-72.974191, -19.562139) " cx="72.9741913" cy="19.5621392" rx="1" ry="1"></ellipse>
                </g>
            </g>
        </g>
    </g>
</svg>