<?xml version="1.0" encoding="UTF-8"?>
<svg width="120px" height="121px" viewBox="0 0 120 121" version="1.1" xmlns="http://www.w3.org/2000/svg" xmlns:xlink="http://www.w3.org/1999/xlink">
    <!-- Generator: sketchtool 46 (44423) - http://www.bohemiancoding.com/sketch -->
    <title>D59C3DDE-EFEA-4265-8F0B-F706B05EAA1A-392-00000F82A6736B39</title>
    <desc>Created with sketchtool.</desc>
    <defs>
        <polygon id="path-1" points="0 119.999996 119.353681 119.999996 119.353681 0.646315792 0 0.646315792"></polygon>
    </defs>
    <g id="01-Inicio" stroke="none" stroke-width="1" fill="none" fill-rule="evenodd">
        <g transform="translate(-120.000000, 0.000000)" id="Header-grande">
            <g transform="translate(120.000000, 0.000000)">
                <g id="Logo-Allister">
                    <polygon id="Fill-1" fill="#FF5000" points="0 120.055439 120 120.055439 120 0.055438599 0 0.055438599"></polygon>
                    <g id="Group-7">
                        <path d="M100.826104,63.9818264 L101.107508,63.9818264 C101.241543,63.9818264 101.332771,63.9565633 101.379087,63.9207738 C101.426806,63.877265 101.447859,63.8246335 101.447859,63.7607738 C101.447859,63.7179668 101.440139,63.6821773 101.41628,63.6513001 C101.394525,63.6162124 101.359437,63.5909492 101.319437,63.5734054 C101.278736,63.5586685 101.200841,63.5523528 101.08856,63.5523528 L100.826104,63.5523528 L100.826104,63.9818264 Z M100.595231,64.7804229 L100.595231,63.354458 L101.088564,63.354458 C101.251371,63.354458 101.373476,63.3698966 101.447862,63.3958615 C101.52716,63.4218264 101.582599,63.4674404 101.631722,63.5334053 C101.673827,63.600072 101.693476,63.6667387 101.693476,63.7439317 C101.693476,63.8470896 101.659792,63.9348089 101.582599,64.0155106 C101.504704,64.0927036 101.410669,64.1348089 101.289266,64.1446334 C101.337687,64.1670896 101.37909,64.1909492 101.410669,64.2211247 C101.467511,64.2779668 101.536985,64.3691948 101.622599,64.5046334 L101.79102,64.7804229 L101.513827,64.7804229 L101.383301,64.5565633 C101.28716,64.3797212 101.210669,64.2730545 101.14681,64.2246334 C101.103301,64.1937562 101.041546,64.1783176 100.960143,64.1783176 L100.826108,64.1783176 L100.826108,64.7804229 L100.595231,64.7804229 Z M101.179088,62.9425282 C100.990316,62.9425282 100.810667,62.9937562 100.633123,63.0884931 C100.460492,63.1825282 100.321544,63.3165633 100.220492,63.4948089 C100.121544,63.6758615 100.072422,63.8555106 100.072422,64.0520018 C100.072422,64.240072 100.11593,64.4260369 100.21979,64.5965632 C100.315229,64.7748088 100.452071,64.9095457 100.631018,65.0063878 C100.804352,65.0990193 100.986106,65.1502474 101.179088,65.1502474 C101.369966,65.1502474 101.552422,65.0990193 101.725755,65.0063878 C101.903299,64.9095457 102.038036,64.7748088 102.13558,64.5965632 C102.234527,64.4260369 102.282246,64.240072 102.282246,64.0520018 C102.282246,63.8555106 102.234527,63.6758615 102.129966,63.4948089 C102.032422,63.3165633 101.896983,63.1825282 101.719439,63.0884931 C101.538387,62.9937562 101.359439,62.9425282 101.179088,62.9425282 Z M101.179088,62.7221773 C101.40014,62.7221773 101.622597,62.7811247 101.825404,62.8969141 C102.042246,63.0098966 102.205053,63.1727036 102.322948,63.3846334 C102.440141,63.5965633 102.500491,63.8176159 102.500491,64.0520019 C102.500491,64.2779668 102.444351,64.4976159 102.328562,64.7081422 C102.212772,64.9193703 102.042246,65.0821773 101.83593,65.197265 C101.626807,65.3158615 101.410667,65.3698966 101.179088,65.3698966 C100.947509,65.3698966 100.727158,65.3158615 100.519439,65.197265 C100.309614,65.0821773 100.145404,64.9193703 100.026807,64.7081422 C99.9096141,64.4976159 99.8492632,64.2779668 99.8492632,64.0520019 C99.8492632,63.8176159 99.9124211,63.5965633 100.034526,63.3846334 C100.151719,63.1727036 100.315228,63.0098966 100.52786,62.8969141 C100.734877,62.7811247 100.953825,62.7221773 101.179088,62.7221773 Z M93.0569819,63.4295457 L93.0569819,68.542528 L93.5706662,68.542528 C94.3903153,68.542528 95.0071574,68.4695455 95.4155785,68.3214754 C95.8275083,68.1762122 96.1489119,67.9137561 96.3818943,67.5305982 C96.6155786,67.1509491 96.7348768,66.6505982 96.7348768,66.0379667 C96.7348768,65.1502474 96.5194382,64.4891948 96.0892627,64.0674404 C95.6583855,63.642879 94.9657539,63.4295457 94.0113679,63.4295457 L93.0569819,63.4295457 Z M93.0569853,69.200072 L93.0569853,72.5109492 C93.0569853,73.1593703 93.0983888,73.5656861 93.1797923,73.7284931 C93.2569853,73.8962124 93.4029502,74.0337562 93.6022484,74.1341071 C93.806459,74.2323527 94.1790905,74.2863878 94.732073,74.2863878 L94.732073,74.5748089 L88.6647047,74.5748089 L88.6647047,74.2863878 C89.2225994,74.2863878 89.600845,74.231651 89.800845,74.1277913 C90.0001433,74.0232299 90.1390906,73.8884931 90.2169854,73.7249843 C90.2976871,73.5656861 90.3411959,73.1593703 90.3411959,72.5109492 L90.3411959,64.837265 C90.3411959,64.1937562 90.2976871,63.7853352 90.2169854,63.6183176 C90.1390906,63.4520019 90.0001433,63.3165633 89.7987398,63.2155106 C89.5938275,63.120072 89.2169854,63.0667387 88.6647047,63.0667387 L88.6647047,62.7741071 L94.1755817,62.7741071 C95.6155817,62.7741071 96.6611957,62.8723527 97.3285641,63.0695457 C97.9903185,63.2723527 98.5341781,63.634458 98.954529,64.1670896 C99.3762834,64.6990194 99.5868097,65.3179668 99.5868097,66.042879 C99.5868097,66.917265 99.2654062,67.637265 98.6387395,68.2077913 C98.2338272,68.5691948 97.6703185,68.8414755 96.9496168,69.0190194 L99.8022483,72.9930545 C100.172775,73.5053352 100.438739,73.8274404 100.595231,73.9523527 C100.828915,74.1341071 101.107511,74.2323527 101.421196,74.2491948 L101.421196,74.5748089 L97.7103185,74.5748089 L93.8499677,69.200072 L93.0569853,69.200072 Z M82.1355768,63.4625282 L82.1355768,68.2484931 L82.3678575,68.2484931 C83.1250505,68.2484931 83.6745242,68.0155106 84.0071557,67.5404229 C84.3531206,67.0730545 84.5671557,66.3769141 84.657682,65.4583176 L84.9545241,65.4583176 L84.9545241,71.6905983 L84.657682,71.6905983 C84.5924189,71.0070896 84.4450505,70.4470896 84.2176821,70.0105983 C83.9945242,69.5762124 83.732068,69.2793703 83.4317172,69.1284931 C83.1327698,68.9804229 82.6990856,68.9032299 82.1355768,68.9032299 L82.1355768,72.2309492 C82.1355768,72.8821773 82.1615417,73.2779668 82.2176821,73.4239317 C82.2766295,73.5713001 82.3762786,73.6891948 82.5271558,73.7797211 C82.6773312,73.8751597 82.9222435,73.9221773 83.2597873,73.9221773 L83.9643487,73.9221773 C85.0654013,73.9221773 85.9468048,73.6639317 86.612068,73.1593703 C87.2787346,72.6456861 87.7559276,71.8653352 88.0436469,70.8218264 L88.3671556,70.8218264 L87.8303136,74.5748089 L77.6113664,74.5748089 L77.6113664,74.2863878 L78.0043489,74.2863878 C78.3454015,74.2863878 78.6254015,74.2190194 78.835226,74.0948089 C78.9875067,74.0098966 79.1054015,73.8646334 79.1825944,73.6639317 C79.2534716,73.5214755 79.2801383,73.1502475 79.2801383,72.5425282 L79.2801383,64.8070896 C79.2801383,64.2576159 79.269612,63.9242826 79.2387348,63.7986685 C79.1797874,63.5909492 79.069612,63.4295457 78.9159278,63.3165633 C78.6962787,63.1523527 78.3882085,63.0667387 78.0043489,63.0667387 L77.6113664,63.0667387 L77.6113664,62.7741071 L87.5096118,62.7741071 L87.5096118,66.2463878 L87.2197872,66.2463878 C87.0513662,65.4021773 86.8113662,64.7958615 86.5046995,64.4281422 C86.1903136,64.0597212 85.7587346,63.7881422 85.1959276,63.6162124 C84.8682084,63.5130545 84.249261,63.4625282 83.3468049,63.4625282 L82.1355768,63.4625282 Z M77.4429448,62.7741071 L77.4429448,65.9860369 L77.145401,65.9860369 C76.9643484,65.2456861 76.751015,64.7130545 76.5243484,64.3902475 C76.2983835,64.0674405 75.9846993,63.8113001 75.5889098,63.6183176 C75.3678572,63.5130545 74.9776818,63.4625282 74.4225941,63.4625282 L73.5376818,63.4625282 L73.5376818,72.5425282 C73.5376818,73.1621773 73.5734713,73.5474404 73.6380327,73.7032299 C73.7039976,73.8576159 73.8331204,73.994458 74.0310151,74.108844 C74.2239976,74.2239317 74.488559,74.2863878 74.8211905,74.2863878 L75.2120677,74.2863878 L75.2120677,74.5748089 L69.0127696,74.5748089 L69.0127696,74.2863878 L69.4064538,74.2863878 C69.7468047,74.2863878 70.0232959,74.2190194 70.2310152,74.0948089 C70.3861029,74.0098966 70.5025942,73.8646334 70.5882082,73.6639317 C70.6534713,73.5214755 70.685752,73.1502475 70.685752,72.5425282 L70.685752,63.4625282 L69.8029451,63.4625282 C68.9987346,63.4625282 68.4113661,63.631651 68.0464539,63.9670896 C67.5348749,64.4379668 67.2113662,65.1123527 67.0822434,65.9860369 L66.783296,65.9860369 L66.783296,62.7741071 L77.4429448,62.7741071 Z M65.4780358,62.5102475 L65.5762814,66.4442827 L65.2162814,66.4442827 C65.0464569,65.4583177 64.6240007,64.6702475 63.9566323,64.0674405 C63.2885621,63.466037 62.5650534,63.1642826 61.7882113,63.1642826 C61.1882113,63.1642826 60.71172,63.3228791 60.3650534,63.6372651 C60.0113692,63.948844 59.8373341,64.3123528 59.8373341,64.7214756 C59.8373341,64.9825283 59.8969832,65.214809 60.0197902,65.4091949 C60.1868078,65.6828792 60.460492,65.9530546 60.8345271,66.217616 C61.1075095,66.4098967 61.7475095,66.7411248 62.7397902,67.2323529 C64.1271586,67.9046336 65.0654042,68.5425284 65.548913,69.1509494 C66.026106,69.7537565 66.2625972,70.443581 66.2625972,71.2190197 C66.2625972,72.2098969 65.8752288,73.0590197 65.0969832,73.7705987 C64.3222463,74.4800724 63.3383867,74.8414759 62.1376849,74.8414759 C61.7650534,74.8414759 61.4113692,74.7986689 61.0773341,74.7207741 C60.7411937,74.6442829 60.3236499,74.5081426 59.8197902,74.2948092 C59.537685,74.1748092 59.3075095,74.1151601 59.1264569,74.1151601 C58.9734744,74.1151601 58.8113692,74.1748092 58.6422464,74.2948092 C58.4731236,74.4162127 58.3327727,74.5965636 58.228913,74.8414759 L57.937685,74.8414759 L57.937685,70.3776161 L58.228913,70.3776161 C58.4878604,71.6141074 58.9868078,72.5593706 59.7243516,73.2098969 C60.4590885,73.8576162 61.2513692,74.1846338 62.1082113,74.1846338 C62.7622463,74.1846338 63.2885621,74.0063882 63.6794393,73.6569145 C64.066106,73.3046338 64.2654042,72.8955109 64.2654042,72.4274407 C64.2654042,72.1502478 64.1854042,71.8849846 64.0394393,71.6225284 C63.8920709,71.3628793 63.6625972,71.1172653 63.3622463,70.8835811 C63.0555797,70.6484933 62.5215446,70.3446337 61.7503165,69.9741073 C60.6654043,69.4477915 59.8906674,68.9993705 59.4254043,68.6309494 C58.9531236,68.2590196 58.5938253,67.8484932 58.343299,67.3944581 C58.0906674,66.9362125 57.9657552,66.4316511 57.9657552,65.8870897 C57.9657552,64.9516511 58.3138253,64.1544581 59.0078604,63.4969142 C59.7025972,62.8414756 60.577685,62.5102475 61.6345271,62.5102475 C62.0134744,62.5102475 62.3847025,62.5586685 62.75172,62.6513001 C63.0254042,62.7221773 63.3559306,62.8505984 63.7510183,63.0421773 C64.1475095,63.2330545 64.4197902,63.3277914 64.5783867,63.3277914 C64.7306674,63.3277914 64.8464569,63.2849843 64.9355797,63.1881422 C65.0218955,63.0955107 65.1075095,62.8702475 65.1804919,62.5102475 L65.4780358,62.5102475 Z M57.471719,74.2863878 L57.471719,74.5748089 L51.2780347,74.5748089 L51.2780347,74.2863878 L51.6738242,74.2863878 C52.0183856,74.2863878 52.2920698,74.2190194 52.5054031,74.0948089 C52.6555786,74.0098966 52.7748768,73.8646334 52.8548768,73.6639317 C52.9166312,73.5214755 52.9482102,73.1502475 52.9482102,72.5425282 L52.9482102,64.8070896 C52.9482102,64.1867387 52.9166312,63.8007738 52.8548768,63.6470896 C52.7896137,63.4948089 52.6583856,63.354458 52.4647014,63.2442826 C52.2710172,63.1228791 52.0043505,63.0667387 51.6738242,63.0667387 L51.2780347,63.0667387 L51.2780347,62.7741071 L57.471719,62.7741071 L57.471719,63.0667387 L57.0843506,63.0667387 C56.7390874,63.0667387 56.466105,63.1313001 56.2527716,63.2562124 C56.1047015,63.3362124 55.9868067,63.4779668 55.8955787,63.6807738 C55.8331225,63.8246334 55.8015436,64.2014755 55.8015436,64.8070896 L55.8015436,72.5425282 C55.8015436,73.1621773 55.8331225,73.5474404 55.9025962,73.7032299 C55.9720699,73.8576159 56.0962804,73.994458 56.2934734,74.108844 C56.4920699,74.2239317 56.7531225,74.2863878 57.0843506,74.2863878 L57.471719,74.2863878 Z M51.1439996,70.4127036 L50.6808417,74.5748089 L40.1868064,74.5748089 L40.1868064,74.2863878 L40.5854029,74.2863878 C40.9264555,74.2863878 41.2015433,74.2190194 41.4134731,74.0948089 C41.5671573,74.0098966 41.6808415,73.8646334 41.7664555,73.6639317 C41.8317187,73.5214755 41.8625959,73.1502475 41.8625959,72.5425282 L41.8625959,64.8070896 C41.8625959,64.1867387 41.8317187,63.8007738 41.7664555,63.6470896 C41.7018941,63.4948089 41.5727713,63.354458 41.3762801,63.2442826 C41.1797889,63.1228791 40.9187362,63.0667387 40.5854029,63.0667387 L40.1868064,63.0667387 L40.1868064,62.7741071 L46.5468065,62.7741071 L46.5468065,63.0667387 L46.025403,63.0667387 C45.6731223,63.0667387 45.3945258,63.1313001 45.1762802,63.2562124 C45.025403,63.3362124 44.9011925,63.4779668 44.8106661,63.6807738 C44.7475082,63.8246334 44.713824,64.2014755 44.713824,64.8070896 L44.713824,72.322879 C44.713824,72.9221773 44.751017,73.3046334 44.8155784,73.4737562 C44.8843504,73.6358615 45.025403,73.7579668 45.2232977,73.8456861 C45.3727714,73.8962124 45.7208416,73.9221773 46.2808416,73.9221773 L47.2632978,73.9221773 C47.8906662,73.9221773 48.411368,73.8063878 48.8296136,73.5846334 C49.2464557,73.3642826 49.6099645,73.0141071 49.9145259,72.5369141 C50.2176838,72.0555106 50.5054031,71.3467387 50.7804908,70.4127036 L51.1439996,70.4127036 Z M40.0555801,70.4127036 L39.5924222,74.5748089 L29.1018958,74.5748089 L29.1018958,74.2863878 L29.4920712,74.2863878 C29.8387379,74.2863878 30.1187379,74.2190194 30.3257554,74.0948089 C30.4794397,74.0098966 30.5938256,73.8646334 30.6759309,73.6639317 C30.7425976,73.5214755 30.7713695,73.1502475 30.7713695,72.5425282 L30.7713695,64.8070896 C30.7713695,64.1867387 30.7425976,63.8007738 30.6759309,63.6470896 C30.6113695,63.4948089 30.4822467,63.354458 30.2850537,63.2442826 C30.0920712,63.1228791 29.8282116,63.0667387 29.4920712,63.0667387 L29.1018958,63.0667387 L29.1018958,62.7741071 L35.4625976,62.7741071 L35.4625976,63.0667387 L34.9313695,63.0667387 C34.5825976,63.0667387 34.3025976,63.1313001 34.0892643,63.2562124 C33.9341765,63.3362124 33.8120713,63.4779668 33.721545,63.6807738 C33.6569836,63.8246334 33.6261064,64.2014755 33.6261064,64.8070896 L33.6261064,72.322879 C33.6261064,72.9221773 33.6569836,73.3046334 33.7292643,73.4737562 C33.7994397,73.6358615 33.9341765,73.7579668 34.1411941,73.8456861 C34.2878608,73.8962124 34.6338257,73.9221773 35.1924222,73.9221773 L36.1762818,73.9221773 C36.8001415,73.9221773 37.324352,73.8063878 37.7440012,73.5846334 C38.161545,73.3642826 38.524352,73.0141071 38.8225977,72.5369141 C39.1292643,72.0555106 39.4218959,71.3467387 39.6927731,70.4127036 L40.0555801,70.4127036 Z M23.8120705,70.5411245 L22.0471582,66.4730544 L20.2190881,70.5411245 L23.8120705,70.5411245 Z M24.0920706,71.19937 L19.9299653,71.19937 L19.4099653,72.3544577 C19.242246,72.7439314 19.16786,73.0681419 19.16786,73.3200717 C19.16786,73.6625278 19.2990881,73.9102471 19.5692636,74.0660366 C19.722246,74.1656857 20.1110179,74.2351594 20.7229478,74.2863874 L20.7229478,74.5748085 L16.7980355,74.5748085 L16.7980355,74.2863874 C17.2225969,74.2169138 17.5692635,74.0372646 17.8436495,73.7432296 C18.116632,73.4520015 18.4527723,72.8520015 18.8513688,71.9355103 L23.076632,62.5102475 L23.239439,62.5102475 L27.4899654,72.1979665 C27.8941759,73.1327033 28.2331232,73.7200717 28.4871583,73.9607734 C28.6850531,74.1446331 28.9650531,74.2541067 29.3271583,74.2863874 L29.3271583,74.5748085 L23.6450531,74.5748085 L23.6450531,74.2863874 L23.8808425,74.2863874 C24.3397899,74.2863874 24.6632987,74.2169138 24.8513688,74.0821769 C24.9762811,73.9867383 25.039439,73.8527032 25.039439,73.6723524 C25.039439,73.5656857 25.0218952,73.4520015 24.9903162,73.3383173 C24.9762811,73.282177 24.8885618,73.0590191 24.7271583,72.6695454 L24.0920706,71.19937 Z" id="Fill-2" fill="#FFFFFF"></path>
                        <mask id="mask-2" fill="white">
                            <use xlink:href="#path-1"></use>
                        </mask>
                        <g id="Clip-5"></g>
                        <polygon id="Fill-4" fill="#FFFFFF" mask="url(#mask-2)" points="16.3684216 77.2378926 102.984563 77.2378926 102.984563 75.9396469 16.3684216 75.9396469"></polygon>
                        <path d="M79.3701734,51.9917196 C84.4943838,51.9917196 88.6459626,56.1440003 88.6459626,61.264702 L97.2270149,61.264702 C97.2270149,51.405053 89.2298222,43.4085618 79.3701734,43.4085618 C69.5119281,43.4085618 61.5182442,51.405053 61.5182442,61.264702 L70.0992965,61.264702 C70.0992965,56.1440003 74.2529806,51.9917196 79.3701734,51.9917196" id="Fill-6" fill="#FFFFFF" mask="url(#mask-2)"></path>
                    </g>
                </g>
            </g>
        </g>
    </g>
</svg>