<?xml version="1.0" encoding="UTF-8"?>
<svg width="19px" height="19px" viewBox="0 0 19 19" version="1.1" xmlns="http://www.w3.org/2000/svg" xmlns:xlink="http://www.w3.org/1999/xlink">
    <!-- Generator: sketchtool 46 (44423) - http://www.bohemiancoding.com/sketch -->
    <title>B07291AE-DADC-41F5-A32E-6811D732F476-380-000007AD890107FA</title>
    <desc>Created with sketchtool.</desc>
    <defs></defs>
    <g id="01-Inicio" stroke="none" stroke-width="1" fill="none" fill-rule="evenodd">
        <g transform="translate(-1301.000000, -1557.000000)" id="Footer" fill-rule="nonzero" fill="#FF5000">
            <g transform="translate(0.000000, 1480.000000)">
                <g id="Icono-facebook" transform="translate(1301.000000, 77.000000)">
                    <path d="M15.0416667,0 L3.95833333,0 C1.77254167,0 0,1.77254167 0,3.95833333 L0,15.0416667 C0,17.2274583 1.77254167,19 3.95833333,19 L15.0416667,19 C17.22825,19 19,17.2274583 19,15.0416667 L19,3.95833333 C19,1.77254167 17.22825,0 15.0416667,0 Z M12.6666667,5.54166667 L11.1435,5.54166667 C10.656625,5.54166667 10.2916667,5.74116667 10.2916667,6.24545833 L10.2916667,7.125 L12.6666667,7.125 L12.47825,9.5 L10.2916667,9.5 L10.2916667,15.8333333 L7.91666667,15.8333333 L7.91666667,9.5 L6.33333333,9.5 L6.33333333,7.125 L7.91666667,7.125 L7.91666667,5.602625 C7.91666667,4.001875 8.759,3.16666667 10.656625,3.16666667 L12.6666667,3.16666667 L12.6666667,5.54166667 Z" id="Shape"></path>
                </g>
            </g>
        </g>
    </g>
</svg>