<?xml version="1.0" encoding="UTF-8"?>
<svg width="29px" height="30px" viewBox="0 0 29 30" version="1.1" xmlns="http://www.w3.org/2000/svg" xmlns:xlink="http://www.w3.org/1999/xlink">
    <!-- Generator: sketchtool 50.2 (55047) - http://www.bohemiancoding.com/sketch -->
    <title>C5B90D40-2ED2-443F-AD15-8B2059E76192</title>
    <desc>Created with sketchtool.</desc>
    <defs></defs>
    <g id="Welcome" stroke="none" stroke-width="1" fill="none" fill-rule="evenodd">
        <g id="Empresa" transform="translate(-986.000000, -694.000000)" fill="#FF5000">
            <g id="Urbana" transform="translate(986.000000, 694.000000)">
                <path d="M18.4182911,10.0714397 C19.0523867,8.74301431 18.770614,6.57518296 17.1052044,5.28775572 C15.4470636,4.00624574 13.1941642,4.06541836 11.6245318,5.37905062 C10.0151347,6.72607315 9.81545654,8.86896747 10.4256079,10.0684811 C13.080429,8.96406633 15.7420913,8.96195302 18.4182911,10.0714397 Z M13.4203521,11.2760253 C9.93261244,11.6652966 6.63599939,14.7317066 6.76641015,18.9798783 C6.90708274,23.5737873 10.6641954,26.0129674 13.4203521,26.2610697 L13.4203521,11.2760253 Z M15.4209815,26.2716363 C18.7783104,25.8899729 22.2382576,22.9245791 22.0774889,18.4849416 C21.9188581,14.0905289 18.313535,11.5173651 15.4209815,11.2929318 L15.4209815,26.2716363 Z M6.0609093,23.655361 C5.73253072,22.8818902 5.41270367,22.1291299 5.09886269,21.3886268 C4.55883386,21.339598 3.9867368,21.3387527 3.43687372,21.2275927 C1.47087802,20.8294455 -0.00554284872,19.006506 1.56428161e-05,17.0360576 C0.00129837163,16.5064626 0.351483338,16.086337 0.842340899,16.0250511 C1.36227365,15.9599612 1.82918693,16.2566696 1.94377738,16.7461118 C1.98910046,16.9380001 1.97883863,17.141723 2.00919655,17.3369927 C2.21571588,18.6654181 3.4137846,19.5437089 4.79357323,19.3683043 C4.71233374,18.2926306 4.85856482,17.2355539 5.12195181,16.1958063 C4.81366931,16.0799971 4.51265562,15.9963101 4.23943438,15.8589451 C2.6407267,15.0575787 1.80267721,13.7612755 1.71545165,11.9941274 C1.69749344,11.633597 1.70476224,11.271376 1.71245861,10.9100003 C1.72400317,10.3419432 2.12250426,9.93322939 2.66296067,9.92224019 C3.23035438,9.91125098 3.66348914,10.3241914 3.68315765,10.9040831 C3.69726767,11.3280127 3.67460612,11.7549009 3.7165086,12.1758718 C3.81955448,13.2126608 4.61356362,14.0609426 5.64231213,14.281572 C5.81633567,14.3187662 5.9185264,14.2862212 6.01302076,14.1175792 C6.64626122,12.9894954 7.48644859,12.0321669 8.51263164,11.2371404 C8.63876664,11.1395056 8.67810366,11.0684985 8.61182934,10.9053511 C7.56726051,8.31443545 8.3133811,5.52444621 10.5128334,3.75856604 C10.5679908,3.71418657 10.6201551,3.66642581 10.6928431,3.60344923 C10.0416444,2.96015827 9.39343876,2.33884572 8.77131529,1.69301879 C8.61696025,1.53283004 8.49253556,1.30417012 8.45063308,1.0886127 C8.36896602,0.671868358 8.61824298,0.277525083 9.00519951,0.0949352711 C9.38061148,-0.0821599403 9.79236743,-0.0107301295 10.1121945,0.302884779 C10.8647287,1.04085194 11.6164078,1.78008708 12.3595354,2.52777545 C12.4925116,2.66175918 12.6045366,2.68880952 12.7871116,2.63724481 C13.8757208,2.32996982 14.9703161,2.33039249 16.0576425,2.63978078 C16.2453485,2.69261348 16.3535253,2.65288329 16.4835085,2.52270351 C17.2078227,1.79445757 17.941116,1.07508753 18.6722714,0.354449495 C19.1259299,-0.0927264803 19.6869099,-0.117663515 20.1042244,0.287668962 C20.5279525,0.698496039 20.5078564,1.2690892 20.049067,1.72345042 C19.4226678,2.34307233 18.7932755,2.95973561 18.1403666,3.60260391 C18.2275921,3.67487904 18.3007077,3.73658764 18.3751059,3.79660558 C20.5194009,5.5257142 21.2638112,8.35543363 20.2324973,10.8871766 C20.1649402,11.0532826 20.1931602,11.1357016 20.3321225,11.242635 C21.3514644,12.0317442 22.1865208,12.9818875 22.8150579,14.1019408 C22.921952,14.2921385 23.03697,14.3179208 23.2310897,14.2718507 C24.3675874,13.9996567 25.1265353,13.0579666 25.1509071,11.8702875 C25.1577483,11.5541366 25.1466314,11.2379858 25.1543277,10.9218349 C25.1680102,10.3368712 25.5878901,9.92181752 26.1557114,9.92224019 C26.7072847,9.92224019 27.1391368,10.3360259 27.1198959,10.9180309 C27.095524,11.6458542 27.1245992,12.4003052 26.9394587,13.0930475 C26.5174409,14.6708433 25.4331075,15.671706 23.8485098,16.1366337 C23.8147313,16.1463549 23.7805252,16.1560762 23.7142508,16.1750959 C23.9716518,17.2249873 24.1289998,18.2816414 24.0434846,19.3602738 C25.4390935,19.6392304 26.7885242,18.5255171 26.8637777,17.033099 C26.893708,16.4388368 27.2939194,16.0267417 27.8536167,16.0144845 C28.4009144,16.0022273 28.8225046,16.4075598 28.83918,16.9616692 C28.9011786,19.0453909 27.1955769,21.0272511 25.0991704,21.2880333 C24.6476498,21.3442473 24.1892881,21.3438247 23.7480294,21.3687617 C23.4282023,22.1219447 23.1058098,22.8801996 22.781707,23.6426811 C23.0074673,23.6845246 23.2490479,23.7174922 23.48507,23.7741289 C25.4369556,24.2437059 26.8081927,25.9229405 26.8616398,27.9073367 C26.8710465,28.2598365 26.8701913,28.6123362 26.8633501,28.964836 C26.8518055,29.553181 26.4045607,30.0062742 25.8521322,29.9999343 C25.2992761,29.994017 24.8994923,29.5599435 24.8892304,28.9631454 C24.8811065,28.5117428 24.9041956,28.0556909 24.8443349,27.6110509 C24.6891247,26.4567621 23.675769,25.5945324 22.4990791,25.5767806 C22.0967298,25.5704407 21.663595,25.4829497 21.3010104,25.6017176 C20.9465496,25.7171043 20.662639,26.0455123 20.3496532,26.2838935 C16.5476449,29.1833521 11.3615723,28.9525788 7.83492325,25.7327427 C7.74000132,25.6460971 7.58308083,25.5835432 7.45438037,25.5826979 C6.95326098,25.5784713 6.44316249,25.5522662 5.95144977,25.628768 C4.79998687,25.8067085 3.9777577,26.7851701 3.9508204,27.9411496 C3.94269645,28.2936494 3.95210313,28.6461492 3.94739979,28.9982263 C3.93970341,29.5502223 3.56343629,29.9576681 3.03195899,29.996553 C2.52870172,30.0333245 2.02458929,29.6470118 1.99209349,29.1178395 C1.94121192,28.2805469 1.90315763,27.4309971 2.20673678,26.6245587 C2.85494241,24.903058 4.10260997,23.9098033 5.95358765,23.6722674 C5.98950406,23.6671955 6.02499289,23.6608556 6.0609093,23.655361 Z" id="Fill-1"></path>
            </g>
        </g>
    </g>
</svg>