<?xml version="1.0" encoding="UTF-8"?>
<svg width="34px" height="26px" viewBox="0 0 34 26" version="1.1" xmlns="http://www.w3.org/2000/svg" xmlns:xlink="http://www.w3.org/1999/xlink">
    <!-- Generator: sketchtool 50.2 (55047) - http://www.bohemiancoding.com/sketch -->
    <title>6C600C22-A713-4B3F-95F5-B049970428C6</title>
    <desc>Created with sketchtool.</desc>
    <defs>
        <polygon id="path-1" points="0.324418314 0.023787234 26.6445783 0.023787234 26.6445783 25.9997934 0.324418314 25.9997934 0.324418314 0.023787234"></polygon>
    </defs>
    <g id="Welcome" stroke="none" stroke-width="1" fill="none" fill-rule="evenodd">
        <g id="Detalle-Producto" transform="translate(-436.000000, -638.000000)">
            <g id="Ãcono-Pet-Friendly" transform="translate(436.000000, 638.000000)">
                <g>
                    <g id="Group-3" transform="translate(7.083333, 0.000000)">
                        <mask id="mask-2" fill="white">
                            <use xlink:href="#path-1"></use>
                        </mask>
                        <g id="Clip-2"></g>
                        <path d="M13.1444738,2.25353617 C13.0491439,2.35864255 12.9538141,2.46430213 12.859045,2.5699617 C9.33688698,6.52694043 5.81472899,10.4828128 2.29144948,14.4386851 C1.84564219,14.9404298 1.16487483,15.0012809 0.69383316,14.5863872 C0.226156076,14.1742596 0.198117882,13.5115362 0.634952951,13.0197489 C4.25412309,8.94549362 7.87329323,4.87068511 11.4930241,0.79753617 C12.1261266,0.0861319149 13.0698922,-0.156719149 13.9407585,0.160259574 C14.8149894,0.478897872 15.3768748,1.27494043 15.3841648,2.23472766 C15.3925762,3.37430213 15.3908939,4.51442979 15.3808002,5.65400426 C15.3796786,5.83434468 15.443045,5.90238723 15.606788,5.95494043 C16.7434564,6.32336596 17.8761995,6.70506809 19.0128679,7.07570638 C19.5551266,7.25217447 19.9785033,7.57191915 20.2919703,8.04102553 C20.6177741,8.52838723 20.9413349,9.01740851 21.2822793,9.49481277 C21.3630293,9.60766383 21.4953696,9.7133234 21.6265884,9.75868511 C22.7834443,10.1580894 23.943104,10.5536213 25.1089321,10.9275787 C26.0605484,11.2329404 26.6779495,12.1512383 26.6431821,13.0407702 C26.6185085,13.675834 26.5046734,14.2804723 26.3016769,14.8801319 C25.931012,15.9726851 25.5883852,17.0740894 25.2244495,18.1694085 C24.9272446,19.063366 24.3036752,19.5999617 23.3621526,19.7697915 C20.8975953,20.2134511 18.4335988,20.6554511 15.970163,21.1057489 C15.8653002,21.1251106 15.7436144,21.2053234 15.6830519,21.2927277 C14.7190988,22.686217 13.7652394,24.0868979 12.8052116,25.4820468 C12.3751057,26.1066 11.5496613,26.1757489 11.0550675,25.6369404 C10.7079547,25.2580043 10.6827203,24.7241745 10.9961873,24.2600468 C11.870979,22.9639191 12.7810988,21.689366 13.6121509,20.3666851 C14.1673071,19.4832383 14.9187307,19.0511957 15.9438071,18.8863447 C18.2648089,18.5129404 20.572913,18.0665149 22.8871856,17.6560468 C23.0486856,17.6272809 23.123828,17.5564723 23.1714929,17.408217 C23.5449616,16.2559191 23.9302064,15.1069404 24.2986283,13.952983 C24.3765745,13.7084723 24.3956405,13.4457064 24.4472307,13.1917915 C24.4786335,13.0407702 24.4124634,12.9782596 24.2694686,12.9323447 C23.1255102,12.5617064 21.9849165,12.1794511 20.8403974,11.809366 C20.2897273,11.6312383 19.8596214,11.3103872 19.542229,10.8340894 C19.2130606,10.3395362 18.8838922,9.84553617 18.5412655,9.36149362 C18.4683661,9.2586 18.3455589,9.16566383 18.2266769,9.12528085 C17.0681387,8.72753617 15.9051144,8.34362128 14.7448939,7.95251489 C13.7529026,7.61783404 13.1949425,6.8472383 13.1926995,5.80834468 C13.1904564,4.70472766 13.1921387,3.60111064 13.1921387,2.49694043 L13.1921387,2.27013191 C13.1764373,2.2646 13.1601752,2.25906809 13.1444738,2.25353617" id="Fill-1" fill="#FF5000" mask="url(#mask-2)"></path>
                    </g>
                    <path d="M22.6667228,11.5795512 C22.673241,10.9975988 23.1588477,10.5320369 23.7492888,10.5406584 C24.3261503,10.5492799 24.7938319,11.0234633 24.7916591,11.5989496 C24.7894864,12.180902 24.3071389,12.6529301 23.7188705,12.6486194 C23.1322316,12.6437698 22.6607478,12.1652755 22.6667228,11.5795512 Z" id="Fill-4" fill="#FF5000"></path>
                    <path d="M4.60396764,4.00101375 C4.69380298,3.88247659 4.77169819,3.76285194 4.86778789,3.656821 C5.41874011,3.05217274 6.11695405,2.76344233 6.95276391,2.82651715 C7.97393024,2.90318567 8.64144097,3.45074034 9.00703671,4.34248776 C9.31463748,5.09014185 9.24811384,5.84051468 8.95359037,6.57946879 C8.69659305,7.22598567 8.28835395,7.77897783 7.79539671,8.27868263 C7.3041452,8.77566869 6.74693863,9.19870497 6.16357746,9.59183508 C5.74567253,9.87404052 5.32606187,10.1524397 4.90645121,10.4335576 C4.69437156,10.575476 4.52152381,10.5771072 4.30944416,10.4330139 C3.69879125,10.0192213 3.08017824,9.61467252 2.47975973,9.18783 C1.84408937,8.73597506 1.27494266,8.21506406 0.815531528,7.59192837 C0.426055506,7.06449239 0.144040751,6.49029405 0.0428338431,5.84758341 C-0.0958992217,4.97323594 0.0945744534,4.17936323 0.728539073,3.51435891 C1.1907931,3.02987906 1.78040862,2.79878598 2.46440812,2.81129219 C3.36844735,2.82814839 4.06324983,3.21366603 4.55848139,3.93358895 C4.57326442,3.95588263 4.58918461,3.97872006 4.60396764,4.00101375" id="Fill-6" fill="#FF5000"></path>
                </g>
            </g>
        </g>
    </g>
</svg>