<?xml version="1.0" encoding="UTF-8"?>
<svg width="21px" height="26px" viewBox="0 0 21 26" version="1.1" xmlns="http://www.w3.org/2000/svg" xmlns:xlink="http://www.w3.org/1999/xlink">
    <!-- Generator: sketchtool 50.2 (55047) - http://www.bohemiancoding.com/sketch -->
    <title>D6CA7DF4-81E0-4C0B-BCA8-64538517AC3A</title>
    <desc>Created with sketchtool.</desc>
    <defs></defs>
    <g id="Welcome" stroke="none" stroke-width="1" fill="none" fill-rule="evenodd">
        <g id="Detalle-Producto" transform="translate(-1049.000000, -638.000000)" fill="#FF5000">
            <g id="Ãcono-PDF" transform="translate(1049.000000, 638.000000)">
                <path d="M17.9403395,6.62847729 C17.2333436,6.62847729 16.5263476,6.63349989 15.8197751,6.62680309 C14.8985636,6.61801355 14.3304268,6.11533524 14.3020623,5.21252332 C14.2686176,4.13978018 14.294442,3.0649443 14.294442,2.04075294 C15.8358624,3.54585802 17.3984504,5.07105349 18.9936364,6.62847729 L17.9403395,6.62847729 Z M15.5873555,15.4125819 C15.5606844,15.535217 15.4925249,15.6666417 15.4036212,15.7553742 C13.9231633,17.2295066 12.4376251,18.6986164 10.9499703,20.1656334 C10.7014633,20.4109036 10.3005501,20.4079738 10.0537365,20.1643778 C8.56608164,18.6973607 7.08054352,17.2286695 5.59712215,15.7578855 C5.33930148,15.5025701 5.33760808,15.1459657 5.57595461,14.9212045 C5.81091433,14.7002102 6.149595,14.711511 6.40360551,14.9626409 C7.50728117,16.0546373 8.60841673,17.1499821 9.71124569,18.2436528 C9.7696681,18.3022497 9.83274738,18.3570798 9.93096478,18.4483236 L9.93096478,18.1540831 C9.93096478,15.3711455 9.93054143,12.5882079 9.93138813,9.80568882 C9.93138813,9.40555521 10.1430636,9.16195923 10.4893645,9.15568098 C10.7941772,9.15023983 11.0384506,9.36328168 11.0693552,9.66463753 C11.0769755,9.74206925 11.0723187,9.82117516 11.0723187,9.89944397 L11.0723187,18.1302258 L11.0723187,18.4487422 C11.4943995,18.0318666 11.8694883,17.6610314 12.2441538,17.2906149 C13.0286229,16.514205 13.8122454,15.736958 14.5984079,14.9622223 C14.8122001,14.7516918 15.0573202,14.7085812 15.2910099,14.8261937 C15.5090355,14.9358537 15.641121,15.1668932 15.5873555,15.4125819 Z M20.9952392,7.38019273 C20.9952392,7.28853032 20.9486706,7.17259203 20.8834746,7.10813536 C18.5410743,4.77513878 16.1940172,2.44674625 13.84315,0.122539212 C13.7771072,0.0572454437 13.6628025,0.00534526856 13.5717821,0.00534526856 C9.83528749,-0.000514428628 6.0996396,-0.00260717762 2.36399172,0.00450816896 C1.80220515,0.00534526856 1.28995062,0.197459626 0.847548986,0.54401886 C0.227339994,1.03037373 -0.000422761901,1.69168241 5.88947118e-07,2.45176884 C0.000847290643,5.95712341 0.000423939795,9.46247798 0.000423939795,12.9678325 C0.000423939795,16.4731871 5.88947118e-07,19.9785417 0.000423939795,23.4838963 C0.000423939795,25.0258337 0.977517697,25.9968692 2.52909855,25.9968692 C7.37561906,25.9972878 12.2221396,25.9972878 17.0686601,25.9972878 C17.6012354,25.9972878 18.1342342,26.0048217 18.6668095,25.9947765 C19.9804672,25.969245 20.9956625,24.9672367 20.9969326,23.6734993 C21.0020128,18.2423971 21.0003194,12.8112949 20.9952392,7.38019273 Z"></path>
            </g>
        </g>
    </g>
</svg>