<?xml version="1.0" encoding="UTF-8"?>
<svg width="11px" height="20px" viewBox="0 0 11 20" version="1.1" xmlns="http://www.w3.org/2000/svg" xmlns:xlink="http://www.w3.org/1999/xlink">
    <!-- Generator: sketchtool 50.2 (55047) - http://www.bohemiancoding.com/sketch -->
    <title>1EE7264C-D24A-4408-8158-D1CF4019659D</title>
    <desc>Created with sketchtool.</desc>
    <defs></defs>
    <g id="Welcome" stroke="none" stroke-width="1" fill="none" fill-rule="evenodd">
        <g id="Detalle-Producto" transform="translate(-239.000000, -386.000000)" fill="#FF5000">
            <g id="Ãcono-Sig-Izq" transform="translate(239.000000, 386.000000)">
                <g id="Fill-1">
                    <path d="M2.34251676,10.0070735 C2.4440742,10.0866383 2.51085169,10.129374 2.56580399,10.1839228 C5.25603253,12.8696695 7.94417427,15.5575007 10.6361418,18.2415101 C10.9324669,18.5364906 11.0729779,18.8724695 10.9623777,19.2810643 C10.7742182,19.9766484 9.93184797,20.2285457 9.37536889,19.7633174 C9.32041659,19.7171073 9.27033347,19.6646432 9.21955475,19.6139162 C6.27543264,16.6731453 3.33096272,13.7320269 0.38684061,10.7909085 C-0.129641533,10.2746059 -0.128945934,9.72633832 0.388927406,9.20899333 C3.3459181,6.25501949 6.30256099,3.30104566 9.25989949,0.347766705 C9.68699718,-0.0788952422 10.2695612,-0.116419257 10.6768343,0.254304112 C11.0514143,0.594799803 11.1070622,1.16982059 10.8006509,1.5728563 C10.7394382,1.65381089 10.6664004,1.72607936 10.5944059,1.79800039 C7.91808931,4.47262879 5.24142495,7.14690974 2.564065,9.8204958 C2.50946049,9.8750446 2.44581319,9.92021239 2.34251676,10.0070735"></path>
                </g>
            </g>
        </g>
    </g>
</svg>