<?xml version="1.0" encoding="UTF-8"?>
<svg width="102px" height="102px" viewBox="0 0 102 102" version="1.1" xmlns="http://www.w3.org/2000/svg" xmlns:xlink="http://www.w3.org/1999/xlink">
    <!-- Generator: sketchtool 50.2 (55047) - http://www.bohemiancoding.com/sketch -->
    <title>208AE9F4-57FC-498E-90A6-27471A3FF9B8</title>
    <desc>Created with sketchtool.</desc>
    <defs>
        <polygon id="path-1" points="0 28.8611289 73.9989722 28.8611289 73.9989722 0.000102631579 0 0.000102631579"></polygon>
    </defs>
    <g id="Welcome" stroke="none" stroke-width="1" fill="none" fill-rule="evenodd">
        <g id="Inicio" transform="translate(-133.000000, 0.000000)">
            <g id="LogoAllister" transform="translate(133.000000, 0.000000)">
                <g id="Page-1">
                    <polygon fill="#FF5000" points="0 102 102 102 102 1.42108547e-14 0 1.42108547e-14"></polygon>
                    <g transform="translate(15.000000, 36.000000)">
                        <path d="M72.1553444,17.5517447 L72.3958444,17.5517447 C72.5099278,17.5517447 72.5880389,17.5301921 72.6270944,17.4994026 C72.6692333,17.4624553 72.6867056,17.4172974 72.6867056,17.3629026 C72.6867056,17.3269816 72.6795111,17.2961921 72.6589556,17.2695079 C72.6404556,17.2397447 72.61065,17.2181921 72.5767333,17.2027974 C72.5417889,17.1915079 72.4749833,17.18535 72.3794,17.18535 L72.1553444,17.18535 L72.1553444,17.5517447 Z M71.9580111,18.2332184 L71.9580111,17.0170342 L72.3794,17.0170342 C72.5191778,17.0170342 72.6229833,17.02935 72.6867056,17.0519289 C72.7545389,17.0734816 72.8018167,17.1124816 72.8439556,17.1699553 C72.8799278,17.2264026 72.8963722,17.28285 72.8963722,17.3485342 C72.8963722,17.4367974 72.8675944,17.5117184 72.8018167,17.5804816 C72.7350111,17.6461658 72.6548444,17.6820868 72.5510389,17.6913237 C72.59215,17.7097974 72.6270944,17.7303237 72.6548444,17.7559816 C72.70315,17.8042184 72.7627611,17.8822184 72.8357333,17.9971658 L72.9796222,18.2332184 L72.7432333,18.2332184 L72.6312056,18.0423237 C72.5489833,17.8914553 72.4842333,17.8001132 72.4297611,17.7590605 C72.3927611,17.7323763 72.3393167,17.7200605 72.2694278,17.7200605 L72.1553444,17.7200605 L72.1553444,18.2332184 L71.9580111,18.2332184 Z M72.4575111,16.6650079 C72.2951222,16.6650079 72.1419833,16.7091395 71.9909,16.7891921 C71.8429,16.8702711 71.7247056,16.9841921 71.6373444,17.1360868 C71.5530667,17.2910605 71.5119556,17.4439816 71.5119556,17.6122974 C71.5119556,17.7724026 71.5489556,17.9304553 71.6373444,18.0761921 C71.7195667,18.2280868 71.8357056,18.3430342 71.9888444,18.4261658 C72.1368444,18.5051921 72.2920389,18.5482974 72.4575111,18.5482974 C72.6199,18.5482974 72.7761222,18.5051921 72.9241222,18.4261658 C73.0752056,18.3430342 73.1903167,18.2280868 73.2735667,18.0761921 C73.3588722,17.9304553 73.3989556,17.7724026 73.3989556,17.6122974 C73.3989556,17.4439816 73.3588722,17.2910605 73.2694556,17.1360868 C73.1862056,16.9841921 73.0700667,16.8702711 72.9179556,16.7891921 C72.7637889,16.7091395 72.61065,16.6650079 72.4575111,16.6650079 Z M72.4575111,16.4771921 C72.6455944,16.4771921 72.8357333,16.5274816 73.0084,16.6260079 C73.1944278,16.7224816 73.3331778,16.8610342 73.4339,17.0426921 C73.5346222,17.2233237 73.5860111,17.4121658 73.5860111,17.6122974 C73.5860111,17.8042184 73.5377056,17.9920342 73.4390389,18.1716395 C73.3393444,18.3522711 73.1944278,18.4908237 73.01765,18.58935 C72.8388167,18.6899289 72.6548444,18.7361132 72.4575111,18.7361132 C72.25915,18.7361132 72.0710667,18.6899289 71.8932611,18.58935 C71.7134,18.4908237 71.5736222,18.3522711 71.4718722,18.1716395 C71.3721778,17.9920342 71.3207889,17.8042184 71.3207889,17.6122974 C71.3207889,17.4121658 71.3742333,17.2233237 71.4790667,17.0426921 C71.5787611,16.8610342 71.7195667,16.7224816 71.9004556,16.6260079 C72.0772333,16.5274816 72.2642889,16.4771921 72.4575111,16.4771921 Z M65.5179556,17.0806658 L65.5179556,21.4425079 L65.9568167,21.4425079 C66.6567333,21.4425079 67.1839833,21.3799026 67.5324,21.2536658 C67.8849278,21.1294816 68.1593444,20.9057447 68.3587333,20.5793763 C68.5581222,20.2550605 68.6598722,19.8281132 68.6598722,19.3057184 C68.6598722,18.5482974 68.4759,17.98485 68.1079556,17.6246132 C67.7400111,17.2623237 67.1490389,17.0806658 66.3329833,17.0806658 L65.5179556,17.0806658 Z M65.5179556,22.0028763 L65.5179556,24.8283237 C65.5179556,25.3815079 65.5529,25.7284026 65.6227889,25.8669553 C65.6885667,26.0106395 65.8139556,26.1276395 65.9835389,26.2128237 C66.1582611,26.2969816 66.4768722,26.3431658 66.9486222,26.3431658 L66.9486222,26.5884553 L61.7655389,26.5884553 L61.7655389,26.3431658 C62.2424278,26.3431658 62.56515,26.2959553 62.7357611,26.2076921 C62.9063722,26.1184026 63.0245667,26.0034553 63.0913722,25.8638763 C63.1602333,25.7284026 63.1972333,25.3815079 63.1972333,24.8283237 L63.1972333,18.2814553 C63.1972333,17.7323763 63.1602333,17.3844553 63.0913722,17.2417974 C63.0245667,17.0991395 62.9063722,16.9841921 62.7337056,16.8979816 C62.5589833,16.8169026 62.2372889,16.7707184 61.7655389,16.7707184 L61.7655389,16.5213237 L66.4737889,16.5213237 C67.7040389,16.5213237 68.5971778,16.6054816 69.1675944,16.7727711 C69.7328722,16.9462184 70.1974278,17.2561658 70.55715,17.7097974 C70.9168722,18.1634289 71.0967333,18.6919816 71.0967333,19.3098237 C71.0967333,20.0559553 70.8223167,20.6707184 70.2868444,21.1571921 C69.9404833,21.4650868 69.4594833,21.6970342 68.8438444,21.8489289 L71.2807056,25.23885 C71.5972611,25.6760605 71.8244,25.9511132 71.9580111,26.05785 C72.1574,26.2128237 72.3958444,26.2969816 72.6640944,26.31135 L72.6640944,26.5884553 L69.4934,26.5884553 L66.1952611,22.0028763 L65.5179556,22.0028763 Z M56.1867611,17.1083763 L56.1867611,21.1920868 L56.38615,21.1920868 C57.0326222,21.1920868 57.5012889,20.9929816 57.7859833,20.5875868 C58.0819833,20.1893763 58.2649278,19.5951395 58.3420111,18.8120605 L58.5958722,18.8120605 L58.5958722,24.1283763 L58.3420111,24.1283763 C58.2865111,23.5454289 58.1600944,23.0671658 57.9658444,22.6946132 C57.7757056,22.3241132 57.5506222,22.0716395 57.2947056,21.9423237 C57.0387889,21.8160868 56.6687889,21.7504026 56.1867611,21.7504026 L56.1867611,24.5891921 C56.1867611,25.1444289 56.2093722,25.4820868 56.2576778,25.6072974 C56.3080389,25.7325079 56.3933444,25.8341132 56.5218167,25.9110868 C56.6502889,25.9921658 56.8599556,26.0321921 57.1477333,26.0321921 L57.7500111,26.0321921 C58.6904278,26.0321921 59.4437889,25.8125605 60.01215,25.3815079 C60.5805111,24.9432711 60.9885389,24.2771921 61.2352056,23.38635 L61.51065,23.38635 L61.0522611,26.5884553 L52.3223167,26.5884553 L52.3223167,26.3431658 L52.6573722,26.3431658 C52.9492611,26.3431658 53.1887333,26.2856921 53.3675667,26.1789553 C53.4980944,26.1071132 53.5977889,25.9829289 53.6645944,25.8125605 C53.7252333,25.6904289 53.7478444,25.3743237 53.7478444,24.8550079 L53.7478444,18.2557974 C53.7478444,17.7867711 53.7385944,17.5024816 53.7129,17.3957447 C53.6615111,17.2181921 53.5679833,17.0806658 53.4364278,16.9841921 C53.2483444,16.8446132 52.9862611,16.7707184 52.6573722,16.7707184 L52.3223167,16.7707184 L52.3223167,16.5213237 L60.7788722,16.5213237 L60.7788722,19.4832711 L60.5311778,19.4832711 C60.3872889,18.7638237 60.1817333,18.2465605 59.91965,17.9325079 C59.6514,17.6184553 59.2824278,17.3865079 58.8024556,17.2397447 C58.5218722,17.1525079 57.9935944,17.1083763 57.2227611,17.1083763 L56.1867611,17.1083763 Z M52.1784278,16.5213237 L52.1784278,19.2615868 L51.9245667,19.2615868 C51.7693722,18.6293763 51.5874556,18.1757447 51.3932056,17.9006921 C51.1999833,17.6246132 50.9317333,17.4060079 50.5946222,17.2417974 C50.4055111,17.1525079 50.0714833,17.1083763 49.5976778,17.1083763 L48.8422611,17.1083763 L48.8422611,24.8550079 C48.8422611,25.3835605 48.8720667,25.7130079 48.9275667,25.8454026 C48.9840944,25.9767711 49.0940667,26.0937711 49.26365,26.1912711 C49.4280944,26.2897974 49.6542056,26.3431658 49.9378722,26.3431658 L50.2729278,26.3431658 L50.2729278,26.5884553 L44.9757611,26.5884553 L44.9757611,26.3431658 L45.3118444,26.3431658 C45.6037333,26.3431658 45.8390944,26.2856921 46.0169,26.1789553 C46.1494833,26.1071132 46.2491778,25.9829289 46.32215,25.8125605 C46.37765,25.6904289 46.4054,25.3743237 46.4054,24.8550079 L46.4054,17.1083763 L45.6510111,17.1083763 C44.9634278,17.1083763 44.4618722,17.2530868 44.1504556,17.5394289 C43.7126222,17.9407184 43.4371778,18.5164816 43.3261778,19.2615868 L43.0712889,19.2615868 L43.0712889,16.5213237 L52.1784278,16.5213237 Z M41.95615,16.2965605 L42.0394,19.6526132 L41.7331222,19.6526132 C41.5871778,18.8120605 41.2264278,18.1387974 40.6560111,17.6246132 C40.0855944,17.1114553 39.4668722,16.85385 38.8029278,16.85385 C38.2910944,16.85385 37.8840944,16.9893237 37.5870667,17.2582184 C37.2859278,17.5240342 37.1369,17.8339816 37.1369,18.1829289 C37.1369,18.4056395 37.1882889,18.6037184 37.2931222,18.7699816 C37.4359833,19.0029553 37.6692889,19.2338763 37.9889278,19.4586395 C38.2222333,19.6238763 38.7690111,19.9061132 39.6159,20.32485 C40.8019556,20.8985605 41.6036222,21.4425079 42.0167889,21.9618237 C42.4237889,22.4760079 42.6262611,23.0640868 42.6262611,23.7260605 C42.6262611,24.5717447 42.2953167,25.2963237 41.6303444,25.9028763 C40.9684556,26.5084026 40.1277333,26.8162974 39.1020111,26.8162974 C38.7844278,26.8162974 38.4822611,26.77935 38.1965389,26.7136658 C37.9097889,26.6479816 37.5521222,26.5320079 37.1225111,26.35035 C36.8809833,26.2477184 36.6846778,26.1964026 36.5294833,26.1964026 C36.3989556,26.1964026 36.2612333,26.2477184 36.1163167,26.35035 C35.9714,26.4540079 35.8521778,26.6079553 35.7627611,26.8162974 L35.5140389,26.8162974 L35.5140389,23.0076395 L35.7627611,23.0076395 C35.9837333,24.0637184 36.4102611,24.8693763 37.0402889,25.4246132 C37.6682611,25.9767711 38.3455667,26.2559289 39.0763167,26.2559289 C39.6354278,26.2559289 40.0855944,26.1040342 40.4196222,25.8053763 C40.7495389,25.5046658 40.92015,25.1557184 40.92015,24.7564816 C40.92015,24.5204289 40.8512889,24.2936132 40.7269278,24.0698763 C40.6015389,23.8492184 40.4052333,23.6388237 40.1482889,23.4397184 C39.8862056,23.2395868 39.4298722,22.9799289 38.7710667,22.6638237 C37.8440111,22.2153237 37.18315,21.8325079 36.7843722,21.5184553 C36.3814833,21.2013237 36.0741778,20.8503237 35.8604,20.4634026 C35.6445667,20.0723763 35.5387056,19.64235 35.5387056,19.1774289 C35.5387056,18.3789553 35.8357333,17.6995342 36.4287611,17.1381395 C37.0217889,16.5787974 37.7700111,16.2965605 38.6724,16.2965605 C38.99615,16.2965605 39.3137333,16.3376132 39.6272056,16.4166395 C39.8605111,16.4771921 40.14315,16.5870079 40.4812889,16.7501921 C40.8194278,16.9133763 41.0517056,16.9944553 41.1873722,16.9944553 C41.3179,16.9944553 41.4165667,16.9575079 41.4926222,16.8743763 C41.5666222,16.7963763 41.6395944,16.6034289 41.7012611,16.2965605 L41.95615,16.2965605 Z M35.1162889,26.3431658 L35.1162889,26.5884553 L29.8242611,26.5884553 L29.8242611,26.3431658 L30.1624,26.3431658 C30.4563444,26.3431658 30.6906778,26.2856921 30.8725944,26.1789553 C31.0010667,26.1071132 31.1028167,25.9829289 31.1716778,25.8125605 C31.2240944,25.6904289 31.2518444,25.3743237 31.2518444,24.8550079 L31.2518444,18.2557974 C31.2518444,17.7262184 31.2240944,17.3977974 31.1716778,17.2664289 C31.1161778,17.1360868 31.00415,17.0170342 30.8386778,16.9226132 C30.6732056,16.8189553 30.4450389,16.7707184 30.1624,16.7707184 L29.8242611,16.7707184 L29.8242611,16.5213237 L35.1162889,16.5213237 L35.1162889,16.7707184 L34.7853444,16.7707184 C34.4903722,16.7707184 34.2560389,16.8261395 34.07515,16.9328763 C33.9477056,17.0006132 33.8469833,17.1217184 33.7688722,17.2951658 C33.7164556,17.4172974 33.6887056,17.7395605 33.6887056,18.2557974 L33.6887056,24.8550079 C33.6887056,25.3835605 33.7164556,25.7130079 33.7760667,25.8454026 C33.83465,25.9767711 33.9415389,26.0937711 34.1090667,26.1912711 C34.27865,26.2897974 34.5016778,26.3431658 34.7853444,26.3431658 L35.1162889,26.3431658 Z M29.7101778,23.0374026 L29.3144833,26.5884553 L20.3491778,26.5884553 L20.3491778,26.3431658 L20.6893722,26.3431658 C20.9802333,26.3431658 21.2155944,26.2856921 21.3964833,26.1789553 C21.5280389,26.1071132 21.62465,25.9829289 21.69865,25.8125605 C21.75415,25.6904289 21.7808722,25.3743237 21.7808722,24.8550079 L21.7808722,18.2557974 C21.7808722,17.7262184 21.75415,17.3977974 21.69865,17.2664289 C21.64315,17.1360868 21.5331778,17.0170342 21.3646222,16.9226132 C21.1970944,16.8189553 20.9740667,16.7707184 20.6893722,16.7707184 L20.3491778,16.7707184 L20.3491778,16.5213237 L25.7820111,16.5213237 L25.7820111,16.7707184 L25.3369833,16.7707184 C25.0358444,16.7707184 24.7974,16.8261395 24.6113722,16.9328763 C24.4829,17.0006132 24.3760111,17.1217184 24.2989278,17.2951658 C24.2454833,17.4172974 24.2156778,17.7395605 24.2156778,18.2557974 L24.2156778,24.6671921 C24.2156778,25.1793237 24.2475389,25.5046658 24.3030389,25.6493763 C24.36265,25.7879289 24.4829,25.8915868 24.6514556,25.9665079 C24.7789,26.0106395 25.0769556,26.0321921 25.5548722,26.0321921 L26.3945667,26.0321921 C26.9310667,26.0321921 27.3750667,25.9336658 27.7327333,25.7437974 C28.0883444,25.5559816 28.3997611,25.2573237 28.6597889,24.8509026 C28.9187889,24.43935 29.1644278,23.83485 29.3987611,23.0374026 L29.7101778,23.0374026 Z M20.2361222,23.0374026 L19.8404278,26.5884553 L10.8782056,26.5884553 L10.8782056,26.3431658 L11.2122333,26.3431658 C11.5082333,26.3431658 11.7477056,26.2856921 11.9234556,26.1789553 C12.0550111,26.1071132 12.1536778,25.9829289 12.2225389,25.8125605 C12.2800944,25.6904289 12.3047611,25.3743237 12.3047611,24.8550079 L12.3047611,18.2557974 C12.3047611,17.7262184 12.2800944,17.3977974 12.2225389,17.2664289 C12.1680667,17.1360868 12.0580944,17.0170342 11.8885111,16.9226132 C11.7240667,16.8189553 11.4989833,16.7707184 11.2122333,16.7707184 L10.8782056,16.7707184 L10.8782056,16.5213237 L16.3130944,16.5213237 L16.3130944,16.7707184 L15.8588167,16.7707184 C15.5607611,16.7707184 15.3212889,16.8261395 15.1393722,16.9328763 C15.0067889,17.0006132 14.9029833,17.1217184 14.8248722,17.2951658 C14.7693722,17.4172974 14.7436778,17.7395605 14.7436778,18.2557974 L14.7436778,24.6671921 C14.7436778,25.1793237 14.7693722,25.5046658 14.8320667,25.6493763 C14.8916778,25.7879289 15.0067889,25.8915868 15.1835667,25.9665079 C15.3089556,26.0106395 15.6049556,26.0321921 16.0818444,26.0321921 L16.9215389,26.0321921 C17.4549556,26.0321921 17.9030667,25.9336658 18.2617611,25.7437974 C18.6184,25.5559816 18.9287889,25.2573237 19.18265,24.8509026 C19.4457611,24.43935 19.6944833,23.83485 19.9267611,23.0374026 L20.2361222,23.0374026 Z M6.35906667,23.1482447 L4.85131667,19.6772447 L3.29012222,23.1482447 L6.35906667,23.1482447 Z M6.59853889,23.7086132 L3.04242778,23.7086132 L2.59842778,24.6949026 C2.45453889,25.0274289 2.39184444,25.3035079 2.39184444,25.5180079 C2.39184444,25.8105079 2.50284444,26.0219289 2.73512222,26.15535 C2.86462222,26.2395079 3.19762222,26.2990342 3.71973333,26.3431658 L3.71973333,26.5884553 L0.366094444,26.5884553 L0.366094444,26.3431658 C0.729927778,26.2836395 1.02592778,26.1307184 1.26026111,25.8792711 C1.49356667,25.6309026 1.78031667,25.1197974 2.12051111,24.3377447 L5.73006667,16.2965605 L5.86984444,16.2965605 L9.50201111,24.5614816 C9.84631667,25.3589289 10.13615,25.8597711 10.3530111,26.0650342 C10.5225944,26.2220605 10.7610389,26.3154553 11.0714278,26.3431658 L11.0714278,26.5884553 L6.21620556,26.5884553 L6.21620556,26.3431658 L6.41765,26.3431658 C6.81026111,26.3431658 7.08570556,26.2836395 7.24706667,26.1686921 C7.35292778,26.0876132 7.4074,25.9726658 7.4074,25.8187184 C7.4074,25.7284026 7.39301111,25.6309026 7.36526111,25.5334026 C7.35292778,25.4861921 7.27892778,25.2963237 7.14120556,24.9637974 L6.59853889,23.7086132 Z" id="Fill-1" fill="#FEFEFE"></path>
                        <mask id="mask-2" fill="white">
                            <use xlink:href="#path-1"></use>
                        </mask>
                        <g id="Clip-4"></g>
                        <polygon id="Fill-3" fill="#FEFEFE" mask="url(#mask-2)" points="0 28.8611289 73.9989722 28.8611289 73.9989722 27.7537342 0 27.7537342"></polygon>
                        <path d="M53.8246194,7.32286579 C58.201925,7.32286579 61.7498139,10.8646816 61.7498139,15.2337079 L69.0809528,15.2337079 C69.0809528,6.82202368 62.2482861,0.000102631579 53.8246194,0.000102631579 C45.4019806,0.000102631579 38.5723972,6.82202368 38.5723972,15.2337079 L45.9035361,15.2337079 C45.9035361,10.8646816 49.4534806,7.32286579 53.8246194,7.32286579" id="Fill-5" fill="#FEFEFE" mask="url(#mask-2)"></path>
                    </g>
                </g>
            </g>
        </g>
    </g>
</svg>