<?xml version="1.0" encoding="UTF-8"?>
<svg width="31px" height="24px" viewBox="0 0 31 24" version="1.1" xmlns="http://www.w3.org/2000/svg" xmlns:xlink="http://www.w3.org/1999/xlink">
    <!-- Generator: sketchtool 50.2 (55047) - http://www.bohemiancoding.com/sketch -->
    <title>662C1640-44C6-45A5-8550-119475E45672</title>
    <desc>Created with sketchtool.</desc>
    <defs>
        <polygon id="path-1" points="1.02594456e-15 24 1.02594456e-15 0 31 0 31 24"></polygon>
    </defs>
    <g id="Welcome" stroke="none" stroke-width="1" fill="none" fill-rule="evenodd">
        <g id="Secciones" transform="translate(-79.000000, -199.000000)">
            <g id="FlechaRegreso" transform="translate(79.000000, 199.000000)">
                <g>
                    <mask id="mask-2" fill="white">
                        <use xlink:href="#path-1"></use>
                    </mask>
                    <g id="Clip-2"></g>
                    <path d="M3.84805272,13.2250359 C3.97787529,13.3191129 4.12271466,13.3988634 4.2360672,13.5101322 C7.09555471,16.3238469 9.9545578,19.1375616 12.8024194,21.9632151 C13.0107168,22.1699935 13.1991533,22.4441062 13.2781126,22.7196516 C13.4064819,23.168547 13.1448991,23.6336791 12.7370237,23.8605146 C12.3291483,24.08735 11.8355319,24.0352972 11.4620498,23.7205929 C11.3617764,23.6360668 11.2707068,23.5400796 11.1767308,23.4474353 C7.64197211,19.9632427 4.10721346,16.4785726 0.572939218,12.9939025 C-0.191463845,12.2403312 -0.190979432,11.7532319 0.574392456,10.998228 C4.12949643,7.49302333 7.68169394,3.98495335 11.2484238,0.491209818 C11.4736757,0.270582492 11.7962945,0.0881590328 12.103412,0.0222573642 C12.5849181,-0.0804155253 12.9564626,0.182236052 13.1884962,0.602001029 C13.4040598,0.992158009 13.3333356,1.46158801 13.0223427,1.81831661 C12.926429,1.92815272 12.818405,2.02796032 12.7137719,2.13063321 C9.88867769,4.91665013 7.06406789,7.70266705 4.23558279,10.4858187 C4.12271466,10.5966099 3.97787529,10.6763605 3.84756831,10.7704375 C3.8703357,10.8167597 3.89261868,10.8626043 3.91490166,10.9089265 C4.08153959,10.9089265 4.24817752,10.9089265 4.41481545,10.9089265 C12.8634554,10.9089265 21.3125797,10.9089265 29.7617041,10.909404 C30.5023709,10.909404 30.98969,11.3315568 30.9998627,11.9757694 C31.0090665,12.5832109 30.5546875,13.0598041 29.9385147,13.0855917 C29.80627,13.0908448 29.6730566,13.0865468 29.5403275,13.0865468 C21.1653183,13.0865468 12.7898247,13.0865468 4.41481545,13.0865468 L3.9357314,13.0865468 C3.90666664,13.132869 3.87711748,13.1787137 3.84805272,13.2250359" id="Fill-1" fill="#FF5000" mask="url(#mask-2)"></path>
                </g>
            </g>
        </g>
    </g>
</svg>