<?xml version="1.0" encoding="UTF-8"?>
<svg width="23px" height="22px" viewBox="0 0 23 22" version="1.1" xmlns="http://www.w3.org/2000/svg" xmlns:xlink="http://www.w3.org/1999/xlink">
    <!-- Generator: sketchtool 50.2 (55047) - http://www.bohemiancoding.com/sketch -->
    <title>E0DA5500-28B3-440F-B637-E1B0D63A8830</title>
    <desc>Created with sketchtool.</desc>
    <defs></defs>
    <g id="Welcome" stroke="none" stroke-width="1" fill="none" fill-rule="evenodd" opacity="0.9">
        <g id="Menú-Inicio" transform="translate(-1369.000000, -502.000000)" fill="#FF5000">
            <g id="MenúSecciones" transform="translate(1090.000000, -2.000000)">
                <path d="M294.86803,525.999341 L294.86803,517.479472 L294.94517,517.479472 C295.88462,517.479472 296.826825,517.479472 297.76903,517.479472 C297.82964,517.479472 297.854435,517.471566 297.8627,517.403049 C297.91229,516.997215 297.970144,516.591381 298.025244,516.185548 C298.077589,515.819244 298.127179,515.450304 298.176768,515.084 C298.218093,514.780942 298.256663,514.477885 298.297988,514.169556 L294.870785,514.169556 C294.865275,513.36316 294.86252,512.61474 294.870785,511.866319 C294.870785,511.608062 294.909355,511.355074 295.022309,511.115264 C295.149039,510.838559 295.372193,510.656724 295.664221,510.551313 C295.909415,510.464349 296.165629,510.427455 296.427352,510.42482 C297.063754,510.422184 297.700156,510.419549 298.336557,510.416914 L298.416452,510.416914 L298.416452,507.460126 C298.309008,507.449585 298.207073,507.433774 298.099629,507.428503 C297.78556,507.404785 297.468737,507.386338 297.151914,507.367891 C296.942535,507.35735 296.733156,507.346809 296.521022,507.344174 C296.162874,507.338903 295.80197,507.325727 295.446577,507.338903 C294.81844,507.362621 294.212344,507.483844 293.639306,507.734196 C293.248098,507.905489 292.892705,508.129488 292.578637,508.416734 C292.151614,508.804121 291.845811,509.26793 291.633677,509.789716 C291.465623,510.213997 291.360933,510.651454 291.325118,511.102087 C291.305833,511.331357 291.292058,511.560626 291.292058,511.789896 C291.286548,512.556763 291.292058,513.323631 291.292058,514.090498 L291.292058,514.166921 L288.302899,514.166921 L288.302899,517.474201 L291.286548,517.474201 L291.286548,525.999341 C287.539768,525.999341 283.856351,526.001976 280.17018,525.996706 C279.941516,525.996706 279.732138,525.912377 279.544798,525.785883 C279.266545,525.593508 279.081961,525.34052 279.024106,525.013745 C279.010331,524.939957 279.002066,524.863534 279.002066,524.789746 C278.999311,518.248974 278.999311,511.708202 279.002066,505.16743 C279.002066,504.903902 279.098491,504.669362 279.272055,504.461174 C279.434599,504.266164 279.635713,504.123858 279.886417,504.055341 C280.002126,504.026353 280.123346,504 280.244565,504 C287.08795,504 293.92858,504 300.77472,504 C301.041954,504 301.287147,504.0896 301.502036,504.245081 C301.74172,504.421645 301.898754,504.650915 301.967629,504.93289 C301.986914,505.004043 301.997934,505.080466 301.997934,505.154254 C302.000689,511.716108 302.000689,518.277962 301.997934,524.839817 C301.997934,525.084898 301.909774,525.303627 301.761005,525.501273 C301.579176,525.746354 301.328472,525.8992 301.025424,525.967718 C300.948284,525.986165 300.871145,525.996706 300.794005,525.996706 C298.84623,525.999341 296.898455,525.999341 294.95068,525.999341 L294.86803,525.999341 Z" id="Facebook"></path>
            </g>
        </g>
    </g>
</svg>