<?xml version="1.0" encoding="UTF-8"?>
<svg width="29px" height="26px" viewBox="0 0 29 26" version="1.1" xmlns="http://www.w3.org/2000/svg" xmlns:xlink="http://www.w3.org/1999/xlink">
    <!-- Generator: sketchtool 50.2 (55047) - http://www.bohemiancoding.com/sketch -->
    <title>A29351B1-DDF8-4C34-AFCF-8B06C6E0AB9E</title>
    <desc>Created with sketchtool.</desc>
    <defs>
        <polygon id="path-1" points="0.0194861435 0.0846393762 26.9532386 0.0846393762 26.9532386 13.2002456 0.0194861435 13.2002456 0.0194861435 0.0846393762"></polygon>
        <polygon id="path-3" points="26.9339471 12.3157895 0.000194655556 12.3157895 0.000194655556 0.0575687831 26.9339471 0.0575687831"></polygon>
    </defs>
    <g id="Welcome" stroke="none" stroke-width="1" fill="none" fill-rule="evenodd">
        <g id="Detalle-Producto" transform="translate(-370.000000, -638.000000)">
            <g id="Ãcono-Biodegradable" transform="translate(370.000000, 638.000000)">
                <g>
                    <path d="M14.3139781,11.9660532 C14.2906045,11.6066962 14.2859298,11.2410985 14.221886,10.8905823 C13.7894739,8.52173809 11.9537091,6.85496624 9.78229896,6.84404512 C8.98666063,6.84040474 8.19008736,6.84300501 7.39444903,6.84300501 L7.25,6.84300501 C7.27711341,7.31885407 7.2738411,7.77806142 7.33461254,8.22634763 C7.53095102,9.66741621 8.14053526,10.8640596 9.14186152,11.8037965 C9.91412622,12.5292713 10.805129,12.9796377 11.8115974,13.1018503 C12.2818748,13.1585361 12.7596318,13.1429345 13.233649,13.1595763 C13.2813312,13.1611364 13.3285459,13.1595763 13.387915,13.1595763 L13.387915,20.6941131 L13.3874475,20.6941131 C13.3874475,20.6951532 13.387915,20.6961933 13.387915,20.6967133 L13.387915,20.6972334 C13.3888499,20.9811827 13.5964077,21.2105263 13.8525827,21.2105263 C14.1087577,21.2105263 14.3163155,20.9811827 14.3177179,20.6972334 L14.3186529,20.6972334 L14.3186529,16.8529971 C15.9870625,17.0152538 17.5016736,16.6309342 18.7479555,15.3360006 C19.9886278,14.0478278 20.5098597,12.4372218 20.4224423,10.5593082 L20.3125863,10.5593082 C19.5122732,10.5593082 18.7124276,10.5494271 17.912582,10.5619084 C16.5045546,10.5832306 15.3433527,11.1989741 14.4280414,12.3893768 C14.3976557,12.429421 14.3668025,12.468945 14.3163155,12.5349919 C14.3163155,12.32281 14.3251975,12.1433915 14.3139781,11.9660532" id="Fill-1" fill="#FF5000"></path>
                    <g id="Group-5" transform="translate(1.977273, 0.000000)">
                        <mask id="mask-2" fill="white">
                            <use xlink:href="#path-1"></use>
                        </mask>
                        <g id="Clip-4"></g>
                        <path d="M26.5489127,8.28102534 C26.1151014,7.95615205 25.5133632,8.0625848 25.2040495,8.5177115 L24.3759959,9.73712671 C22.9761221,4.66788694 18.8498482,0.897633528 13.7922552,0.198218324 C7.80479095,-0.627902534 2.03543868,3.11650292 0.0724305601,9.10359844 C-0.101286972,9.63272125 0.166527557,10.2094854 0.670308401,10.3914347 C1.17457179,10.573384 1.72274712,10.2920975 1.8959821,9.76348148 C3.56174022,4.68207797 8.46057463,1.50379337 13.5408474,2.20675634 C17.6656737,2.77693177 21.0594387,5.7540078 22.3739013,9.802 L21.523168,9.1654308 C21.0893567,8.8405575 20.4871359,8.94648343 20.1783047,9.40211696 C19.868991,9.85775049 19.9698437,10.4897583 20.403655,10.8151384 L23.3375511,13.0122144 C23.5069257,13.1394269 23.7028405,13.2002456 23.8963425,13.2002456 C24.1974529,13.2002456 24.4942203,13.0522534 24.6824143,12.7750214 L26.7742629,9.69404678 C27.0830941,9.23841326 26.9822414,8.60589864 26.5489127,8.28102534" id="Fill-3" fill="#FF5000" mask="url(#mask-2)"></path>
                    </g>
                    <g id="Group-8" transform="translate(0.000000, 13.684211)">
                        <mask id="mask-4" fill="white">
                            <use xlink:href="#path-3"></use>
                        </mask>
                        <g id="Clip-7"></g>
                        <path d="M26.2831249,2.68266316 C25.7803091,2.51261053 25.2306862,2.77503158 25.0574512,3.26955789 C23.3912105,8.01824211 18.4928586,10.9887158 13.4121034,10.3317158 C9.28775962,9.79882105 5.8939946,7.01687368 4.57953194,3.23355789 L5.42978275,3.82850526 C5.86407658,4.13261053 6.46629736,4.03313684 6.77512853,3.60729474 C7.08444225,3.18192632 6.98358957,2.59076842 6.54977829,2.28666316 L3.61588218,0.233242105 C3.40790369,0.0873473684 3.14877504,0.0295578947 2.89688462,0.0702947368 C2.64451165,0.111978947 2.41964395,0.249821053 2.27101895,0.454452632 L0.179170333,3.33445263 C-0.129660836,3.75982105 -0.0288081575,4.35097895 0.404520576,4.65461053 C0.574377719,4.77350526 0.769809943,4.83082105 0.963311972,4.83082105 C1.26442236,4.83082105 1.56167236,4.69250526 1.74938381,4.4334 L2.57743738,3.29418947 C3.97731116,8.03197895 8.10358511,11.5557158 13.1606955,12.2089263 C13.7156265,12.2809263 14.2681448,12.3159789 14.8163201,12.3159789 C20.1837093,12.3159789 25.0999155,8.96324211 26.8810027,3.88582105 C27.0547203,3.39176842 26.7869057,2.85271579 26.2831249,2.68266316" id="Fill-6" fill="#FF5000" mask="url(#mask-4)"></path>
                    </g>
                </g>
            </g>
        </g>
    </g>
</svg>