<?xml version="1.0" encoding="UTF-8"?>
<svg width="25px" height="30px" viewBox="0 0 25 30" version="1.1" xmlns="http://www.w3.org/2000/svg" xmlns:xlink="http://www.w3.org/1999/xlink">
    <!-- Generator: sketchtool 50.2 (55047) - http://www.bohemiancoding.com/sketch -->
    <title>0DC54AD8-1138-4F37-9BB7-EF080B7EEE80</title>
    <desc>Created with sketchtool.</desc>
    <defs></defs>
    <g id="Welcome" stroke="none" stroke-width="1" fill="none" fill-rule="evenodd">
        <g id="Empresa" transform="translate(-1116.000000, -694.000000)" fill="#FF5000">
            <g id="Nutrición" transform="translate(1116.000000, 694.000000)">
                <path d="M15.4270917,10.1901022 C16.7342673,8.88578501 18.322565,8.23278112 20.1565316,8.20742175 C21.0858192,8.19474206 22.0159409,8.2040405 22.9456456,8.20446316 C22.9977825,8.20446316 23.0499194,8.21502956 23.1692085,8.22770925 C23.0474168,8.75518423 22.9752594,9.28223656 22.8042504,9.77420842 C21.6664154,13.0472583 19.3957503,14.9635817 16.0035169,15.4509043 C15.151809,15.573052 14.2746583,15.5168387 13.3824921,15.5434661 C13.3278527,13.4242677 13.9730986,11.641081 15.4270917,10.1901022 M9.36253081,9.0713311 C6.53379272,8.84774595 4.39201004,7.4652374 2.91507675,5.02397497 C2.37535586,4.13217031 2.05836368,3.15076253 1.89861631,2.11779068 C1.88360089,2.01931178 1.88109832,1.91914225 1.87233932,1.81559147 C1.91905396,1.80417976 1.94783351,1.7902321 1.97661307,1.79065476 C3.08274893,1.79826257 4.19555831,1.7323282 5.29418647,1.8308071 C8.12542713,2.08397818 10.0778487,3.60385001 11.1673008,6.25390462 C11.5355956,7.1503585 11.6448745,8.09964441 11.6131753,9.08020688 C10.847806,9.08020688 10.1007889,9.12965766 9.36253081,9.0713311 M21.770272,14.6491255 C24.1189338,12.426799 25.1061976,9.64994749 24.9414451,6.41071009 L24.7324805,6.41071009 C23.2180087,6.41071009 21.7031197,6.39380384 20.189065,6.41451399 C17.5225768,6.45128508 15.3240692,7.51384287 13.5914567,9.56710687 C13.5334805,9.63557718 13.4755043,9.70362483 13.3791554,9.81731936 C13.3791554,9.45172171 13.3970905,9.14276 13.3754015,8.83633423 C13.3316066,8.21672019 13.3224305,7.58653974 13.2010558,6.98129601 C12.3822984,2.89674613 8.90706311,0.021415747 4.79492379,0.00324152883 C3.28795966,-0.00352097097 1.78099553,0.00239621635 0.274031396,0.00239621635 L0,0.00239621635 C0.0521368714,0.822349317 0.0458804468,1.61398445 0.161415754,2.38702271 C0.533047373,4.87266404 1.68673206,6.93607179 3.5828458,8.55738111 C5.04518077,9.80759826 6.73191283,10.5848631 8.63803685,10.7949232 C9.52853461,10.8934021 10.4323794,10.8659295 11.3303849,10.8946701 C11.4200603,10.8976287 11.5093186,10.8950928 11.6211001,10.8950928 L11.6211001,21.5925221 C7.41803406,22.0278581 4.13925049,25.6259306 4.13925049,30 L20.8201297,30 C20.8201297,25.6419915 17.5647034,22.0565987 13.3837434,21.5997073 L13.3837434,17.2649449 C16.5432378,17.5443207 19.4107658,16.8815957 21.770272,14.6491255" id="Fill-1"></path>
            </g>
        </g>
    </g>
</svg>