<?xml version="1.0" encoding="UTF-8"?>
<svg width="20px" height="30px" viewBox="0 0 20 30" version="1.1" xmlns="http://www.w3.org/2000/svg" xmlns:xlink="http://www.w3.org/1999/xlink">
    <!-- Generator: sketchtool 50.2 (55047) - http://www.bohemiancoding.com/sketch -->
    <title>F0548117-5C09-429C-A535-19CBAEB2471C</title>
    <desc>Created with sketchtool.</desc>
    <defs>
        <polygon id="path-1" points="0.000137236997 0.227868493 19.9653571 0.227868493 19.9653571 29.3023256 0.000137236997 29.3023256"></polygon>
    </defs>
    <g id="Welcome" stroke="none" stroke-width="1" fill="none" fill-rule="evenodd">
        <g id="Empresa" transform="translate(-1056.000000, -694.000000)">
            <g id="Agrícola" transform="translate(1055.000000, 694.000000)">
                <g transform="translate(1.000000, 0.000000)">
                    <path d="M14.1006429,18.7918256 C14.0985,16.5638023 12.266,13.8313605 9.98278571,13.8351977 C7.69742857,13.838686 5.86135714,16.5728721 5.86492857,18.8043837 C5.86885714,21.0355465 7.70385714,22.8229884 9.98814286,22.8212442 C12.2670714,22.8191512 14.1027857,21.0205465 14.1006429,18.7918256" id="Fill-1" fill="#FF5000"></path>
                    <g id="Group-5" transform="translate(0.000000, 0.120872)">
                        <mask id="mask-2" fill="white">
                            <use xlink:href="#path-1"></use>
                        </mask>
                        <g id="Clip-4"></g>
                        <path d="M4.37235714,25.1575116 C3.07414286,23.918093 2.31485714,22.381814 2.11557143,20.5908837 C1.88378571,18.5128605 2.17521429,16.4037907 3.00628571,14.1436744 C3.402,13.0657674 3.85235714,11.9826279 4.28771429,10.9354186 C4.57378571,10.2457674 4.86021429,9.55646512 5.13485714,8.86262791 C5.39414286,8.20646512 5.64164286,7.53565116 5.88092857,6.88681395 C6.0895,6.32134884 6.29771429,5.75623256 6.51557143,5.19460465 C6.77485714,4.52797674 7.14414286,3.89902326 7.64557143,3.27181395 C8.16128571,2.62681395 9.03414286,2.24169767 9.97985714,2.24169767 L9.98128571,2.24169767 C10.9209286,2.24204651 11.7855714,2.62332558 12.2945,3.261 C12.7787857,3.86832558 13.1745,4.56774419 13.5041429,5.39972093 L14.3687857,7.58413953 C15.0141429,9.21530233 15.6595,10.8464651 16.307,12.4762326 C16.8998571,13.9671628 17.4809286,15.5864651 17.7159286,17.3240233 C17.782,17.8134419 17.8227143,18.3014651 17.8559286,18.6932093 C17.8673571,18.8337907 17.8777143,18.9593721 17.8880714,19.0643721 C17.8927143,21.5899535 17.2105714,23.4656512 15.7416429,24.966 C14.1212857,26.6212326 12.0137857,27.4029767 9.49271429,27.2861163 C7.47771429,27.1936744 5.75521429,26.4775116 4.37235714,25.1575116 M19.8134286,17.2961163 C19.6084286,15.6576279 19.1423571,13.966814 18.3473571,11.9756512 C18.0877143,11.3257674 17.8255714,10.6769302 17.5634286,10.0277442 C17.0223571,8.68925581 16.4630714,7.30472093 15.9377143,5.93553488 L15.7605714,5.46774419 C15.4180714,4.55693023 15.0641429,3.61506977 14.4995,2.75972093 C13.4248571,1.13204651 12.0434286,0.305651163 10.2762857,0.233790698 C8.60735714,0.16472093 7.23878571,0.700186047 6.19628571,1.82065116 C5.53378571,2.53297674 5.00378571,3.38797674 4.61985714,4.36193023 C4.39735714,4.92739535 4.18807143,5.50611628 3.98557143,6.06565116 C3.7795,6.636 3.56592857,7.22553488 3.34021429,7.79693023 C3.05485714,8.5204186 2.757,9.23902326 2.45914286,9.95762791 C2.03521429,10.9793721 1.59735714,12.0363488 1.20235714,13.0915814 C0.1945,15.7856512 -0.174071429,18.2753023 0.0755714286,20.701814 C0.297,22.8527442 1.15235714,24.7211163 2.61807143,26.2556512 C4.53628571,28.2628605 7.02735714,29.2594884 10.2330714,29.3020465 L10.2530714,29.3023953 L10.2727143,29.3003023 C10.3573571,29.2926279 10.4612857,29.2853023 10.5791429,29.2776279 C10.9012857,29.256 11.3430714,29.2263488 11.7762857,29.1492558 C15.4095,28.5032093 17.9366429,26.5019302 19.2884286,23.2026279 C20.1477143,21.1040233 20.0202143,18.9436744 19.8134286,17.2961163" id="Fill-3" fill="#FF5000" mask="url(#mask-2)"></path>
                    </g>
                </g>
            </g>
        </g>
    </g>
</svg>