<?xml version="1.0" encoding="UTF-8"?>
<svg width="21px" height="26px" viewBox="0 0 21 26" version="1.1" xmlns="http://www.w3.org/2000/svg" xmlns:xlink="http://www.w3.org/1999/xlink">
    <!-- Generator: sketchtool 50.2 (55047) - http://www.bohemiancoding.com/sketch -->
    <title>55E9D264-3CD1-4DA9-A268-3E1485299638</title>
    <desc>Created with sketchtool.</desc>
    <defs></defs>
    <g id="Welcome" stroke="none" stroke-width="1" fill="none" fill-rule="evenodd">
        <g id="Contacto" transform="translate(-209.000000, -319.000000)" fill="#FF5000">
            <g id="Datos-Allister" transform="translate(209.000000, 315.000000)">
                <g id="Ícono-ubicación" transform="translate(0.000000, 4.000000)">
                    <path d="M10.1034287,14.742829 C12.9184269,14.7513065 15.2337241,12.4567321 15.2440855,9.64832747 C15.2549178,6.83568412 12.966466,4.53781291 10.1396935,4.52227084 C7.32516631,4.50719974 5.01363691,6.79847735 5.00280456,9.61535945 C4.99150124,12.4308286 7.28324982,14.7343515 10.1034287,14.742829 M10.1330999,0.0598134135 C14.3450004,0.0640521593 18.0948775,2.55407985 19.587858,6.47162295 C20.8571269,9.80280621 20.371555,12.9602009 18.2559499,15.8222963 C15.8558778,19.0682336 13.4030569,22.2750803 10.9728426,25.498882 C10.4703157,26.1648361 9.7784582,26.1676619 9.27734425,25.5035918 C6.83205887,22.2609512 4.38206378,19.0220784 1.94478492,15.7733152 C0.505024254,13.8536343 -0.143503859,11.6890481 0.0265169462,9.29038893 C0.336416364,4.91741614 3.55974709,1.22641046 7.8889195,0.312725248 C8.62363545,0.157304568 9.37954512,0.1017299 10.1255644,0 C10.1279192,0.0197808139 10.1307451,0.0400325996 10.1330999,0.0598134135" id="Fill-1"></path>
                </g>
            </g>
        </g>
    </g>
</svg>