<?xml version="1.0" encoding="UTF-8"?>
<svg width="307px" height="191px" viewBox="0 0 307 191" version="1.1" xmlns="http://www.w3.org/2000/svg" xmlns:xlink="http://www.w3.org/1999/xlink">
    <!-- Generator: sketchtool 50.2 (55047) - http://www.bohemiancoding.com/sketch -->
    <title>C461BA50-E913-4BE5-939D-4982E9F3C3AD</title>
    <desc>Created with sketchtool.</desc>
    <defs></defs>
    <g id="Welcome" stroke="none" stroke-width="1" fill="none" fill-rule="evenodd">
        <g id="Empresa-Móvil" transform="translate(-8.000000, -2431.000000)">
            <g id="Mapa" transform="translate(-267.000000, 2231.000000)">
                <g id="Mapa-Móvil" transform="translate(258.000000, 184.000000)">
                    <g id="Mapa" transform="translate(17.000000, 16.000000)">
                        <path d="M139.142934,78.13287 C137.452146,78.5341815 135.792873,78.3374602 134.144631,78.3815258 C133.002207,78.4145749 131.850328,78.400411 130.722086,78.5499192 C130.279298,78.6097225 129.773479,78.9732635 129.49457,79.3462471 C128.71457,80.3912307 128.407298,81.6455258 128.344267,82.9250012 C128.322207,83.3845421 128.579055,83.9023126 128.831176,84.3209356 C129.352752,85.1833618 130.386449,85.661788 130.687419,86.6894602 C130.740995,86.8767389 130.611783,87.2749028 130.474692,87.3268372 C130.009843,87.5030995 129.502449,87.6604766 129.012389,87.6589028 C125.633964,87.6384438 125.473237,87.4558864 123.040267,90.7608044 C121.514934,92.8366077 121.141479,92.9404766 119.149722,91.2974602 C117.353358,89.8133946 115.281237,88.8832962 113.100389,88.1278864 C111.223661,87.4763454 109.381601,87.3992307 107.496995,88.0853946 C106.304146,88.521329 105.068752,88.8455258 103.860146,89.2421159 C101.424025,90.03687 99.1123886,89.8385749 96.8889946,88.5087389 C93.4837825,86.4691323 89.8264492,84.9945094 86.0320249,83.8692635 C83.9331159,83.2460503 82.0374795,82.2419848 80.162328,81.149788 C78.7378431,80.320411 77.2991765,79.4752962 75.7785704,78.8568044 C74.4959037,78.3343126 73.0997825,78.0337225 71.7272977,77.803952 C69.7702068,77.4766077 68.1030552,76.6787061 66.6896007,75.2953618 C66.1459643,74.7618536 65.5471765,74.2834274 64.9562674,73.7987061 C63.7665704,72.8276897 62.5154189,71.9290667 61.0121462,71.5340503 C59.5167522,71.1406077 58.6264492,70.1396897 57.9882674,68.8397553 C57.7077825,68.2700503 57.4777219,67.6735913 57.2728734,67.0739848 C57.0601462,66.4507717 57.0254795,65.8055258 57.5060855,65.2830339 C58.0481462,64.6944438 58.2041462,64.0177225 58.3585704,63.2418536 C58.9447522,60.2910339 58.0560249,57.7021815 56.5653583,55.264411 C55.838934,54.077788 54.9754189,52.9572635 54.0520249,51.9138536 C51.6080249,49.1503126 49.0994189,46.4418536 46.6081462,43.7208044 C46.0944492,43.1573946 45.4720249,42.6805421 45.0213583,42.0730667 C43.6268128,40.2034274 42.0321462,38.6170667 39.758328,37.8490667 C39.5251159,37.7703782 39.3155401,37.600411 39.1138431,37.4461815 C38.3590552,36.8780503 37.8674189,36.1761487 38.0312977,35.1720831 C38.0722674,34.9218536 38.1305704,34.6731979 38.1967522,34.4276897 C38.4898431,33.3339192 38.2534795,32.4006733 37.3017219,31.7396897 C35.8488734,30.7309028 34.8151765,29.1854602 33.0519037,28.555952 C32.3270552,28.2978536 31.8622068,27.6022471 31.6337219,26.8389684 C31.2397825,25.5264438 30.3652371,24.6860503 29.1345704,24.1525421 C28.1828128,23.7402143 27.4185704,23.0760831 26.7220855,22.3190995 C26.2068128,21.7572635 25.6852371,21.1970012 25.1305704,20.6729356 C24.4498431,20.0292635 23.6934795,19.7664438 22.6960249,19.9820503 C21.8419643,20.1677553 21.2148128,19.4863126 21.2683886,18.6789684 C21.2936007,18.3012635 21.2794189,17.8936569 21.4212371,17.5584438 C21.9239037,16.3812635 21.6182068,15.3299848 21.0477825,14.2834274 C20.622328,13.5028372 20.166934,12.7269684 19.8391765,11.9038864 C19.5129946,11.083952 19.2923886,10.2152307 19.0922674,9.35280444 C18.8968734,8.50926346 19.6500855,7.57287001 18.9693583,6.79385362 C18.3422068,6.07621428 17.2754189,6.34532903 16.5064492,5.89523067 C16.1786916,5.70323067 15.8871765,5.45142739 15.5594189,5.25785362 C15.1245098,5.0029028 14.6848734,4.61103395 14.2216007,4.57168969 C12.9310552,4.45995198 11.782328,3.92959133 10.5784492,3.55818149 C10.0174795,3.38821428 9.30366131,4.08067329 9.3856007,4.69759133 C9.43602494,5.0721487 9.47069161,5.45300116 9.56366131,5.81968969 C10.0994189,7.91280444 10.6824492,9.98860772 10.8636613,12.160411 C11.0117825,13.9482143 12.0139643,15.2371323 13.5881462,16.041329 C14.4910552,16.50087 15.4774795,16.7904438 16.3882674,17.2358208 C16.9854795,17.5269684 17.4188128,18.0510339 17.190328,18.7749684 C16.8877825,19.7381159 17.1288734,20.4966733 17.8064492,21.2017225 C18.2460855,21.6596897 18.6825704,22.1428372 19.0056007,22.6842143 C20.8382068,25.7483454 22.9308128,28.6126077 25.2976007,31.2911651 C25.9499643,32.0292635 26.400631,33.0175913 26.7079037,33.9665749 C27.4595401,36.2752962 28.3151765,38.519493 29.6923886,40.5386405 C30.3620855,41.5222471 30.4408734,42.6789684 30.5952977,43.8136569 C30.6882674,44.4935258 31.1121462,44.9530667 31.7976007,45.129329 C32.4137219,45.2882799 33.0345704,45.4299192 33.6475401,45.5998864 C34.4243886,45.8186405 34.9948128,46.2530012 35.2548128,47.0666405 C35.5258431,47.9117553 35.9323886,48.7206733 36.1325098,49.5768044 C36.2380855,50.0347717 36.1230552,50.601329 35.9339643,51.0435585 C35.8173583,51.3189684 35.396631,51.5282799 35.0704492,51.6258536 C34.8971159,51.677788 34.5803886,51.4810667 34.4228128,51.3110995 C34.1706916,51.0325421 33.9894795,50.6894602 33.7925098,50.3636897 C32.5145704,48.2548372 30.768631,46.6149684 28.7169946,45.2709684 C27.440631,44.4337225 26.1674189,43.5901815 24.9209946,42.7072962 C24.0417219,42.0856569 23.4902068,41.3459848 23.8888734,40.1247389 C24.6026916,37.9371979 23.7502068,36.1320831 22.2359037,34.5882143 C21.4354189,33.7730012 20.5577219,33.0317553 19.698934,32.2731979 C18.8259643,31.5020503 17.8521462,30.9528044 16.6529946,30.8174602 C14.9480249,30.6254602 13.5456007,29.7567389 12.2456007,28.69287 C11.5680249,28.1357553 11.1520249,27.424411 11.3521462,27.1411323 C11.690934,26.6548372 12.2172371,26.7398208 12.6962674,26.6611323 C12.9452371,26.621788 13.238328,26.6091979 13.4195401,26.4659848 C13.7047522,26.2440831 14.0624492,25.9545094 14.1254795,25.6397553 C14.6234189,23.2019848 13.966328,21.1010012 12.0565098,19.4737225 C11.3836613,18.8992962 10.5847522,18.475952 9.84414615,17.981788 C8.89238858,17.3475585 7.92014615,16.7400831 6.99517646,16.0665094 C6.37275221,15.6116897 5.90002494,15.0120831 5.69044918,14.2362143 C5.59117646,13.867952 5.43675221,13.5154274 5.340631,13.1471651 C4.43141888,9.65968969 2.94390373,6.45549296 0.736267366,3.59123067 C0.432146154,3.19621428 0.255661305,2.70205034 0.0303279719,2.25037821 C-0.092581119,2.00329624 0.180024942,1.40526346 0.45420676,1.28093559 C0.684267366,1.17706674 0.904873426,1.00867329 1.14438858,0.974050342 C3.28269161,0.656148703 5.42414615,0.347689686 7.56717646,0.0628372271 C8.86244918,-0.111851297 10.0805098,0.0612634566 11.2245098,0.789919194 C13.0618431,1.96237821 15.1087522,2.64854215 17.1792977,3.30952575 C20.0865704,4.23962411 22.9607522,5.28303395 25.8191765,6.35162411 C27.5162674,6.98585362 29.2338431,7.34309952 31.0412371,7.29746018 C34.3519037,7.21562411 37.6609946,7.14008313 40.9716613,7.07870608 C42.2826916,7.05509952 43.4471765,6.75450936 44.4777219,5.84801755 C44.9157825,5.46401755 45.6154189,5.30506674 46.2220855,5.20591919 C46.9689946,5.0831651 47.7442674,5.10519788 48.506934,5.10991919 C52.2477825,5.13667329 52.0019643,5.09260772 54.6082674,7.48473887 C55.6356613,8.42900116 56.7497219,9.28355854 57.8496007,10.1459848 C59.1842674,11.1925421 60.2794189,12.3618536 60.5536007,14.1402143 C60.7616007,15.4779192 61.598328,16.4568044 62.7218431,17.1413946 C64.1337219,18.0022471 65.5897219,18.7922799 67.0331159,19.5980503 C67.2505704,19.7192307 67.5137219,19.7601487 67.7548128,19.840411 C68.6640249,20.1410012 69.5858431,19.86087 70.1089946,19.0834274 C70.606934,18.3484766 71.0481462,17.5741815 71.5586916,16.8486733 C72.0314189,16.1782471 72.7310552,15.8933946 73.5441462,15.9138536 C75.8053583,15.9673618 77.7545704,16.8659848 79.4705704,18.2524766 C80.0425704,18.7151651 80.5672977,19.3730012 80.8351765,20.0512962 C81.8373583,22.5787717 83.2996613,24.7741815 85.2315401,26.6784438 C85.8791765,27.3158208 86.3345704,28.0696569 86.4511765,28.9966077 C86.4811159,29.248411 86.5220855,29.5033618 86.5945704,29.7457225 C87.766934,33.7383782 87.922934,33.8690012 91.8276613,35.6080176 C93.3498431,36.2831651 94.9728734,36.6073618 96.5265704,37.1629028 C97.1222068,37.3753618 97.5334795,38.0630995 97.4184492,38.6737225 C97.3002674,39.2969356 97.1962674,39.9295913 97.016631,40.5370667 C95.5811159,45.3779848 95.5165098,50.3117553 95.9608734,55.2832962 C96.0506916,56.2968044 96.230328,57.30087 96.3296007,58.3128044 C96.5769946,60.8182471 97.5319037,62.96487 99.4322674,64.6676897 C100.094086,65.2610012 100.722813,65.8968044 101.345237,66.5341815 C102.344267,67.5555585 103.084873,68.7232962 103.237722,70.1869028 C103.346449,71.2130012 103.661601,72.1745749 104.14851,73.079493 C104.521964,73.771952 105.030934,74.4030339 105.795176,74.5824438 C107.448146,74.9680176 108.834813,75.8571979 110.241964,76.7211979 C111.040873,77.2122143 111.90754,77.3428372 112.812025,77.1901815 C113.562086,77.0642799 114.305843,76.8864438 115.046449,76.7054602 C117.146934,76.1908372 119.245843,75.6651979 121.343176,75.1379848 C122.487176,74.8499848 123.588631,74.8499848 124.690086,75.383493 C125.254207,75.6557553 125.889237,75.82887 126.510086,75.9138536 C126.844146,75.9579192 127.301116,75.8115585 127.551661,75.5849356 C128.011783,75.1631651 128.274934,74.4958864 128.772873,74.1512307 C130.329722,73.0731979 131.056146,71.6080176 131.593479,69.8139192 C132.063055,68.2495913 132.753237,66.7891323 132.882449,65.097329 C133.017964,63.3095258 134.179298,62.0693946 135.829116,61.4178536 C136.888025,60.9992307 138.013116,60.7222471 139.128752,60.4830339 C140.494934,60.1903126 141.883176,59.9920176 143.265116,59.7701159 C144.149116,59.6284766 145.061479,59.5183126 145.906086,59.8692635 C147.117843,60.3712962 148.389479,60.352411 149.651661,60.4720176 C150.352873,60.5381159 150.864995,61.5783782 150.552995,62.2550995 C150.448995,62.48487 150.381237,62.7539848 150.217358,62.9270995 C149.692631,63.4810667 149.131661,64.000411 148.584873,64.5323454 C147.722934,65.3758864 147.324267,66.4130012 147.245479,67.6043454 C147.128873,69.3795585 147.035904,71.1563454 146.829479,72.9205421 C146.742813,73.6586405 146.411904,74.3731323 146.150328,75.0829028 C145.975419,75.5534602 145.378207,75.8981159 144.946449,75.8068372 C144.572995,75.7312962 144.212146,75.5975258 143.844995,75.4968044 C142.908995,75.2418536 142.069116,75.4700503 141.353722,76.0869684 C140.587904,76.7510995 139.863055,77.4624438 139.142934,78.13287" id="Fill-37" fill="#FF5000"></path>
                        <path d="M207.027684,171.336933 C206.435199,170.842769 205.836411,170.372211 205.27229,169.863883 C204.262229,168.957392 203.208047,168.485261 201.802472,169.006179 C200.776653,169.383883 199.753987,169.032933 198.948775,168.337326 C197.68029,167.238834 196.273138,166.467687 194.703684,165.852343 C193.425744,165.348736 192.302229,164.443818 191.12829,163.691556 C190.748532,163.446047 190.554714,162.670179 190.73435,162.319228 C191.022714,161.75267 191.356775,161.20972 191.615199,160.632146 C192.057987,159.642244 192.718229,158.976539 193.827563,158.732605 C195.428532,158.381654 196.479563,157.297326 197.26429,155.921851 C197.579441,155.369457 197.881987,154.809195 198.186108,154.25208 C198.947199,152.860867 199.284411,151.543621 198.502835,149.927359 C197.423441,147.695752 197.309987,145.264277 198.060047,142.862703 C198.299563,142.097851 198.30429,141.381785 198.091563,140.623228 C197.954472,140.138506 197.812653,139.630179 197.812653,139.131293 C197.814229,137.784146 197.269017,136.695097 196.473259,135.646965 C195.868169,134.84749 195.945381,134.254179 196.559926,133.59949 C197.69132,132.397129 198.847926,131.215228 199.984047,130.017588 C200.422108,129.559621 200.893259,129.120539 201.250956,128.602769 C202.558835,126.704802 204.036896,124.979949 205.902593,123.591883 C206.755078,122.959228 207.16635,122.013392 207.327078,120.974703 C207.386956,120.598572 207.427926,120.214572 207.418472,119.835293 C207.37435,117.975097 208.374956,116.744408 209.824653,115.76867 C210.373017,115.401982 210.985987,115.169064 211.625744,115.283949 C212.76029,115.490113 213.812896,115.740343 214.835563,114.807097 C215.242108,114.438834 216.03629,114.478179 216.658714,114.364867 C217.936653,114.128802 219.093259,113.651949 220.108047,112.827293 C220.501987,112.507818 220.902229,112.122244 221.365502,111.97431 C223.464411,111.303883 225.248169,110.120408 226.948411,108.770113 C227.12332,108.630047 227.42429,108.642638 227.671684,108.598572 C228.086108,108.523031 228.744775,108.968408 228.777866,109.456277 C228.796775,109.788343 228.688047,110.280933 228.456411,110.444605 C227.949017,110.795556 227.343926,111.028474 226.751441,111.225195 C225.388411,111.676867 224.220775,112.394506 223.281623,113.488277 C222.868775,113.971424 222.418108,114.426244 221.943805,114.848015 C220.364896,116.259687 219.305987,117.927883 219.181502,120.102834 C219.105866,121.416933 218.414108,122.501261 217.82635,123.629654 C217.298472,124.644736 217.485987,125.475687 218.513381,125.790441 C220.142714,126.287752 220.889623,127.620736 221.76732,128.827818 C222.036775,129.200802 222.030472,129.795687 222.080896,130.294572 C222.19435,131.427687 222.14235,132.590703 222.38029,133.693916 C222.841987,135.821654 224.279078,136.9469 226.459926,137.016146 C227.217866,137.041326 227.978956,136.894965 228.738472,136.844605 C229.880896,136.769064 231.02332,136.68408 232.165744,136.649457 C232.95835,136.624277 233.659563,136.920146 234.250472,137.455228 C234.816169,137.966703 235.359805,138.506506 235.949138,138.989654 C237.813259,140.522506 239.962593,141.136277 242.356169,140.879752 C243.490714,140.760146 244.604775,140.426506 245.762956,140.679883 C246.174229,140.768015 246.705259,141.391228 246.610714,141.794113 C246.440532,142.535359 246.293987,143.289195 246.045017,144.006834 C245.578593,145.352408 245.502956,146.743621 245.476169,148.144277 C245.450956,149.587424 245.755078,150.917261 246.79035,152.007883 C247.05035,152.283293 247.245744,152.616933 247.464775,152.931687 C247.776775,153.380211 247.787805,153.883818 247.677502,154.388998 C247.625502,154.634506 247.488411,154.859556 247.398593,155.098769 C246.870714,156.510441 246.99835,157.846572 247.904411,159.070965 C248.44332,159.799621 248.098229,160.827293 247.294593,161.370244 C246.314472,162.029654 245.228775,162.344408 244.054835,162.358572 C242.398714,162.377457 240.742593,162.355424 239.089623,162.407359 C238.462472,162.427818 237.830593,162.558441 237.219199,162.714244 C236.361987,162.936146 235.975926,164.029916 236.276896,164.893916 C236.59835,165.812998 237.427199,166.21431 238.019684,166.854834 C238.25132,167.106638 238.200896,167.714113 237.940896,167.88408 C237.73132,168.022572 237.531199,168.183097 237.305866,168.286965 C237.075805,168.390834 236.820532,168.433326 236.577866,168.510441 C235.046229,169.001457 234.86029,170.192802 234.984775,171.188998 C235.077744,171.92867 235.329866,172.679359 235.663926,173.345064 C236.117744,174.251556 236.703926,175.093523 237.260169,175.943359 C237.843199,176.832539 238.148896,177.816146 237.962956,178.845392 C237.417744,181.84972 237.181381,184.887097 236.859926,187.916605 C236.766956,188.788474 236.436047,189.636736 236.183926,190.486572 C236.010593,191.064146 235.191199,191.235687 234.573502,190.848539 C233.747805,190.330769 233.481502,189.605261 233.892775,188.944277 C234.430108,188.081851 235.024169,187.254047 235.509502,186.368015 C235.763199,185.9069 235.65132,185.360802 235.321987,184.932736 C234.09132,183.330638 232.402108,182.36749 230.44029,182.331293 C228.309866,182.293523 226.125866,181.997654 224.023805,182.858506 C223.357259,183.132343 222.518956,183.028474 221.759441,183.019031 C220.971563,183.008015 220.284532,182.756211 219.824411,182.021261 C219.153138,180.946375 218.256532,180.024146 217.801138,178.804474 C217.331563,177.550179 216.436532,176.638965 215.201138,176.158965 C214.046108,175.710441 213.300775,174.956605 212.857987,173.818769 C212.67835,173.352933 212.383684,172.915424 212.068532,172.521982 C211.665138,172.019949 211.137259,171.626506 210.473866,171.565129 C209.336169,171.459687 208.193744,171.4109 207.027684,171.336933" id="Fill-71" fill="#FF5000"></path>
                        <path d="M164.440831,115.458472 C161.487861,115.626866 158.909922,114.884046 156.28471,114.575587 C155.93174,114.534669 155.563013,114.32221 155.274649,114.097161 C154.277195,113.319718 153.249801,112.564308 152.350043,111.684571 C150.994892,110.354735 149.734286,108.930472 148.439013,107.540833 C147.955255,107.021489 148.029316,106.407718 148.623377,105.910407 C148.719498,105.828571 148.836104,105.771915 148.944831,105.70739 C150.109316,105.013358 150.764831,104.018735 150.935013,102.651128 C151.040589,101.806013 151.663013,101.363784 152.49974,101.245751 C153.126892,101.156046 153.765073,101.115128 154.381195,100.976636 C155.76471,100.66503 157.059983,100.181882 157.860467,98.8866691 C158.295377,98.1831937 159.004467,97.7456855 159.751377,97.7708658 C161.988952,97.8432592 163.98071,97.1586691 165.892104,96.1073904 C165.99768,96.0491609 166.139498,96.0633248 166.259255,96.0255543 C166.691013,95.8949314 167.379619,96.2868002 167.471013,96.7069969 C167.716831,97.8495543 167.742043,99.0062756 167.229922,100.055981 C166.364831,101.834341 166.224589,103.692964 166.345922,105.61139 C166.468831,107.529817 166.211983,109.385292 165.589558,111.215587 C165.142043,112.528112 164.856831,113.895718 164.440831,115.458472" id="Fill-262" fill="#FF5000"></path>
                        <path d="M205.053807,67.898762 C203.783746,67.898762 202.515261,67.9302374 201.246777,67.8845981 C200.619625,67.8657128 199.981443,67.761844 199.374777,67.5981718 C198.60108,67.3888604 197.950292,66.9482046 197.966049,66.0432866 C197.992837,64.6662374 197.234898,63.9045325 196.027867,63.578762 C194.015625,63.0342374 192.307504,61.9939751 190.767989,60.6263686 C190.389807,60.2895817 189.986413,59.9779751 189.579867,59.6742374 C188.227867,58.6701718 186.749807,58.0422374 185.032231,57.9179096 C183.262655,57.7904341 181.502534,57.5197456 179.737686,57.3104341 C178.286413,57.1404669 177.058898,56.61168 176.245807,55.3007292 C175.984231,54.8821063 175.58714,54.534303 175.215261,54.1943686 C174.295019,53.3571227 172.736595,53.1383686 171.658777,53.7442702 C170.886655,54.1786309 170.171261,54.7137128 169.432231,55.2047292 C168.373322,55.9034833 167.330171,56.6226964 166.252352,57.2915489 C165.828474,57.5559423 165.336837,57.7101718 164.871989,57.9053194 C164.583625,58.0264997 163.91708,57.7935817 163.891867,57.5449259 C163.869807,57.3088604 163.860352,56.9925325 163.992716,56.838303 C164.39611,56.3598768 164.816837,55.8625653 165.325807,55.5131882 C170.448595,51.9926637 176.040958,51.119221 182.027261,52.6741063 C184.983383,53.4421063 187.818171,54.5626309 190.577322,55.8625653 C193.446777,57.2128604 196.297322,58.6040735 199.154171,59.9842702 C201.330292,61.0355489 203.536352,61.9026964 205.963019,62.3055817 C208.499989,62.7273522 210.709201,64.0351555 212.672595,65.7049259 C212.76714,65.786762 212.820716,65.9126637 212.905807,66.0055161 C213.225686,66.3517456 213.044474,67.1575161 212.58908,67.2724014 C211.733443,67.4864341 210.87308,67.7775817 210.003261,67.823221 C208.358171,67.9113522 206.703625,67.8484014 205.053807,67.8484014 L205.053807,67.898762 Z" id="Fill-278" fill="#FF5000"></path>
                        <path d="M134.699938,99.8815073 C133.078484,99.8232778 131.433393,99.7430155 129.786726,99.7099663 C128.724665,99.6879335 127.777635,99.3511467 126.973999,98.6980319 C125.793756,97.7411794 124.643453,96.743409 123.52309,95.7157368 C122.74309,94.9996712 122.722605,94.3135073 123.368665,93.3440647 C123.789393,92.7098352 124.265271,92.1149499 124.692302,91.4854417 C125.467575,90.3428844 126.513878,89.8046549 127.914726,89.8534417 C129.181635,89.8959335 130.448544,89.8801958 131.661878,89.3702942 C132.51909,89.0130483 132.927211,87.9428844 132.353635,87.1811794 C131.745393,86.3738352 131.07412,85.613704 130.399696,84.859868 C129.622847,83.9895729 129.600787,83.0484581 130.040423,82.0365237 C130.141271,81.8036057 130.24212,81.5691139 130.365029,81.3503598 C130.623453,80.8860975 131.017393,80.5414417 131.532665,80.4548844 C133.171453,80.1779008 134.813393,80.1936385 136.445878,80.5414417 C137.225878,80.7066876 137.835696,81.3456385 137.868787,82.1057696 C137.917635,83.2451794 137.916059,84.3845893 137.931817,85.5239991 C137.950726,86.9183598 137.955453,88.3095729 137.993271,89.7023598 C138.007453,90.2201303 138.390362,90.6623598 138.905635,90.7819663 C139.397271,90.8952778 139.910968,90.9204581 140.397878,91.044786 C141.469393,91.3186221 141.748302,92.2109499 141.054968,93.0293106 C140.402605,93.7988844 139.671453,94.5228188 139.138847,95.3695073 C137.490605,97.9866876 137.520544,98.0055729 134.699938,99.8815073" id="Fill-280" fill="#FF5000"></path>
                        <path d="M167.479037,93.7925684 C167.414431,93.8995848 167.376613,94.0522405 167.282067,94.104175 C166.286188,94.6518471 165.280855,95.1837815 164.280249,95.7188635 C163.459279,96.1563717 162.557946,96.120175 161.675522,96.1091586 C160.041461,96.0902733 158.70837,96.6237815 157.769219,98.0197159 C157.239764,98.808175 156.415643,99.137093 155.530067,99.3259454 C154.661825,99.5100766 153.793582,99.6957815 152.919037,99.8389946 C151.644249,100.048306 150.903643,100.814732 150.547522,102.006077 C150.404128,102.48765 150.303279,102.984962 150.142552,103.460241 C150.019643,103.822208 149.14037,104.140109 148.814188,103.955978 C147.810431,103.392568 146.839764,102.810273 146.743643,101.469421 C146.669582,100.444896 146.026673,99.905093 145.051279,99.7115192 C144.056976,99.5132241 143.051643,99.3574209 142.076249,99.0898799 C141.605097,98.9608307 141.181219,98.6397815 140.758916,98.3675192 C140.357097,98.1094209 140.166431,97.464175 140.270431,97.0266668 C140.448491,96.2681094 140.776249,95.5929618 141.31831,95.0358471 C142.38037,93.9483717 143.455037,92.8734864 144.521825,91.7907323 C145.087522,91.2163061 145.779279,90.9456176 146.573461,90.9692241 C147.71431,91.0038471 148.853582,91.0510602 149.991279,91.1171586 C151.395279,91.1989946 152.763037,91.0809618 154.126067,90.6780766 C155.336249,90.3208307 156.584249,90.07847 157.827522,89.8439782 C159.920128,89.4521094 161.829946,89.8959127 163.610552,91.0809618 C164.764007,91.8489618 166.015158,92.4674536 167.201703,93.1866668 C167.359279,93.2842405 167.389219,93.5864045 167.479037,93.7925684" id="Fill-284" fill="#FF5000"></path>
                        <path d="M190.369182,125.517407 C188.673667,125.479637 187.124698,125.904555 186.035849,127.360293 C185.493789,128.084227 184.791001,128.606719 184.083485,129.143375 C183.37597,129.681604 183.31294,130.394522 183.678516,131.175112 C183.839243,131.518194 184.045667,131.858129 184.111849,132.223244 C184.203243,132.733145 184.063001,133.222588 183.645425,133.589276 C183.122273,134.047244 182.452576,134.234522 181.885304,133.926063 C180.448213,133.140752 178.973304,132.361735 177.706395,131.340358 C176.297667,130.204096 174.800698,129.322784 173.113061,128.718457 C172.763243,128.594129 172.411849,128.430457 172.118758,128.206981 C171.93597,128.068489 171.735849,127.772621 171.759485,127.572752 C171.876092,126.574981 172.03997,125.578784 172.251122,124.596752 C172.282637,124.450391 172.689182,124.245801 172.856213,124.296162 C173.32894,124.434653 173.768576,124.684883 174.217667,124.900489 C175.243485,125.394653 176.226758,126.008424 177.298273,126.36567 C179.331001,127.043965 181.294395,126.892883 183.051364,125.48908 C183.842395,124.857998 184.671243,124.269407 185.512698,123.704424 C186.844213,122.808948 188.31597,122.565014 189.879122,122.893932 C190.375485,122.997801 190.849789,123.221276 191.349304,123.285801 C194.986152,123.762653 197.225304,126.002129 198.779001,129.116621 C199.024819,129.607637 199.020092,130.108096 198.723849,130.559768 C198.090395,131.524489 197.25997,132.297211 196.294031,132.928293 C195.922152,133.170653 195.299728,133.088817 194.894758,132.729998 C193.875243,131.832948 193.260698,130.783244 193.683001,129.377866 C193.947728,128.496555 194.092698,127.640424 193.435607,126.862981 C192.745425,126.049342 191.845667,125.630719 190.788334,125.542588 C190.662273,125.531571 190.534637,125.52685 190.369182,125.517407" id="Fill-316" fill="#FF5000"></path>
                        <path d="M237.552213,75.7601329 C235.002637,75.4847231 232.20094,76.1079362 229.604092,77.6423624 C229.385062,77.7714116 229.159728,77.8925919 228.920213,77.9760018 C228.685425,78.0578378 228.427001,78.0782968 228.184334,78.1412477 C227.739971,78.2561329 227.04191,77.8422313 227.005668,77.4267559 C226.807122,75.1416411 226.890637,72.8738378 227.483122,70.6501001 C227.656456,70.006428 228.121304,69.5075428 228.80991,69.4493132 C230.06894,69.3407231 231.35791,69.1487231 232.59488,69.3045264 C235.643971,69.6932477 238.53391,70.6485264 241.129183,72.3403296 C241.644456,72.6755428 242.060456,73.1838706 242.459122,73.6654444 C242.909789,74.2131165 242.471728,75.3588214 241.781546,75.53351 C241.414395,75.6263624 241.044092,75.7365264 240.670637,75.7491165 C239.783486,75.7821657 238.896334,75.7601329 237.552213,75.7601329" id="Fill-338" fill="#FF5000"></path>
                        <path d="M170.335131,123.813831 C170.128706,125.05711 169.933313,126.303536 169.709555,127.543667 C169.610282,128.097634 169.199009,128.410815 168.697919,128.558749 C168.119616,128.728716 167.257676,128.401372 167.024464,127.943405 C166.795979,127.498028 166.523373,127.046356 166.428828,126.564782 C166.157797,125.186159 165.284828,124.320585 164.095131,123.761897 C163.061434,123.274028 162.062403,122.795602 161.206767,121.996126 C160.907373,121.715995 160.262888,121.745897 159.774403,121.741175 C159.276464,121.736454 158.776949,121.934749 158.280585,121.922159 C156.671737,121.882815 155.53404,120.099733 156.187979,118.65029 C156.446403,118.075864 156.753676,117.509306 157.131858,117.011995 C157.335131,116.74288 157.733797,116.472192 158.0521,116.462749 C160.188828,116.407667 163.841434,116.969503 165.889919,117.66511 C166.345313,117.817765 166.814888,118.118356 167.125313,118.480323 C168.111737,119.63547 169.036706,120.840979 169.963252,122.044913 C170.412343,122.628782 170.513191,123.152847 170.335131,123.813831" id="Fill-344" fill="#D8D8D8"></path>
                        <path d="M218.500548,75.5863186 C219.635093,75.4777285 220.769639,75.3895973 221.901033,75.2526793 C222.400548,75.1913023 222.911093,74.2171383 222.715699,73.7214006 C222.532911,73.2555645 222.340669,72.772417 222.049154,72.3695318 C221.456669,71.5464498 220.782245,70.7800236 220.166124,69.9742531 C219.687093,69.3463186 219.578366,68.5720236 219.887215,68.2132039 C220.350487,67.6796957 220.987093,67.6608104 221.622124,67.6749744 C221.877396,67.6812695 222.143699,67.6828432 222.380063,67.7568104 C223.344427,68.0652695 224.310366,68.3753023 225.255821,68.7341219 C225.767942,68.9276957 226.057881,69.3982531 226.094124,69.9144498 C226.253275,72.0846793 226.042124,74.2265809 225.418124,76.3196957 C225.279457,76.783958 224.735821,77.2875645 224.319821,77.2135973 C222.271336,76.8469088 220.268548,77.1868432 218.261033,77.5283514 C217.246245,77.70304 216.229881,77.6621219 215.234002,77.3882859 C214.996063,77.3221875 214.737639,77.2135973 214.572184,77.0452039 C214.41776,76.8862531 214.275942,76.6045482 214.307457,76.4062531 C214.340548,76.1922203 214.545396,75.9089416 214.742366,75.8365482 C215.20879,75.6665809 215.709881,75.5438268 216.203093,75.5092039 C216.962608,75.4588432 217.730002,75.49504 218.492669,75.49504 C218.494245,75.5265154 218.497396,75.5548432 218.500548,75.5863186" id="Fill-386" fill="#D8D8D8"></path>
                        <path d="M138.866338,80.2298903 C139.725126,79.2462838 140.369611,78.4672674 141.061369,77.7338903 C141.311914,77.4679231 141.655429,77.2035297 141.995793,77.13271 C142.31252,77.0650379 142.714338,77.1988083 143.013732,77.3640542 C143.152399,77.441169 143.261126,77.8833985 143.171308,78.0155952 C142.413369,79.128251 142.295187,80.355792 142.399187,81.6431362 C142.441732,82.1467428 142.413369,82.659792 142.490581,83.1555297 C142.840399,85.38871 141.852399,87.061628 140.270338,88.4764477 C140.108035,88.6228083 139.811793,88.6448411 139.570702,88.6700215 C139.288641,88.7030706 138.842702,88.2624149 138.811187,87.9413657 C138.751308,87.3165788 138.655187,86.6886444 138.667793,86.06071 C138.707187,84.1706116 138.793853,82.282087 138.866338,80.2298903" id="Fill-426" fill="#D8D8D8"></path>
                        <path d="M143.403419,103.493202 C141.443177,103.074579 139.204025,102.630776 137.273722,101.315104 C137.127177,101.215956 137.046813,100.827235 137.116146,100.636809 C137.486449,99.6138579 138.613116,98.9575956 139.497116,99.1968087 C139.741358,99.2629071 140.006086,99.291235 140.22354,99.407694 C141.586571,100.133202 143.034692,100.548678 144.563177,100.745399 C145.242328,100.83353 145.639419,101.447301 145.573237,102.119301 C145.488146,102.975432 144.88148,103.526251 144.065237,103.493202 C143.939177,103.488481 143.81154,103.493202 143.403419,103.493202" id="Fill-451" fill="#FF5000"></path>
                        <path d="M254.579363,75.5409836 C256.117302,75.5992131 257.264454,75.627541 258.216211,76.4238689 C258.476211,76.6394754 258.548696,77.204459 258.290272,77.4405246 C258.104332,77.6104918 257.938878,77.8371148 257.716696,77.9283934 C256.252817,78.5248525 254.743242,78.5815082 253.241545,78.103082 C252.905908,77.9976393 252.622272,77.6828852 252.352817,77.4232131 C251.910029,76.9951475 252.14009,75.9832131 252.721545,75.8557377 C253.458999,75.6936393 254.210636,75.6007869 254.579363,75.5409836" id="Fill-485" fill="#D8D8D8"></path>
                        <path d="M196.440535,77.119676 C198.563081,77.0598727 200.269626,77.5540366 201.963566,78.1127252 C202.07702,78.1489219 202.19205,78.2480694 202.255081,78.3503645 C202.379566,78.5486596 202.565505,78.7815776 202.546596,78.9814465 C202.52296,79.190758 202.305505,79.3953481 202.14005,79.5716104 C202.06599,79.6487252 201.908414,79.677053 201.788657,79.6817744 C199.58102,79.7557416 197.521505,79.2017744 195.591202,78.1599383 C195.446232,78.0812498 195.424172,77.7318727 195.394232,77.5005284 C195.386354,77.4328563 195.539202,77.2943645 195.636899,77.2723317 C196.002475,77.1842006 196.374354,77.1306924 196.440535,77.119676" id="Fill-495" fill="#D8D8D8"></path>
                    </g>
                    <g id="México" stroke-width="1" transform="translate(1.000000, 70.000000)">
                        <g id="Group">
                            <text id="México" font-family="NotoSans-Italic, Noto Sans" font-size="10" font-style="italic" font-weight="normal" line-spacing="35" fill="#FF5000">
                                <tspan x="22.131779" y="11">México</tspan>
                            </text>
                            <ellipse id="Oval" stroke="#FF5000" stroke-width="1.5" fill-opacity="0.4" fill="#D8D8D8" cx="79.9110481" cy="18.3780193" rx="2.83961949" ry="2.82246377"></ellipse>
                            <path d="M55.8013719,17.9305556 L76.7897753,17.9305556" id="Line-2" stroke="#FF5000" stroke-width="1.5" stroke-linecap="square"></path>
                            <ellipse id="Oval-3" fill="#FF5000" cx="55.1786549" cy="17.9305556" rx="1" ry="1"></ellipse>
                        </g>
                    </g>
                    <g id="Group-2" stroke-width="1" transform="translate(188.000000, 52.000000)">
                        <text id="Cuba" font-family="NotoSans-Italic, Noto Sans" font-size="10" font-style="italic" font-weight="normal" line-spacing="30" fill="#FF5000">
                            <tspan x="28.6506024" y="11">Cuba</tspan>
                        </text>
                        <ellipse id="Oval" stroke="#FF5000" stroke-width="1.5" fill-opacity="0.4" fill="#D8D8D8" cx="2.8392073" cy="14.9031056" rx="2.8392073" ry="2.90310559"></ellipse>
                        <path d="M6.56941786,15.4428571 L25.1927711,15.4428571" id="Line-2" stroke="#FF5000" stroke-width="1.5" stroke-linecap="square"></path>
                        <ellipse id="Oval-3" fill="#FF5000" cx="25.532091" cy="15.4428571" rx="1" ry="1"></ellipse>
                    </g>
                    <g id="Group-2-Copy-2" stroke-width="1" transform="translate(169.000000, 92.000000)">
                        <text id="Honduras" font-family="NotoSans-Italic, Noto Sans" font-size="10" font-style="italic" font-weight="normal" line-spacing="30" fill="#FF5000">
                            <tspan x="22.7012987" y="11">Honduras</tspan>
                        </text>
                        <ellipse id="Oval" stroke="#FF5000" stroke-width="1.5" fill-opacity="0.4" fill="#D8D8D8" cx="2.83650929" cy="14.9031056" rx="2.83650929" ry="2.90310559"></ellipse>
                        <path d="M6.56317514,15.4428571 L20.2337662,15.4428571" id="Line-2" stroke="#FF5000" stroke-width="1.5" stroke-linecap="square"></path>
                        <ellipse id="Oval-3" fill="#FF5000" cx="20.5727637" cy="15.4428571" rx="1" ry="1"></ellipse>
                    </g>
                    <g id="Group-2-Copy-3" stroke-width="1" transform="translate(180.000000, 103.000000)">
                        <text id="Nicaragua" font-family="NotoSans-Italic, Noto Sans" font-size="10" font-style="italic" font-weight="normal" line-spacing="30" fill="#FF5000">
                            <tspan x="53.9908257" y="11">Nicaragua</tspan>
                        </text>
                        <ellipse id="Oval" stroke="#FF5000" stroke-width="1.5" fill-opacity="0.4" fill="#D8D8D8" cx="2.82110092" cy="14.9031056" rx="2.82110092" ry="2.90310559"></ellipse>
                        <path d="M6.52752294,15.4428571 L49.7844037,15.4428571" id="Line-2" stroke="#FF5000" stroke-width="1.5" stroke-linecap="square"></path>
                        <ellipse id="Oval-3" fill="#FF5000" cx="50.8922018" cy="15.4428571" rx="1" ry="1"></ellipse>
                    </g>
                    <g id="Group-2-Copy" stroke-width="1" transform="translate(244.000000, 74.000000)">
                        <text id="República-Dominicana" font-family="NotoSans-Italic, Noto Sans" font-size="9" font-style="italic" font-weight="normal" line-spacing="10" fill="#FF5000">
                            <tspan x="26.4931641" y="10">República</tspan>
                            <tspan x="70.0473633" y="10.6196289" font-size="10"></tspan>
                            <tspan x="26" y="18.9311523" font-size="10">Dominicana</tspan>
                        </text>
                        <circle id="Oval" stroke="#FF5000" stroke-width="1.5" fill-opacity="0.4" fill="#D8D8D8" cx="3" cy="11" r="3"></circle>
                        <path d="M6.56899395,11.9 L23.3519507,11.9" id="Line-2" stroke="#FF5000" stroke-width="1.5" stroke-linecap="square"></path>
                        <circle id="Oval-3" fill="#FF5000" cx="24" cy="12" r="1"></circle>
                    </g>
                    <g id="México-Copy" stroke-width="1" transform="translate(37.000000, 92.000000)">
                        <g id="Group">
                            <text id="Guatemala" font-family="NotoSans-Italic, Noto Sans" font-size="10" font-style="italic" font-weight="normal" line-spacing="35" fill="#FF5000">
                                <tspan x="3.48581634" y="11">Guatemala</tspan>
                            </text>
                            <ellipse id="Oval" stroke="#FF5000" stroke-width="1.5" fill-opacity="0.4" fill="#D8D8D8" cx="101.932265" cy="18.3780193" rx="2.82011529" ry="2.82246377"></ellipse>
                            <path d="M55.5906629,17.9305556 L98.8324308,17.9305556" id="Line-2" stroke="#FF5000" stroke-width="1.5" stroke-linecap="square"></path>
                            <ellipse id="Oval-3" fill="#FF5000" cx="54.799655" cy="17.9305556" rx="1" ry="1"></ellipse>
                        </g>
                    </g>
                    <g id="México-Copy-2" stroke-width="1" transform="translate(86.000000, 102.000000)">
                        <g id="Group">
                            <text id="El-Salvador" font-family="NotoSans-Italic, Noto Sans" font-size="10" font-style="italic" font-weight="normal" line-spacing="35" fill="#FF5000">
                                <tspan x="3.67924778" y="11">El Salvador</tspan>
                            </text>
                            <ellipse id="Oval" stroke="#FF5000" stroke-width="1.5" fill-opacity="0.4" fill="#D8D8D8" cx="73.9139109" cy="18.3780193" rx="2.83698778" ry="2.82246377"></ellipse>
                            <path d="M56.724069,17.9305556 L70.7955308,17.9305556" id="Line-2" stroke="#FF5000" stroke-width="1.5" stroke-linecap="square"></path>
                            <ellipse id="Oval-3" fill="#FF5000" cx="56.1146957" cy="17.9305556" rx="1" ry="1"></ellipse>
                        </g>
                    </g>
                    <g id="México-Copy-3" stroke-width="1" transform="translate(91.000000, 127.000000)">
                        <g id="Group">
                            <text id="Panamá" font-family="NotoSans-Italic, Noto Sans" font-size="10" font-style="italic" font-weight="normal" line-spacing="35" fill="#FF5000">
                                <tspan x="15.5365976" y="11">Panamá</tspan>
                            </text>
                            <ellipse id="Oval" stroke="#FF5000" stroke-width="1.5" fill-opacity="0.4" fill="#D8D8D8" cx="101.932265" cy="18.3780193" rx="2.82011529" ry="2.82246377"></ellipse>
                            <path d="M55.5906629,17.9305556 L98.8324308,17.9305556" id="Line-2" stroke="#FF5000" stroke-width="1.5" stroke-linecap="square"></path>
                            <ellipse id="Oval-3" fill="#FF5000" cx="54.799655" cy="17.9305556" rx="1" ry="1"></ellipse>
                        </g>
                    </g>
                    <g id="México-Copy-4" stroke-width="1" transform="translate(113.000000, 149.000000)">
                        <g id="Group">
                            <text id="Colombia" font-family="NotoSans-Italic, Noto Sans" font-size="10" font-style="italic" font-weight="normal" line-spacing="35" fill="#FF5000">
                                <tspan x="10.2289804" y="11">Colombia</tspan>
                            </text>
                            <ellipse id="Oval" stroke="#FF5000" stroke-width="1.5" fill-opacity="0.4" fill="#D8D8D8" cx="101.932265" cy="18.3780193" rx="2.82011529" ry="2.82246377"></ellipse>
                            <path d="M55.5906629,17.9305556 L98.8324308,17.9305556" id="Line-2" stroke="#FF5000" stroke-width="1.5" stroke-linecap="square"></path>
                            <ellipse id="Oval-3" fill="#FF5000" cx="54.799655" cy="17.9305556" rx="1" ry="1"></ellipse>
                        </g>
                    </g>
                </g>
            </g>
        </g>
    </g>
</svg>