<?xml version="1.0" encoding="UTF-8"?>
<svg width="357px" height="264px" viewBox="0 0 357 264" version="1.1" xmlns="http://www.w3.org/2000/svg" xmlns:xlink="http://www.w3.org/1999/xlink">
    <!-- Generator: sketchtool 50.2 (55047) - http://www.bohemiancoding.com/sketch -->
    <title>FA50AD5C-3219-4B65-8C63-B4BE927C173D</title>
    <desc>Created with sketchtool.</desc>
    <defs></defs>
    <g id="Welcome" stroke="none" stroke-width="1" fill="none" fill-rule="evenodd">
        <g id="Inicio" transform="translate(-300.000000, -1261.000000)">
            <g id="Mapa" transform="translate(300.000000, 1261.000000)">
                <path d="M192.124282,107.839638 C189.789694,108.393532 187.498621,108.122015 185.222779,108.182835 C183.645355,108.22845 182.054876,108.208901 180.497034,108.415253 C179.885646,108.497794 179.187227,108.999556 178.802118,109.514351 C177.725118,110.956646 177.300846,112.687835 177.213815,114.453778 C177.183355,115.08804 177.538003,115.802671 177.886124,116.380458 C178.6063,117.570786 180.033597,118.231114 180.449167,119.649515 C180.523143,119.907999 180.34473,120.457548 180.15544,120.529228 C179.513591,120.772507 178.812997,120.98972 178.136337,120.987548 C173.471512,120.95931 173.249585,120.707343 169.890215,125.268819 C167.784082,128.13386 167.268427,128.27722 164.51827,126.009515 C162.037906,123.961196 159.176785,122.677466 156.165537,121.634843 C153.574209,120.735581 151.030749,120.629146 148.428543,121.576196 C146.781494,122.177876 145.0757,122.625335 143.406894,123.172712 C140.043173,124.269638 136.851337,123.99595 133.781343,122.160499 C129.07953,119.345417 124.029597,117.31013 118.790373,115.757056 C115.892264,114.896892 113.274827,113.511073 110.685676,112.003614 C108.718791,110.858901 106.732324,109.692466 104.632718,108.838819 C102.861652,108.117671 100.93393,107.702794 99.0388456,107.385663 C96.3365547,106.93386 94.0346032,105.832589 92.0829487,103.923286 C91.3323123,103.186933 90.5055244,102.526606 89.6896153,101.857589 C88.0469184,100.517384 86.3193668,99.2770973 84.2436941,98.7318924 C82.1789002,98.1888596 80.9495971,96.8073842 80.0684153,95.0132039 C79.6811305,94.2268924 79.3634699,93.4036547 79.0806214,92.5760727 C78.7868941,91.7159088 78.7390274,90.825335 79.4026335,90.1041875 C80.1510941,89.2918104 80.3664941,88.357794 80.5797184,87.2869334 C81.3891002,83.2141875 80.1619729,79.6410317 78.1037062,76.2764006 C77.100682,74.6386137 75.9083668,73.0920563 74.6333729,71.6519334 C71.2587729,67.8376711 67.7949668,64.0994334 64.3550941,60.3438186 C63.6457971,59.5661957 62.7863729,58.9080399 62.1641062,58.0695973 C60.2385608,55.4891055 58.0366941,53.2995973 54.8970759,52.2395973 C54.5750638,52.1309908 54.2856881,51.8964006 54.0071911,51.6835317 C52.9650032,50.8993924 52.2861668,49.9306219 52.5124456,48.5448022 C52.5690153,48.1994334 52.6495184,47.8562367 52.7409002,47.5173842 C53.1455911,46.0077531 52.8192274,44.7196793 51.5050699,43.8073842 C49.4990214,42.4150481 48.0717244,40.2820153 45.6370517,39.4131629 C44.6362032,39.0569334 43.9943547,38.0968514 43.6788699,37.0433678 C43.1349305,35.2318104 41.927385,34.0718924 40.2281184,33.3355399 C38.9139608,32.7664416 37.8587184,31.8498022 36.8970335,30.8050072 C36.1855608,30.0295563 35.465385,29.2562776 34.6995184,28.532958 C33.7595911,27.6445563 32.7152274,27.2818104 31.3379729,27.5793924 C30.1587123,27.8357039 29.2927608,26.8951711 29.3667365,25.7808678 C29.4015487,25.2595563 29.3819668,24.6969744 29.577785,24.2343104 C30.2718517,22.6095563 29.8497547,21.1585727 29.0621305,19.7141055 C28.4746759,18.6367285 27.845882,17.5658678 27.3933244,16.4298432 C26.9429426,15.2981629 26.6383365,14.0991465 26.3620153,12.9088186 C26.0922214,11.7445563 27.1322335,10.4521383 26.1923062,9.37693338 C25.3263547,8.38644158 23.8533668,8.75787601 22.7915971,8.1366465 C22.3390396,7.8716465 21.9365244,7.52410551 21.4839668,7.25693338 C20.8834577,6.90504814 20.2764214,6.36418748 19.6367487,6.3098842 C17.8548032,6.15566289 16.2686759,5.42365469 14.6063971,4.91103174 C13.8318274,4.67644158 12.8462093,5.63217928 12.9593487,6.48365469 C13.0289729,7.00062191 13.0768396,7.52627764 13.2052093,8.0323842 C13.9449668,10.9213186 14.7499971,13.7863596 15.0002093,16.7839006 C15.2047305,19.2514416 16.5885123,21.030417 18.7620941,22.140376 C20.0088032,22.7746383 21.3708274,23.1743104 22.6284153,23.7890235 C23.4530274,24.1908678 24.0513608,24.9141875 23.7358759,25.9133678 C23.3181305,27.2427121 23.6510214,28.2896793 24.5865971,29.262794 C25.1936335,29.8948842 25.7963184,30.5617285 26.2423487,31.3089416 C28.7727547,35.5380809 31.6621608,39.4913596 34.9301487,43.1883268 C35.8309123,44.2070563 36.453179,45.5711547 36.8774517,46.8809498 C37.9152881,50.0674662 39.0967244,53.1649252 40.9983365,55.9517694 C41.9230335,57.3093514 42.0318214,58.9058678 42.2450456,60.4719744 C42.3734153,61.410335 42.9586941,62.0445973 43.9051487,62.287876 C44.7558699,62.5072613 45.6131184,62.7027531 46.4594881,62.9373432 C47.5321365,63.2392694 48.3197608,63.8387776 48.6787608,64.9617694 C49.0529911,66.1282039 49.6143365,67.2446793 49.8906577,68.4263186 C50.0364335,69.0584088 49.8776032,69.840376 49.6165123,70.4507449 C49.4555062,70.8308678 48.874579,71.1197613 48.4241971,71.2544334 C48.1848638,71.3261137 47.7475365,71.0545973 47.5299608,70.8200072 C47.1818396,70.4355399 46.9316274,69.9620153 46.6596577,69.5123842 C44.8951184,66.6017285 42.484379,64.3383678 39.6515426,62.4833678 C37.889179,61.327794 36.1311668,60.1635317 34.4101426,58.9449662 C33.1960699,58.0869744 32.4345547,57.0660727 32.9850214,55.380499 C33.9706396,52.3612367 32.7935547,49.8698022 30.7026517,47.7389416 C29.5973668,46.6137776 28.3854699,45.5907039 27.199682,44.5437367 C25.9943123,43.4793924 24.6496941,42.7213186 22.9939426,42.5345153 C20.6397729,42.2695153 18.7033487,41.070499 16.9083487,39.6021383 C15.9727729,38.8332039 15.3983729,37.8514006 15.6746941,37.460417 C16.142482,36.7892285 16.869185,36.9065235 17.5306153,36.797917 C17.874385,36.7436137 18.2790759,36.7262367 18.5292881,36.5285727 C18.9231002,36.2223022 19.4169971,35.8226301 19.5040274,35.3882039 C20.1915668,32.0235727 19.2842759,29.1237776 16.6472577,26.877794 C15.7182093,26.0849662 14.6151002,25.5006629 13.5924941,24.8186137 C12.2783365,23.9432449 10.9358941,23.1048022 9.65872442,22.1751301 C8.79930017,21.5473842 8.1465729,20.7198022 7.85719714,19.6489416 C7.72012442,19.1406629 7.50690017,18.6541055 7.37417896,18.1458268 C6.11876684,13.3323842 4.06485169,8.90992519 1.01661532,4.9566465 C0.596694112,4.41144158 0.353009264,3.7293924 0.0418759305,3.10599076 C-0.12783316,2.76496617 0.2485729,1.93955633 0.627154718,1.76795797 C0.944815324,1.62459732 1.24942139,1.39217928 1.58013654,1.3443924 C4.53263957,0.905621907 7.48949411,0.479884202 10.4485244,0.0867284645 C12.2369971,-0.154378093 13.9188577,0.0845563334 15.4984577,1.09025305 C18.0353911,2.70849076 20.8617002,3.65553994 23.7206456,4.56783502 C27.7349184,5.85156453 31.7035002,7.29168748 35.6503244,8.76656453 C37.9936153,9.64193338 40.3651911,10.1350072 42.860785,10.0720153 C47.4320517,9.95906453 52.0011426,9.85480224 56.5724093,9.77008912 C58.3826396,9.73750715 59.9905244,9.3226301 61.4134699,8.07148256 C62.0183305,7.54148256 62.9843668,7.32209732 63.8220335,7.18525305 C64.8533426,7.01582683 65.9238153,7.04623666 66.976882,7.05275305 C72.1421305,7.08967928 71.8027123,7.02885961 75.4014153,10.330499 C76.8200093,11.6337776 78.3582699,12.8132449 79.8769487,14.0035727 C81.7198153,15.4480399 83.2319668,17.0619334 83.6105487,19.5164416 C83.8977487,21.3627531 85.0530759,22.7138186 86.6043911,23.6586957 C88.5538699,24.8468514 90.5642699,25.9372613 92.5572638,27.0493924 C92.8575184,27.2166465 93.2208699,27.2731219 93.5537608,27.3839006 C94.8091729,27.7987776 96.0819911,27.4121383 96.8043426,26.3391055 C97.491882,25.3247203 98.1010941,24.2560317 98.8060396,23.2546793 C99.4587668,22.3293514 100.424803,21.9361957 101.547494,21.9644334 C104.669706,22.0382858 107.361118,23.2785727 109.730518,25.1922203 C110.520318,25.8308268 111.244846,26.7387776 111.614724,27.6749662 C112.998506,31.1634088 115.017609,34.1935317 117.685088,36.8218104 C118.579324,37.7015235 119.208118,38.7419744 119.369124,40.0213596 C119.410464,40.3689006 119.467034,40.7207858 119.567118,41.055294 C121.185882,46.5659908 121.401282,46.7462776 126.792809,49.1464826 C128.894591,50.0783268 131.135621,50.5257858 133.280918,51.2925481 C134.103355,51.5857858 134.671227,52.5350072 134.512397,53.377794 C134.349215,54.237958 134.205615,55.1111547 133.957579,55.9495973 C131.975464,62.6310727 131.886258,69.4407039 132.499821,76.3024662 C132.62384,77.7013186 132.871876,79.0871383 133.008949,80.4838186 C133.350543,83.9418514 134.669052,86.9046383 137.293015,89.2548842 C138.206834,90.0737776 139.074961,90.9513186 139.934385,91.8310317 C141.313815,93.2407449 142.336421,94.8524662 142.54747,96.8725481 C142.697597,98.2887776 143.132749,99.6159498 143.805058,100.864925 C144.320712,101.820663 145.023482,102.691687 146.078724,102.93931 C148.361094,103.471483 150.275761,104.698737 152.218712,105.891237 C153.321821,106.568942 154.518488,106.749228 155.767373,106.538532 C156.803034,106.364761 157.829991,106.11931 158.852597,105.869515 C161.752882,105.159228 164.650991,104.433737 167.546924,103.706073 C169.126524,103.308573 170.647379,103.308573 172.168234,104.044925 C172.947155,104.420704 173.823985,104.659638 174.681234,104.776933 C175.142494,104.837753 175.773464,104.635745 176.119409,104.322958 C176.75473,103.740827 177.118082,102.819843 177.805621,102.344146 C179.95527,100.856237 180.958294,98.8339826 181.700227,96.3577531 C182.348603,94.1986547 183.301585,92.182917 183.479997,89.847876 C183.667112,87.380335 185.270646,85.6686957 187.548664,84.7694334 C189.010773,84.1916465 190.564264,83.8093514 192.1047,83.4791875 C193.991082,83.0751711 195.907924,82.8014826 197.816064,82.4952121 C199.036664,82.2997203 200.296427,82.1476711 201.462634,82.6320563 C203.135791,83.3249662 204.891627,83.2989006 206.634409,83.4639826 C207.602621,83.5552121 208.309743,84.9909908 207.878943,85.9250072 C207.735343,86.2421383 207.641785,86.6135727 207.415506,86.8525072 C206.690979,87.6170973 205.916409,88.3339006 205.161421,89.0680809 C203.971282,90.2323432 203.420815,91.6637776 203.312027,93.3080809 C203.151021,95.7582449 203.022652,98.2105809 202.737627,100.64554 C202.617961,101.664269 202.161052,102.650417 201.799876,103.630048 C201.558367,104.279515 200.733755,104.755212 200.137597,104.629228 C199.621943,104.524966 199.123694,104.340335 198.616743,104.201319 C197.324343,103.849433 196.164664,104.164392 195.17687,105.015868 C194.119452,105.932507 193.118603,106.91431 192.124282,107.839638" id="Fill-37" fill="#FF5000"></path>
                <path d="M285.857456,236.480662 C285.039371,235.798613 284.212583,235.149146 283.433662,234.447548 C282.039001,233.1964 280.583419,232.544761 278.642644,233.263736 C277.226225,233.785048 275.814159,233.300662 274.702347,232.34058 C272.950862,230.824433 271.00791,229.760089 268.840856,228.910785 C267.076316,228.215703 265.525001,226.966728 263.904062,225.928449 C263.379704,225.589597 263.112086,224.518736 263.360122,224.034351 C263.758286,223.252384 264.219547,222.502998 264.576371,221.705826 C265.187759,220.339556 266.099401,219.420744 267.631134,219.084064 C269.841704,218.599679 271.292934,217.10308 272.376462,215.204638 C272.811613,214.44222 273.229359,213.668941 273.64928,212.900007 C274.700171,210.979843 275.165783,209.161769 274.086607,206.93099 C272.596213,203.850908 272.439559,200.494966 273.475219,197.180293 C273.805934,196.124638 273.812462,195.136318 273.518734,194.089351 C273.329444,193.420334 273.133625,192.718736 273.133625,192.03017 C273.135801,190.170826 272.382989,188.667711 271.284231,187.221072 C270.44874,186.117629 270.555353,185.298736 271.403898,184.395129 C272.966092,182.735621 274.563098,181.104351 276.131819,179.451359 C276.73668,178.819269 277.387231,178.213244 277.881128,177.498613 C279.687007,174.879023 281.727868,172.498367 284.303965,170.582548 C285.48105,169.709351 286.048922,168.4039 286.27085,166.970293 C286.353528,166.451154 286.410098,165.921154 286.397044,165.39767 C286.336122,162.830211 287.717728,161.131605 289.719425,159.784884 C290.476589,159.278777 291.322959,158.957302 292.206316,159.115867 C293.772862,159.400416 295.226268,159.745785 296.638334,158.457711 C297.19968,157.949433 298.296262,158.003736 299.155686,157.847343 C300.920225,157.521523 302.517231,156.863367 303.918419,155.72517 C304.462359,155.284228 305.015001,154.752056 305.654674,154.547875 C308.552783,153.622548 311.01574,151.989105 313.363383,150.125416 C313.604892,149.932097 314.020462,149.949474 314.362056,149.888654 C314.93428,149.784392 315.843747,150.399105 315.889437,151.072466 C315.915547,151.530785 315.765419,152.210662 315.445583,152.436564 C314.744989,152.920949 313.909498,153.242425 313.091413,153.513941 C311.209383,154.137343 309.597147,155.127834 308.300395,156.637466 C307.730347,157.30431 307.10808,157.932056 306.453177,158.514187 C304.273068,160.462589 302.810959,162.765048 302.639074,165.766933 C302.534637,167.580662 301.57948,169.077261 300.767922,170.634679 C300.039044,172.035703 300.297959,173.182589 301.716553,173.617015 C303.966286,174.303408 304.997595,176.143203 306.209492,177.809228 C306.581547,178.324023 306.572844,179.145089 306.642468,179.833654 C306.799122,181.397589 306.727322,183.002793 307.055862,184.525457 C307.693359,187.462179 309.67765,189.015252 312.688898,189.110826 C313.735437,189.14558 314.786328,188.943572 315.835044,188.874064 C317.412468,188.769802 318.989892,188.652507 320.567316,188.60472 C321.661722,188.569966 322.629934,188.978326 323.445844,189.716851 C324.22694,190.422793 324.977577,191.167834 325.79131,191.834679 C328.365231,193.950334 331.332965,194.797466 334.63794,194.443408 C336.204486,194.278326 337.742747,193.817834 339.341928,194.167548 C339.909801,194.289187 340.643031,195.149351 340.512486,195.705416 C340.277504,196.72849 340.075159,197.768941 339.731389,198.759433 C339.087365,200.616605 338.982928,202.536769 338.94594,204.469966 C338.911128,206.46181 339.33105,208.297261 340.760522,209.802548 C341.119522,210.18267 341.389316,210.643162 341.691747,211.077589 C342.122547,211.696646 342.137777,212.391728 341.985474,213.088982 C341.913674,213.427834 341.724383,213.738449 341.600365,214.068613 C340.871486,216.017015 341.047722,217.861154 342.298783,219.551072 C343.042892,220.556769 342.566401,221.97517 341.456765,222.724556 C340.103444,223.634679 338.604347,224.069105 336.983407,224.088654 C334.696686,224.11472 332.409965,224.08431 330.127595,224.15599 C329.261644,224.184228 328.389165,224.364515 327.544971,224.579556 C326.361359,224.885826 325.828298,226.395457 326.243868,227.587957 C326.687722,228.856482 327.832171,229.410375 328.650256,230.294433 C328.970092,230.641974 328.900468,231.480416 328.541468,231.715007 C328.252092,231.906154 327.975771,232.127711 327.664637,232.271072 C327.346977,232.414433 326.994504,232.47308 326.659437,232.579515 C324.544601,233.25722 324.287862,234.901523 324.459747,236.276482 C324.588116,237.297384 324.936237,238.33349 325.397498,239.252302 C326.024116,240.503449 326.833498,241.665539 327.60154,242.83849 C328.406571,244.065744 328.828668,245.423326 328.571928,246.8439 C327.819116,250.990498 327.492753,255.182711 327.048898,259.364064 C326.920528,260.567425 326.463619,261.738203 326.115498,262.911154 C325.876165,263.708326 324.744771,263.945089 323.891874,263.410744 C322.751777,262.696113 322.384074,261.694761 322.951947,260.782466 C323.69388,259.592138 324.51414,258.449597 325.184274,257.226687 C325.534571,256.590252 325.380092,255.836523 324.925359,255.245703 C323.226092,253.034474 320.89368,251.705129 318.184862,251.65517 C315.243237,251.603039 312.227637,251.194679 309.325177,252.382834 C308.404831,252.760785 307.247328,252.617425 306.198613,252.604392 C305.110734,252.589187 304.162104,252.241646 303.526783,251.227261 C302.59991,249.743695 301.361904,248.470826 300.73311,246.787425 C300.084734,245.056236 298.848904,243.798572 297.14311,243.136072 C295.54828,242.517015 294.519147,241.476564 293.907759,239.906113 C293.659722,239.263162 293.252856,238.65931 292.817704,238.116277 C292.26071,237.423367 291.531831,236.880334 290.615837,236.795621 C289.04494,236.650089 287.467516,236.582752 285.857456,236.480662" id="Fill-71" fill="#FF5000"></path>
                <path d="M227.05484,159.356746 C222.97747,159.589164 219.417931,158.563918 215.793119,158.13818 C215.305749,158.081705 214.796622,157.788467 214.398458,157.477852 C213.021203,156.404819 211.60261,155.362197 210.360252,154.147975 C208.4891,152.312524 206.748494,150.346746 204.960022,148.428754 C204.292064,147.711951 204.394325,146.864819 205.214585,146.178426 C205.347306,146.065475 205.508313,145.987278 205.65844,145.898221 C207.266325,144.940311 208.17144,143.567524 208.406422,141.679942 C208.552197,140.513508 209.411622,139.903139 210.566949,139.740229 C211.4329,139.616418 212.314082,139.559942 213.164803,139.368795 C215.075119,138.938713 216.863591,138.271869 217.968876,136.484205 C218.569385,135.513262 219.548476,134.90941 220.579785,134.944164 C223.669361,135.044082 226.419519,134.099205 229.058713,132.648221 C229.204488,132.567852 229.400306,132.587401 229.565664,132.53527 C230.161822,132.354983 231.112628,132.895844 231.238822,133.475803 C231.57824,135.05277 231.613052,136.649287 230.905931,138.098098 C229.71144,140.552606 229.517797,143.117893 229.685331,145.765721 C229.85504,148.413549 229.500391,150.974492 228.640967,153.50068 C228.023052,155.312237 227.62924,157.199819 227.05484,159.356746" id="Fill-262" fill="#FF5000"></path>
                <path d="M283.131987,93.7144372 C281.378327,93.7144372 279.626842,93.7578798 277.875357,93.694888 C277.009405,93.6688224 276.128224,93.5254617 275.290557,93.2995601 C274.22226,93.0106667 273.323672,92.4024699 273.34543,91.1534945 C273.382417,89.2528798 272.335878,88.2015683 270.669248,87.7519372 C267.890805,87.0003798 265.532284,85.5646011 263.406569,83.6770191 C262.884387,83.2121831 262.327393,82.7821011 261.766048,82.3628798 C259.899248,80.9770601 257.858387,80.1103798 255.486811,79.9387814 C253.043436,79.7628388 250.613114,79.3892322 248.176266,79.1003388 C246.172393,78.8657486 244.477478,78.1359126 243.354787,76.3265273 C242.993611,75.7487404 242.445321,75.2686994 241.931842,74.7995191 C240.661199,73.6439453 238.509375,73.3420191 237.021157,74.1782896 C235.955036,74.7777978 234.967242,75.5163224 233.946811,76.1940273 C232.484702,77.1584535 231.044351,78.1511175 229.556133,79.0742732 C228.970854,79.4391912 228.292017,79.6520601 227.650169,79.9214044 C227.252005,80.0886585 226.33166,79.7671831 226.296848,79.4239863 C226.266387,79.0981667 226.253333,78.6615683 226.436096,78.4486994 C226.99309,77.7883716 227.574017,77.1019781 228.276787,76.619765 C235.350175,71.7607076 243.071939,70.5551749 251.337642,72.7012404 C255.419363,73.7612404 259.333551,75.3077978 263.143302,77.1019781 C267.105357,78.9656667 271.041302,80.8858306 274.985951,82.7907896 C277.990672,84.2417732 281.036733,85.4386175 284.387399,85.9946831 C287.890369,86.5768142 290.940781,88.3818552 293.651775,90.6864863 C293.782321,90.7994372 293.856296,90.9732076 293.973787,91.1013634 C294.415466,91.5792322 294.165254,92.6913634 293.53646,92.849929 C292.355024,93.1453388 291.16706,93.5471831 289.966042,93.6101749 C287.694551,93.7318142 285.410005,93.644929 283.131987,93.644929 L283.131987,93.7144372 Z" id="Fill-278" fill="#FF5000"></path>
                <path d="M185.98953,137.857289 C183.750675,137.77692 181.479185,137.666141 179.205518,137.620526 C177.739057,137.590117 176.431427,137.125281 175.321791,136.223846 C173.692148,134.90319 172.103845,133.526059 170.556881,132.107658 C169.479881,131.119338 169.451597,130.172289 170.343657,128.834256 C170.924585,127.958887 171.581663,127.137822 172.171294,126.268969 C173.241766,124.692002 174.686469,123.949133 176.620718,124.016469 C178.370027,124.075117 180.119336,124.053395 181.794669,123.349625 C182.978281,122.856551 183.541803,121.379502 182.749827,120.32819 C181.909985,119.213887 180.983112,118.164748 180.051888,117.124297 C178.979239,115.923108 178.948778,114.624174 179.555815,113.227494 C179.695063,112.906018 179.834312,112.582371 180.004021,112.280444 C180.360845,111.639666 180.904785,111.163969 181.616257,111.044502 C183.879045,110.662207 186.146185,110.683928 188.400269,111.163969 C189.477269,111.392043 190.319288,112.273928 190.364978,113.323067 C190.432427,114.89569 190.430251,116.468313 190.452009,118.040936 C190.478118,119.965444 190.484645,121.885608 190.536863,123.807944 C190.556445,124.522576 191.085154,125.132944 191.796627,125.298026 C192.475463,125.45442 193.18476,125.489174 193.857069,125.660772 C195.336585,126.038723 195.721694,127.270322 194.76436,128.39983 C193.863597,129.462002 192.854045,130.461182 192.118639,131.629789 C189.842797,135.242043 189.884136,135.268108 185.98953,137.857289" id="Fill-280" fill="#FF5000"></path>
                <path d="M231.249901,129.453285 C231.160695,129.600989 231.108477,129.811686 230.977931,129.883366 C229.602852,130.639268 228.214719,131.373448 226.833113,132.111973 C225.699543,132.715825 224.45501,132.665866 223.236586,132.650662 C220.980325,132.624596 219.139634,133.360948 217.842883,135.287629 C217.111828,136.375866 215.973907,136.829842 214.751131,137.090498 C213.552289,137.344637 212.353446,137.600948 211.145901,137.798612 C209.385713,138.087506 208.363107,139.145334 207.871386,140.789637 C207.673392,141.454309 207.534143,142.140703 207.312216,142.796686 C207.142507,143.296276 205.928434,143.735047 205.478052,143.480907 C204.092095,142.703285 202.751828,141.899596 202.619107,140.04894 C202.516846,138.634883 201.629137,137.889842 200.282343,137.62267 C198.90944,137.348981 197.521307,137.13394 196.174513,136.764678 C195.523961,136.586563 194.938683,136.143448 194.35558,135.76767 C193.800761,135.41144 193.537495,134.520866 193.681095,133.917014 C193.926955,132.870047 194.379513,131.938203 195.127974,131.169268 C196.594434,129.668325 198.078301,128.18476 199.551289,126.690334 C200.332386,125.897506 201.287543,125.523899 202.384125,125.556481 C203.959374,125.604268 205.532446,125.669432 207.103343,125.760662 C209.041943,125.873612 210.930501,125.710703 212.812531,125.154637 C214.483513,124.661563 216.206713,124.327055 217.923386,124.003407 C220.812792,123.462547 223.44981,124.075088 225.908416,125.710703 C227.501071,126.770703 229.228622,127.62435 230.866967,128.617014 C231.084543,128.751686 231.125883,129.168735 231.249901,129.453285" id="Fill-284" fill="#FF5000"></path>
                <path d="M262.85591,173.240172 C260.514794,173.188041 258.376025,173.774516 256.872576,175.783737 C256.124116,176.782918 255.153728,177.504065 254.176813,178.244762 C253.199898,178.987631 253.112867,179.971606 253.617643,181.048983 C253.83957,181.522508 254.124594,181.991688 254.215976,182.495623 C254.34217,183.199393 254.148528,183.874926 253.571952,184.381032 C252.849601,185.013123 251.924904,185.271606 251.141631,184.845868 C249.15734,183.761975 247.120831,182.68677 245.371522,181.277057 C243.426394,179.708778 241.359425,178.492385 239.029188,177.658286 C238.54617,177.486688 238.060976,177.260786 237.656285,176.952344 C237.403898,176.761196 237.127576,176.352836 237.160213,176.076975 C237.321219,174.699844 237.547498,173.324885 237.839049,171.969475 C237.882564,171.767467 238.44391,171.48509 238.67454,171.554598 C239.327267,171.745746 239.934304,172.091114 240.554394,172.388696 C241.970813,173.070746 243.328485,173.917877 244.808001,174.41095 C247.614728,175.347139 250.325722,175.138614 252.751691,173.201073 C253.843922,172.330049 254.98837,171.517672 256.150225,170.737877 C257.98874,169.501934 260.020898,169.165254 262.179249,169.619229 C262.864613,169.76259 263.519516,170.071032 264.209231,170.16009 C269.230879,170.818246 272.322631,173.909188 274.467928,178.207836 C274.807346,178.885541 274.800819,179.576278 274.391776,180.19968 C273.517122,181.531196 272.370498,182.597713 271.036758,183.468737 C270.523279,183.803246 269.663855,183.690295 269.104685,183.195049 C267.69697,181.956934 266.848425,180.508123 267.431528,178.568409 C267.797055,177.352016 267.997225,176.170377 267.089934,175.097344 C266.136952,173.974352 264.894594,173.396565 263.434661,173.274926 C263.260601,173.259721 263.084364,173.253205 262.85591,173.240172" id="Fill-316" fill="#FF5000"></path>
                <path d="M328.004787,104.564767 C324.484411,104.184644 320.615914,105.044808 317.030265,107.162636 C316.727835,107.34075 316.416702,107.508004 316.085987,107.623127 C315.761799,107.736078 315.404974,107.764316 315.069908,107.851201 C314.456344,108.009767 313.492484,107.438496 313.442441,106.865054 C313.168296,103.711119 313.283611,100.581078 314.101696,97.5118569 C314.341029,96.6234553 314.982877,95.9348897 315.933684,95.8545209 C317.672114,95.7046438 319.451884,95.4396438 321.159853,95.6546848 C325.369944,96.1912012 329.360284,97.5096848 332.943756,99.8447258 C333.655229,100.30739 334.229629,101.008988 334.780096,101.67366 C335.402362,102.429562 334.797502,104.010873 333.84452,104.25198 C333.337568,104.380136 332.826265,104.532185 332.310611,104.549562 C331.085659,104.595177 329.860708,104.564767 328.004787,104.564767" id="Fill-338" fill="#FF5000"></path>
                <path d="M235.193507,170.888881 C234.908483,172.604865 234.638689,174.325193 234.329732,176.036832 C234.192659,176.801422 233.624786,177.233676 232.932895,177.437857 C232.134392,177.672447 230.944253,177.220644 230.622241,176.588554 C230.306756,175.97384 229.93035,175.350439 229.799804,174.685767 C229.425574,172.78298 228.220204,171.588308 226.577507,170.817201 C225.15021,170.14384 223.77078,169.483513 222.589344,168.38007 C222.17595,167.993431 221.286065,168.034701 220.61158,168.028185 C219.924041,168.021668 219.234326,168.295357 218.548962,168.27798 C216.327513,168.223676 214.756616,165.762652 215.659556,163.762119 C216.01638,162.969291 216.440653,162.187324 216.962835,161.500931 C217.243507,161.129496 217.793974,160.75589 218.233477,160.742857 C221.183804,160.666832 226.22721,161.442283 229.055695,162.402365 C229.684489,162.613062 230.332865,163.027939 230.761489,163.527529 C232.123513,165.121873 233.400683,166.785726 234.680029,168.447406 C235.30012,169.253267 235.439368,169.976586 235.193507,170.888881" id="Fill-344" fill="#D8D8D8"></path>
                <path d="M301.698833,104.324867 C303.265379,104.17499 304.831924,104.05335 306.394118,103.864375 C307.083833,103.779662 307.788779,102.435113 307.518985,101.750891 C307.266597,101.107941 307.001155,100.441096 306.598639,99.8850308 C305.780555,98.7490062 304.84933,97.6911784 303.998609,96.5790472 C303.337179,95.7123669 303.187052,94.6436784 303.6135,94.1484325 C304.253173,93.41208 305.132179,93.3860144 306.009009,93.4055636 C306.361482,93.4142521 306.729185,93.4164243 307.055549,93.5185144 C308.387112,93.9442521 309.720852,94.372162 311.026306,94.8674079 C311.733427,95.13458 312.133767,95.7840472 312.183809,96.4965062 C312.403561,99.4918751 312.112009,102.448146 311.250409,105.33708 C311.058942,105.977859 310.308306,106.672941 309.733906,106.57085 C306.905421,106.064744 304.140033,106.533924 301.368118,107.005277 C299.96693,107.246383 298.563567,107.189908 297.188488,106.811957 C296.859949,106.720728 296.503124,106.57085 296.27467,106.338432 C296.061445,106.119047 295.865627,105.730236 295.909142,105.456547 C295.954833,105.161137 296.237682,104.770154 296.509652,104.670236 C297.153676,104.435646 297.845567,104.266219 298.526579,104.218432 C299.575294,104.148924 300.634888,104.198883 301.687955,104.198883 C301.69013,104.242326 301.694482,104.281424 301.698833,104.324867" id="Fill-386" fill="#D8D8D8"></path>
                <path d="M191.742367,110.733963 C192.928155,109.376381 193.81804,108.301176 194.773197,107.288963 C195.119143,106.921873 195.593458,106.556955 196.063422,106.459209 C196.500749,106.365807 197.055567,106.550439 197.468961,106.778512 C197.660428,106.884947 197.810555,107.495316 197.686537,107.677775 C196.639997,109.213471 196.476816,110.907734 196.620416,112.684537 C196.679161,113.379619 196.639997,114.087734 196.74661,114.771955 C197.229628,117.854209 195.865428,120.163185 193.680967,122.11593 C193.456864,122.317939 193.047822,122.348348 192.714931,122.383103 C192.32547,122.428717 191.709731,121.820521 191.666216,121.377406 C191.583537,120.51507 191.450816,119.648389 191.468222,118.781709 C191.522616,116.17298 191.642282,113.566422 191.742367,110.733963" id="Fill-426" fill="#D8D8D8"></path>
                <path d="M198.007029,142.84218 C195.300386,142.264393 192.208635,141.651852 189.543332,139.835951 C189.340986,139.699106 189.230023,139.16259 189.325756,138.899762 C189.837059,137.487877 191.392726,136.582098 192.613326,136.912262 C192.950568,137.003492 193.316095,137.04259 193.61635,137.203328 C195.49838,138.20468 197.497901,138.778123 199.608386,139.049639 C200.546138,139.171278 201.094429,140.01841 201.003047,140.94591 C200.885556,142.127549 200.047889,142.887795 198.920847,142.84218 C198.746786,142.835664 198.57055,142.84218 198.007029,142.84218" id="Fill-451" fill="#FF5000"></path>
                <path d="M351.515351,104.262295 C353.63889,104.342664 355.222842,104.381762 356.536999,105.480861 C356.895999,105.778443 356.996084,106.558238 356.63926,106.884057 C356.382521,107.118648 356.154066,107.431434 355.847284,107.557418 C353.826005,108.380656 351.74163,108.458852 349.668133,107.798525 C349.204696,107.652992 348.81306,107.218566 348.441005,106.860164 C347.829618,106.269344 348.147278,104.872664 348.950133,104.696721 C349.968387,104.472992 351.006224,104.344836 351.515351,104.262295" id="Fill-485" fill="#D8D8D8"></path>
                <path d="M271.239047,106.441219 C274.169792,106.358678 276.526138,107.040728 278.865077,107.811834 C279.021732,107.861793 279.180562,107.998637 279.267592,108.139826 C279.439477,108.413515 279.696217,108.73499 279.670107,109.010851 C279.637471,109.299744 279.337217,109.582121 279.108762,109.8254 C279.006501,109.931834 278.788926,109.970933 278.623568,109.977449 C275.575332,110.079539 272.731617,109.314949 270.066314,107.876998 C269.866144,107.768392 269.835683,107.286178 269.794344,106.966875 C269.783465,106.873474 269.994514,106.682326 270.129411,106.651916 C270.634186,106.530277 271.147665,106.456424 271.239047,106.441219" id="Fill-495" fill="#D8D8D8"></path>
            </g>
        </g>
    </g>
</svg>